<svg xmlns="http://www.w3.org/2000/svg" viewBox="0 0 140.52 140.52"><defs><style>.cls-1{fill:#fff;fill-rule:evenodd}</style></defs><title>Recurso 1</title><g id="Capa_2" data-name="Capa 2"><path class="cls-1" d="M18.74 139.05L15 119l25.89-11.22v32.62H19zm-4.41-24l-4.14-22.46 30.74-13.34v24.21zM9.47 88.66L5.5 67l35.43-15.37V75zM4.79 63.08L.21 38.16 0 37.06l1-.58 37.6-21.71 2.33-1.33v34zm97.37-14.5l38.36 9.06-1.52 9.89-40.81 20.2zm36.1 23.56l-2.56 16.65-39.56 19 1.58-15.59zM135 93.37l-2.67 17.27-38.24 17.23 1.61-15.62zm-3.39 21.82l-3.86 25.16H92.83l.82-8zM44.62 0l-.1 53.27 54.8-5.64L101.68 24zm-.1 57.1v13.81l53-4.89L99 51.49zm-.07 17.64V89.1l51.15-3.86 1.5-15.35zm0 18.22l-.1 47.56h45.74l5.1-51.35z" id="Capa_1-2" data-name="Capa 1"/></g></svg>