<svg xmlns="http://www.w3.org/2000/svg" viewBox="0 0 140.52 140.52"><defs><style>.cls-1{fill:#fff;fill-rule:evenodd;}</style></defs><title>Recurso 1</title><g id="Capa_2" data-name="Capa 2"><g id="Capa_1-2" data-name="Capa 1"><path class="cls-1" d="M18.74,139.05,15,119l25.89-11.22v32.62H19Zm-4.41-24L10.19,92.59,40.93,79.25v24.21ZM9.47,88.66,5.5,67,40.93,51.63V75ZM4.79,63.08.21,38.16,0,37.06l1-.58L38.6,14.77l2.33-1.33v34Zm97.37-14.5,38.36,9.06L139,67.53,98.19,87.73Zm36.1,23.56L135.7,88.79l-39.56,19,1.58-15.59ZM135,93.37l-2.67,17.27L94.09,127.87l1.61-15.62Zm-3.39,21.82-3.86,25.16H92.83l.82-8ZM44.62,0l-.1,53.27,54.8-5.64L101.68,24Zm-.1,57.1,0,13.81,53-4.89L99,51.49Zm-.07,17.64V89.1L95.6,85.24l1.5-15.35Zm0,18.22-.1,47.56H90.09l5.1-51.35Z"/></g></g></svg>