<?xml version="1.0" encoding="utf-8"?>
<!-- Generator: Adobe Illustrator 22.0.0, SVG Export Plug-In . SVG Version: 6.00 Build 0)  -->
<svg version="1.1" id="Capa_1" xmlns="http://www.w3.org/2000/svg" xmlns:xlink="http://www.w3.org/1999/xlink" x="0px" y="0px"
	 viewBox="0 0 313 303.9" style="enable-background:new 0 0 313 303.9;" xml:space="preserve">
<style type="text/css">
	.st0{fill:#572F85;}
	.st1{fill:#FFFFFF;}
	.st2{fill:none;stroke:#FFFFFF;stroke-width:2.9147;}
</style>
<defs>
	
	
		<inkscape:perspective  id="perspective6199" inkscape:persp3d-origin="167.5 : 112.55101 : 1" inkscape:vp_x="0 : 168.82651 : 1" inkscape:vp_y="0 : 1000 : 0" inkscape:vp_z="335 : 168.82651 : 1" sodipodi:type="inkscape:persp3d">
		</inkscape:perspective>
</defs>
<sodipodi:namedview  bordercolor="#666666" borderopacity="1" gridtolerance="10" guidetolerance="10" id="namedview6193" inkscape:current-layer="Layer_1" inkscape:cx="153.309" inkscape:cy="157.3425" inkscape:pageopacity="0" inkscape:pageshadow="2" inkscape:window-height="796" inkscape:window-maximized="0" inkscape:window-width="1105" inkscape:window-x="0" inkscape:window-y="0" inkscape:zoom="0.69894237" objecttolerance="10" pagecolor="#ffffff" showgrid="false">
	</sodipodi:namedview>
<circle id="circle5763" sodipodi:cx="158.726" sodipodi:cy="158.619" sodipodi:rx="156.245" sodipodi:ry="156.245" class="st0" cx="156.6" cy="152" r="150">
</circle>
<path id="path5766" class="st1" d="M189.6,202.2c8.6,0.4,14-6,15.5-14.1c-10.4,4.7-19.4-2-21.6-10.5c-3.4,0.7-7.2,1.2-11.4,1.6
	C174.4,188.9,178.6,201.8,189.6,202.2L189.6,202.2z"/>
<path id="path5768" class="st1" d="M107.4,188.1c1.5,8.2,6.9,14.5,15.5,14.1c11-0.5,15.2-13.3,17.5-23c-4.2-0.4-8-0.9-11.4-1.6
	C126.8,186.1,117.8,192.8,107.4,188.1z"/>
<path id="path5770" class="st2" d="M156.1,165.2c18.5,0,33.5,2.1,33.5,4.6c0,2.5-15,4.6-33.5,4.6c-18.5,0-33.5-2.1-33.5-4.6
	C122.6,167.3,137.6,165.2,156.1,165.2L156.1,165.2z"/>
<path id="path5776" class="st1" d="M104.7,110.8c-19.3-3.4-33.5,11.8-33.2,27.7c0.2,14.2,9.8,25.8,26.4,25.2
	c-1.4-8,1.9-15.1,8.1-17.2c11.5-3.8,18.7,6.8,21.1,15.9c3.9-0.8,8.4-1.5,13.3-2C137.1,138.2,126.4,114.6,104.7,110.8z M94.1,135.6
	l-1.2,7.1l-3.3-6.4l-7.4,1.1l5.3-5l-3.3-6.4l6.6,3.3l5.3-5l-1.2,7.1l6.6,3.3L94.1,135.6L94.1,135.6z"/>
<path id="path5782" class="st1" d="M240.5,134.7c-1.4-13-14.3-25.9-30.6-23.9c-23.9,2.9-34.7,26.7-38,49.6c5,0.5,9.5,1.2,13.3,2
	c1.4-10.7,14.2-22.1,24.7-14.1c3.9,3,5.4,9.4,4.6,15.6C232.6,163.6,242.3,151,240.5,134.7L240.5,134.7z M222.6,135.5l-1.2,7.1
	l-3.3-6.4l-7.4,1.1l5.3-5l-3.3-6.4l6.6,3.3l5.3-5l-1.2,7.1l6.6,3.3L222.6,135.5L222.6,135.5z"/>
<path id="path5784" class="st1" d="M156.1,84.8C156.1,84.8,156.1,84.8,156.1,84.8L156.1,84.8C156.1,84.8,156.1,84.8,156.1,84.8
	c2.9,39.5,2.4,71.7,2.4,74.9c3.6,0.1,7.1,0.2,10.4,0.5c0.7-11.4,9.3-28.6,9.3-28.6c10.2-18.9,9.3-28.7,9.3-28.7
	c-0.5-21.1-20.1-32.1-20.1-32.1c-5.8-4.1-11.2-9.5-11.2-9.6c-0.1,0.1-5.4,5.5-11.2,9.6c0,0-19.6,11.1-20.1,32.1
	c0,0-0.9,9.9,9.3,28.7c0,0,8.6,17.2,9.3,28.6c3.3-0.3,6.8-0.4,10.4-0.5C153.7,156.5,153.3,124.3,156.1,84.8L156.1,84.8z"/>
<path id="path5786" class="st1" d="M156.3,206.4L156.3,206.4c-2.1-10.1-2.2-23.5-2.1-26.3c-3.9,0-7.6-0.2-11.2-0.5
	c-2.2,13.9-10.1,23.2-10.1,23.2c8.1,15.3,23.4,21.1,23.4,21.1h0c0,0,15.3-5.8,23.4-21.1c0,0-7.9-9.4-10.1-23.3
	c-3.5,0.3-7.3,0.5-11.2,0.5C158.5,182.9,158.4,196.3,156.3,206.4L156.3,206.4z"/>
<path id="path5793" class="st1" d="M78.9,214.6c-0.8,0-1.5,0.1-1.6,0.1c-0.9,0.1-1.6,0.7-2.2,1.1c0,0,0,0-0.1,0
	c-1.2,0.6-1.7,0.8-2,0.8c-0.3,0.1-1.2,0-1.7-0.1l-2.3-0.4l1.6,1.7c2.4,2.5,5,5.1,8.2,8l0.2,0.2h0.4c0.1,0,1.3,0.1,2.1-0.2
	c0.5-0.1,1.1-0.5,1.7-0.9l0.6-0.4c0,0,0,0,0,0c0,0,0.7-0.5,0.7-0.5c0.3-0.2,0.6-0.5,1-0.6c0,0,0.9-0.2,1.9-0.1l2.6,0.3l-2-1.6
	c-2.6-2.2-5.4-4.5-7.9-7.3l-1.3-1.4C78.9,213.4,78.9,214,78.9,214.6L78.9,214.6z"/>
<path id="path5795" class="st0" d="M78.1,211.4v2.4c-0.4,0-0.8,0.1-0.9,0.1c-1.1,0.2-1.9,0.8-2.5,1.2l0,0c-1.1,0.5-1.5,0.7-1.7,0.7
	c0,0-0.1,0-0.1,0c-0.4,0-1.1-0.1-1.3-0.1l-4.6-0.9l3.2,3.4c2.4,2.5,5,5.1,8.2,8.1l0.4,0.4h0.6h0.1c0.1,0,0.4,0,0.8,0
	c0.7,0,1.2-0.1,1.6-0.2c0.6-0.2,1.2-0.6,1.9-1c0.2-0.1,0.4-0.2,0.5-0.3c0.3-0.2,0.6-0.4,0.9-0.6c0.3-0.2,0.5-0.4,0.7-0.5
	c0.2,0,0.6-0.1,1.1-0.1c0.2,0,0.3,0,0.5,0l5.1,0.6l-4-3.3c-2.6-2.2-5.3-4.5-7.8-7.2L78.1,211.4L78.1,211.4L78.1,211.4z M77.2,214
	C77.2,214,77.2,214,77.2,214C77.2,214,77.2,214,77.2,214L77.2,214z M79.7,215.3c2.4,2.6,5.1,5,8,7.3l0,0l0,0c-0.2,0-0.4,0-0.6,0
	c-0.8,0-1.5,0.2-1.5,0.2c-0.8,0.3-1.4,0.9-1.9,1.2c-0.7,0.4-1.6,1-2.2,1.2c-0.3,0.1-0.8,0.2-1.2,0.2c-0.4,0-0.7,0-0.7,0h-0.1
	c-2.8-2.6-5.5-5.2-8.1-8l0,0l0,0c0,0,0.9,0.2,1.6,0.2c0.2,0,0.3,0,0.5,0c0.5-0.1,1.6-0.7,2.2-0.9c0.5-0.4,1.2-0.9,2-1
	c0,0,0.3-0.1,0.6-0.1l0,0c0,0,0,0,0,0l0,0c0.2,0,0.4,0,0.5,0c0.3,0,0.7,0,1,0.1L79.7,215.3L79.7,215.3L79.7,215.3L79.7,215.3z
	 M84.3,225.3C84.3,225.3,84.3,225.3,84.3,225.3C84.3,225.3,84.3,225.3,84.3,225.3L84.3,225.3z"/>
<path id="path5799" class="st1" d="M89.2,223.8c-0.7,0-1.6,0.1-1.9,0.4l0.4-0.3c-1,0.3-1.6,0.9-2.1,1.3c0,0-0.1,0.1-0.1,0.1
	c-0.1,0.1-0.5,0.3-0.5,0.3c-0.5,0.3-1.1,0.7-1.4,0.7c-0.4,0.2-1.2,0.2-1.6,0.1l-2.4-0.2l1.8,1.6c2.9,2.6,6.2,4.9,9.1,7l0.2,0.1h0.4
	c0.2,0,1.4-0.1,2.2-0.4c0.7-0.3,1.6-1,2.1-1.6c0,0,0,0,0,0c0,0,0.6-0.5,0.6-0.5c0.3-0.3,0.6-0.6,1-0.8c0,0,0.9-0.3,1.8-0.3h2.7
	l-2.3-1.4c-2.7-1.7-5.9-3.8-8.9-6.1l-1.2-1C89.2,222.9,89.2,223.4,89.2,223.8L89.2,223.8z"/>
<path id="path5801" class="st0" d="M88.4,221.3v1.8c-0.5,0.1-0.8,0.1-0.9,0.1l0,0l0,0c-1.2,0.3-1.9,1.1-2.4,1.5c0,0,0,0,0,0
	c-0.1,0.1-0.3,0.2-0.4,0.3c-0.3,0.2-1,0.6-1.2,0.7l0,0l0.1,0l-0.3,0.1h0c0,0-0.2,0.1-0.7,0.1c-0.3,0-0.5,0-0.5,0l-4.8-0.5l3.6,3.2
	c3,2.6,6.3,4.9,9.2,7l0.4,0.3H91h0.1h0.1l0.1,0c0.2,0,1.5-0.2,2.3-0.5l0.1,0l0.1,0c0.7-0.3,1.6-1.1,2.2-1.6c0.3-0.2,0.5-0.4,0.7-0.6
	c0.2-0.2,0.4-0.5,0.7-0.6c0.3-0.1,1-0.3,1.6-0.3h5.3l-4.5-2.8c-2.7-1.7-5.8-3.7-8.8-6.1L88.4,221.3L88.4,221.3z M89.9,224.5
	c2.8,2.2,5.8,4.2,8.9,6.1l0,0l0,0c-1.1,0-2.2,0.4-2.2,0.4c-0.8,0.4-1.2,1-1.8,1.4c-0.5,0.5-1.4,1.2-1.9,1.4
	c-0.7,0.3-1.9,0.4-1.9,0.4H91c-3.1-2.2-6.2-4.4-9.1-6.9l0,0l0,0c0,0,0.3,0,0.7,0c0.4,0,0.9,0,1.2-0.2c0.5-0.1,1.5-0.8,2.2-1.2
	c0.4-0.4,0.9-1,1.9-1.3c0,0,0.7-0.2,1.4-0.2c0.2,0,0.4,0,0.6,0L89.9,224.5L89.9,224.5L89.9,224.5L89.9,224.5z"/>
<path id="path5805" class="st1" d="M101.4,231.4c0,0-0.1,0-0.1,0S101.4,231.4,101.4,231.4c-0.1,0-0.2,0-0.2,0
	c-1.1,0.2-2.2,0.5-2.2,0.5l0,0l0,0c-0.9,0.4-1.3,1.1-1.7,1.6c0,0-0.1,0.1-0.1,0.1c-0.2,0.1-0.6,0.5-0.6,0.5l-1.1,0.8
	c-0.4,0.2-1.3,0.3-1.6,0.3l-2.2,0.2l1.9,1.2c3.4,2.2,6.8,4.1,9.9,5.7l0.2,0.1h0.4l2.3-0.6l0.1-0.1c0,0,1.6-1.6,1.6-1.7
	c0.1-0.1,0.6-0.7,0.6-0.7c0.3-0.3,0.5-0.6,0.9-0.9c0,0,0.8-0.4,1.7-0.5l2.8-0.3l-2.6-1.1c-3.1-1.3-6.2-2.9-9.6-4.9L101.4,231.4
	C101.5,231.4,101.4,231.4,101.4,231.4L101.4,231.4z"/>
<path id="path5807" class="st0" d="M101.4,230.6h-0.1h-4.6l2.7,2c0.3-0.1,1.1-0.4,1.9-0.5c0,0,0,0,0,0l0,0l0,0h0.1l0,0l0,0
	c0,0-0.1,0-0.1,0c0.1,0,0.1,0.1,0.2,0.1L101.4,230.6L101.4,230.6L101.4,230.6z M101.6,230.6l-0.5,0.1c-1.2,0.2-2.3,0.6-2.4,0.6
	l-0.1,0l-0.1,0c-1,0.5-1.6,1.3-2,1.8c0,0,0,0,0,0c-0.2,0.1-0.4,0.3-0.6,0.5c-0.3,0.2-0.7,0.6-0.9,0.7c-0.4,0.1-1,0.2-1.4,0.3
	l-4.4,0.5l3.7,2.3c3.5,2.2,6.8,4.1,10,5.7l0.3,0.2h0.4h0.1h0.2l0.2,0c0.1,0,1.3-0.3,2.1-0.6l0.3-0.1l0.2-0.2l0,0
	c0.6-0.6,1.2-1.2,1.7-1.7c0.2-0.2,0.4-0.5,0.6-0.7c0.2-0.3,0.4-0.5,0.7-0.7c0.2-0.1,0.8-0.4,1.4-0.5l5.7-0.7l-5.3-2.2
	c-3.1-1.3-6.2-2.9-9.5-4.9L101.6,230.6L101.6,230.6L101.6,230.6z M101.3,232.2C101.3,232.2,101.3,232.2,101.3,232.2l0.1,0
	C101.4,232.2,101.3,232.2,101.3,232.2c3.1,1.8,6.3,3.5,9.7,4.9l0,0l0,0c-1.1,0.1-2,0.7-2,0.7c-0.8,0.5-1.1,1.2-1.6,1.7
	c-0.4,0.5-1.2,1.3-1.6,1.7c-0.7,0.3-1.9,0.5-1.9,0.5h-0.1c-3.4-1.7-6.8-3.7-9.9-5.6l0,0l0,0c0,0,1.2-0.1,1.9-0.4
	c0.5-0.3,1.4-1,1.9-1.4c0.4-0.5,0.8-1.2,1.6-1.6C99.3,232.7,100.3,232.3,101.3,232.2L101.3,232.2L101.3,232.2z M109.7,239.1
	L109.7,239.1L109.7,239.1L109.7,239.1z"/>
<path id="path5811" class="st1" d="M113,237.8c-0.8,0.2-1.5,0.6-1.5,0.6c-0.8,0.5-1.1,1.1-1.4,1.6c0,0-0.3,0.4-0.3,0.4
	c0,0-0.5,0.5-0.5,0.5l-1.1,1c-0.3,0.2-1,0.3-1.4,0.4l-2.6,0.3l2.3,1.2c3.1,1.6,6.5,3,10.6,4.5l0.5,0.2c0,0,0.3-0.3,0.3-0.3
	c0.4-0.1,1.3-0.4,1.9-0.9c0.5-0.5,1.2-1.3,1.6-2c0-0.1,0.2-0.3,0.2-0.3c0.2-0.5,0.4-0.9,1-1.3c0.1-0.1,0.8-0.6,1.7-0.8l2.8-0.7
	l-2.7-0.8c-3.4-1-6.9-2.3-10.2-3.8l-1.1-0.5C113,237.1,113,237.5,113,237.8L113,237.8z"/>
<path id="path5813" class="st0" d="M112.2,235.9v1.3c-0.6,0.2-1,0.4-1.1,0.5l-0.1,0l-0.1,0c-0.9,0.6-1.3,1.3-1.6,1.8
	c-0.1,0.1-0.1,0.2-0.2,0.3c-0.2,0.2-0.3,0.3-0.5,0.5c-0.3,0.4-0.7,0.8-1,1c-0.2,0.1-0.6,0.2-1,0.2l-5.2,0.6l4.6,2.3
	c3.2,1.6,6.6,3,10.7,4.5l0.9,0.3l0.5-0.5c0.6-0.2,1.4-0.5,2-1.1l0,0l0,0c0.5-0.5,1.3-1.4,1.7-2.1l0-0.1l0-0.1c0-0.1,0.1-0.2,0.1-0.3
	c0.2-0.5,0.4-0.8,0.7-1l0.1,0l0.1,0c0,0,0.6-0.5,1.3-0.6l5.5-1.3l-5.4-1.6c-3.4-1-6.9-2.3-10.1-3.7L112.2,235.9L112.2,235.9
	L112.2,235.9z M113.7,238.3c3.2,1.4,6.8,2.7,10.3,3.8l0,0l0,0c-1.1,0.3-1.9,0.9-1.9,0.9c-0.8,0.5-1.1,1.3-1.4,1.8
	c-0.4,0.6-1.1,1.4-1.5,1.8c-0.5,0.5-1.8,0.8-1.8,0.8l-0.1,0.1c-3.6-1.3-7.2-2.7-10.5-4.4l0,0l0,0c0,0,1.2-0.1,1.8-0.5
	c0.5-0.4,1.2-1.2,1.8-1.7c0.4-0.5,0.7-1.3,1.5-1.8c0,0,1-0.5,1.9-0.6L113.7,238.3L113.7,238.3L113.7,238.3L113.7,238.3z
	 M107.7,241.4C107.7,241.4,107.7,241.4,107.7,241.4C107.7,241.4,107.7,241.4,107.7,241.4L107.7,241.4z"/>
<path id="path5817" class="st1" d="M204.7,234.9c-3.1,1.6-6.3,3.1-9.8,4.4l-0.2,0.1l-0.1,0.2c-0.6,0.8-1,1.9-1,2
	c-0.3,1-0.2,1.5-0.2,2l0,0.6l0,0.1c0.1,0.3,0,0.9-0.3,2c0,0-0.6,1.8-0.6,1.8l-0.5,1.5l1.5-0.5c3.4-1.1,7.8-2.8,11.4-4.5l0.5-0.2
	c0,0,0-0.4,0-0.4c0.2-0.3,0.5-1.1,0.7-1.7l0-0.1v-0.1c0-0.6-0.1-1.8-0.3-2.5c0,0-0.2-0.8-0.2-0.8c-0.1-0.4-0.3-0.8-0.3-1.2
	c0.1-0.2,1.2-3.5,1.2-3.5L204.7,234.9L204.7,234.9z"/>
<path id="path5819" class="st0" d="M208.2,232.2l-3.8,2c-3.1,1.6-6.3,3.1-9.7,4.4l-0.4,0.2l-0.3,0.4c-0.6,0.9-1.1,2-1.1,2.1l0,0.1
	l0,0.1c-0.1,0.6-0.2,1-0.2,1.4c0,0,0,0,0,0c0.6,0-0.1,0.8,0.1,1.5l0,0c0,0.1,0,0.6-0.3,1.7l0,0l0,0c-0.1,0.4-0.4,1.2-0.6,1.7
	l-1.3,3.1l3.2-1.1c3.5-1.1,7.8-2.8,11.5-4.5l0.9-0.4v-0.8c0.2-0.4,0.5-1.2,0.6-1.8l0-0.1v-0.1c0-0.7-0.1-1.9-0.3-2.7c0,0,0,0,0,0
	c-0.1-0.3-0.2-0.6-0.3-0.9c-0.1-0.3-0.2-0.6-0.2-0.8c0.1-0.3,0.3-1,0.5-1.5L208.2,232.2L208.2,232.2L208.2,232.2z M194.1,243
	c0-0.3,0-0.7,0.2-1.2c0,0,0.4-1,0.9-1.8c3.4-1.3,6.6-2.7,9.9-4.4l0,0l0,0c-0.4,0.9-0.7,2-0.7,2c0,0.9,0.4,1.6,0.5,2.2
	c0.1,0.7,0.3,1.8,0.3,2.4l0,0l0,0c-0.1,0.7-0.7,1.7-0.7,1.7v0.1l0,0l0,0c-3.5,1.6-7.8,3.3-11.4,4.4l0,0l0,0c0,0,0.5-1.3,0.7-2
	c0.1-0.4,0.3-1.3,0.3-1.9c0-0.2,0-0.3,0-0.4C194.1,243.7,194.1,243.4,194.1,243L194.1,243L194.1,243z"/>
<path id="path5823" class="st1" d="M216.7,228c-2.8,1.9-5.8,3.7-9.3,5.6l-2.6,1.4c0,0,1.1,0,2,0c-0.2,0.6-0.3,1.1-0.3,1.1
	c0,0,0,0,0,0c0,0.8,0.2,1.4,0.4,1.8l0.2,0.6c0,0,0.1,0.4,0.1,0.4c0.1,0.5,0.3,1.3,0.3,1.7c-0.1,0.4-0.4,1.1-0.6,1.4l-1.1,2l2.1-0.9
	c3.5-1.6,6.9-3.5,10.1-5.5l0.2-0.1l0.1-0.2c0.1-0.1,0.6-1.4,0.6-2.3v-0.1l-0.1-0.2l-0.7-2.2c0,0-0.1-0.2-0.1-0.2
	c-0.2-0.5-0.5-0.9-0.5-1.6c0,0,0-1,0.3-1.8l1.1-2.4L216.7,228L216.7,228z"/>
<path id="path5825" class="st0" d="M220.6,224.4l-4.4,2.9c-2.8,1.9-5.8,3.7-9.2,5.5l0.5,2.1c0.1-0.2,0.2-0.5,0.3-0.7h-0.1l0,0l0,0
	c3.1-1.7,6.2-3.5,9.3-5.6l0,0l0,0c-0.4,0.9-0.4,2-0.4,2.1c0,0,0,0,0,0c0,0.9,0.4,1.6,0.7,2.1c0.3,0.7,0.5,1.7,0.7,2.2l0,0l0,0
	c0,0.8-0.5,2-0.5,2c-3.3,2.1-6.6,3.9-10,5.5l0,0l0,0c0,0,0.6-1,0.7-1.7c0-0.7-0.3-1.7-0.4-2.4c-0.1-0.7-0.5-1.3-0.5-2.2l0,0l0,0
	c0,0,0-0.2,0.1-0.5c-0.3-0.1-0.6-0.4-0.8-0.7c-0.3-0.5-0.3-1.1,0-1.5c-0.7,1.2-0.9,2.4-0.9,2.6l0,0.1v0.1c0,0.8,0.2,1.5,0.4,2
	c0.1,0.2,0.1,0.4,0.2,0.5c0,0.1,0.1,0.3,0.1,0.4c0.1,0.4,0.2,1.1,0.3,1.5c-0.1,0.3-0.3,0.8-0.5,1.1l-2.1,4l4.1-1.9
	c3.6-1.7,7-3.5,10.2-5.6l0.4-0.2l0.2-0.4c0.1-0.2,0.7-1.5,0.7-2.6v-0.2l-0.1-0.2l0-0.1c-0.2-0.6-0.4-1.6-0.7-2.3l0-0.1l0,0
	c0-0.1-0.1-0.1-0.1-0.2c-0.2-0.4-0.4-0.8-0.4-1.2c0-0.2,0.1-1,0.3-1.5L220.6,224.4L220.6,224.4L220.6,224.4z"/>
<path id="path5829" class="st1" d="M227.4,219.7c-3.1,2.7-5.8,4.9-8.3,6.8c0,0,0.5,0.3,0.9,0.4c-0.4-0.1-1.2-0.1-1.2-0.1
	c-0.3,1.1-0.3,2.2-0.3,2.3c0,0.9,0.4,1.6,0.7,2.1l0.2,0.3c0.6,1.3,0.6,1.8,0.6,1.9c0,0.4-0.2,1.2-0.4,1.6l-0.7,2l1.8-1.1
	c3.3-2,6.5-4.5,9.3-6.7l0.3-0.2c0,0,0-0.4,0-0.4c0.1-0.3,0.3-1.3,0.3-1.9v-0.2l0,0l-0.6-1.5l-0.3-0.8c0-0.1-0.5-0.7-0.5-0.7
	c-0.3-0.3-0.5-0.6-0.6-1.1c0-0.1,0.2-3.7,0.2-3.7L227.4,219.7L227.4,219.7z"/>
<path id="path5831" class="st0" d="M229.9,216.5l-3,2.6c-3.1,2.7-5.8,4.9-8.3,6.7c0.3-0.2,0.6-0.3,0.9-0.3c0.2,0,0.5,0.1,0.7,0.2
	c0.2,0.1,0.4,0.3,0.5,0.4c2.4-1.8,4.8-3.9,7.2-5.9l0,0l0,0c-0.1,1-0.1,2-0.1,2.1c0,0,0,0,0,0v0c0,0,0,0,0,0c0.1,0.9,0.8,1.4,1.1,2
	c0.3,0.7,0.8,1.7,0.9,2.2l0,0l0,0c0,0.7-0.3,1.8-0.3,1.8v0.1l0,0l0,0c-3,2.3-5.9,4.7-9.2,6.7l0,0l0,0c0,0,0.4-1.2,0.4-1.8
	c0-0.5-0.4-1.6-0.7-2.2c-0.3-0.5-0.8-1.2-0.8-2.1c0,0,0,0,0,0c0,0,0-1.1,0.3-2.1v0.1c0.1-0.1,0.2-0.2,0.4-0.3l-1.9-0.2
	c-0.3,1.2-0.3,2.3-0.3,2.5c0,1.1,0.5,2,0.8,2.5c0.1,0.1,0.1,0.2,0.1,0.2c0.5,1.2,0.5,1.5,0.5,1.6c0,0.2-0.2,0.8-0.3,1.3l-1.4,4
	l3.6-2.2c3.4-2,6.6-4.6,9.3-6.8l0.6-0.5v-0.7c0.1-0.4,0.3-1.3,0.3-2v-0.2l0-0.2c-0.1-0.5-0.4-1.1-0.7-1.7c-0.1-0.3-0.3-0.5-0.3-0.7
	l0-0.1l0-0.1c-0.1-0.3-0.3-0.5-0.5-0.7c-0.2-0.3-0.4-0.5-0.4-0.7c0-0.3,0-1,0.1-1.8L229.9,216.5L229.9,216.5L229.9,216.5z
	 M229.3,222.4C229.3,222.4,229.3,222.4,229.3,222.4C229.3,222.4,229.3,222.4,229.3,222.4L229.3,222.4z M219.2,233.3L219.2,233.3
	L219.2,233.3L219.2,233.3L219.2,233.3z"/>
<path id="path5835" class="st1" d="M237.1,210.1c-2.1,2.4-4.6,5.1-7.4,7.6l-0.2,0.2l0,0.3c-0.1,0.3-0.1,0.7-0.1,1.1
	c0,0.6,0,1.1,0.1,1.2c0.1,1,0.6,1.6,1,2.1c0,0,0.1,0.1,0.1,0.2c0.1,0.2,0.4,0.8,0.4,0.8l0.5,1c0,0.1,0,0.1,0,0.2
	c0,0.4-0.1,1-0.2,1.4l-0.5,2.2l1.7-1.5c3.4-3,6.1-5.5,8.3-7.9l0.2-0.2v-0.4c0-0.1,0-0.3,0-0.6c0-0.4,0-1-0.2-1.4
	c-0.1-0.5-0.6-1.2-1-1.8l-0.3-0.5c0,0.1-0.5-0.7-0.5-0.7c-0.3-0.3-0.5-0.6-0.6-1c0,0-0.1-0.6-0.1-1.2c0-0.2,0-0.4,0-0.5l0.3-2.5
	L237.1,210.1L237.1,210.1z"/>
<path id="path5837" class="st0" d="M239.8,205.9l-3.3,3.7c-2.1,2.4-4.6,5.1-7.3,7.6l-0.4,0.4l-0.1,0.5c-0.2,1.1,0,2.4,0,2.5l0,0l0,0
	c0.2,1.2,0.8,2,1.2,2.5c0,0,0,0.1,0.1,0.1c0.1,0.3,0.3,0.5,0.4,0.8c0.1,0.3,0.3,0.6,0.4,0.8c0,0.2,0,0.8-0.1,1.3l-0.9,4.5l3.4-3
	c3.4-3,6.1-5.5,8.4-7.9l0.4-0.4v-0.6v0c0-0.4,0.1-1.5-0.2-2.4c-0.2-0.6-0.6-1.3-1.1-1.9c-0.1-0.1-0.2-0.3-0.3-0.4
	c-0.2-0.3-0.4-0.6-0.6-0.8c-0.2-0.3-0.4-0.4-0.4-0.6c-0.1-0.3-0.2-0.9-0.1-1.5L239.8,205.9L239.8,205.9L239.8,205.9z M230.1,219.3
	c0-0.3,0-0.6,0.1-1c2.6-2.3,5-5,7.4-7.7l0,0l0,0c0,0.2,0,0.4,0,0.6c0,0.8,0.2,1.5,0.2,1.5c0.3,0.9,1,1.3,1.2,1.8
	c0.4,0.7,1.1,1.6,1.2,2.1c0.1,0.3,0.2,0.8,0.2,1.2c0,0.4,0,0.7,0,0.7v0.1l0,0l0,0c-2.6,2.7-5.4,5.4-8.3,7.8l0,0l0,0
	c0,0,0.2-0.9,0.2-1.5c0-0.2,0-0.3,0-0.4c-0.1-0.5-0.7-1.4-1-2.1c-0.4-0.5-1-1-1.1-2C230.2,220.4,230.1,219.9,230.1,219.3
	L230.1,219.3L230.1,219.3z M239.2,212.3C239.2,212.3,239.2,212.3,239.2,212.3C239.2,212.3,239.2,212.3,239.2,212.3L239.2,212.3z
	 M240.3,213.8C240.3,213.8,240.3,213.8,240.3,213.8C240.3,213.8,240.3,213.8,240.3,213.8L240.3,213.8z"/>
<path id="path5841" class="st1" d="M245.2,199.4c-1.7,2.8-3.8,5.6-6.3,8.5l-1.1,1.3c0,0,0.5,0,1,0c0,0.8,0.2,1.5,0.2,1.5
	c0.3,0.8,0.7,1.3,1.1,1.7l0.4,0.4c0.4,0.6,1,1.3,1.2,1.7c0,0.2,0.3,3.4,0.3,3.4l1.2-1.3c2.5-2.8,5-5.9,7.1-8.8l0.1-0.2v-0.4
	c0-0.1,0-1.4-0.5-2.2l0.1,0.2c-0.1-0.5-0.6-1.1-1.1-1.6l-0.4-0.5l0,0l-0.5-0.5c-0.4-0.3-0.7-0.6-1-1c0,0-0.3-0.9-0.3-1.7v-2.7
	L245.2,199.4L245.2,199.4z"/>
<path id="path5843" class="st0" d="M247.4,194.5l-2.8,4.5c-1.7,2.7-3.8,5.5-6.2,8.5l-2.1,2.5h1.9c0.1,0.5,0.1,0.8,0.2,0.9l0,0.1
	l0,0.1c0.3,0.9,0.9,1.5,1.3,1.9c0.1,0.1,0.2,0.3,0.3,0.4l0,0l0,0c0.4,0.6,0.9,1.2,1.1,1.5c0,0.4,0.1,1,0.1,1.3l0,4l2.7-3
	c2.5-2.9,5-5.9,7.1-8.9l0.3-0.4v-0.5v-0.1c0-0.3,0-1.5-0.5-2.5c-0.2-0.6-0.7-1.2-1.2-1.7c-0.1-0.2-0.3-0.3-0.4-0.4l-0.1-0.1
	l-0.1-0.1c-0.2-0.2-0.4-0.3-0.6-0.5c-0.3-0.3-0.6-0.5-0.7-0.7c-0.1-0.3-0.3-0.9-0.3-1.5L247.4,194.5L247.4,194.5L247.4,194.5z
	 M239.5,208.4c2.3-2.7,4.5-5.6,6.4-8.6c0,1,0.4,2.1,0.4,2.1c0.4,0.8,1.1,1.2,1.6,1.7c0.4,0.5,1.2,1.3,1.4,1.8
	c0.4,0.7,0.4,1.8,0.4,1.8v0.1l0,0l0,0c-2.2,3-4.6,6-7,8.7c0,0,0-1.2-0.1-1.8c-0.3-0.5-0.9-1.4-1.3-2c-0.4-0.5-1.1-1-1.4-1.8
	c0,0-0.2-0.8-0.2-1.5c0-0.2,0-0.4,0-0.6L239.5,208.4L239.5,208.4L239.5,208.4L239.5,208.4L239.5,208.4z"/>
<path id="path5847" class="st1" d="M251.9,187.7c-1.4,3-3,6.1-5.1,9.3c0,0,0.4,0.3,0.7,0.6c-0.3-0.1-0.7-0.3-0.7-0.3
	c0,1.2,0.4,2.3,0.5,2.4c0.4,0.8,1,1.2,1.4,1.5l0.4,0.3c0.6,0.5,1.1,1.2,1.4,1.6c0.2,0.4,0.3,1.1,0.3,1.5l0,2.4l1.4-1.9
	c2.4-3.3,4.4-6.9,5.9-9.6l0.1-0.2v-0.4l0-0.1l-0.6-2.2l-0.1,0l-1.8-1.6c0.1,0.1-0.5-0.4-0.5-0.4c-0.4-0.3-0.8-0.6-1.1-1
	c0,0-0.4-0.8-0.6-1.6l-0.4-2.7L251.9,187.7L251.9,187.7z"/>
<path id="path5849" class="st0" d="M253.4,182.5l-2.2,4.9c-1.4,3-3,6-5,9.2l1.5,1.2c0-0.2,0-0.3,0-0.5l-0.1,0.1l0,0l0,0
	c1.9-3,3.7-6.1,5.1-9.4c0.1,1,0.7,2,0.7,2c0.5,0.8,1.4,1.2,1.8,1.6c0.5,0.4,1.4,1.2,1.8,1.6c0.3,0.6,0.5,1.8,0.5,1.8v0.1l0,0l0,0
	c-1.8,3.3-3.6,6.5-5.8,9.5c0,0,0-1.2-0.4-1.8c-0.3-0.5-0.9-1.3-1.5-1.8c-0.4-0.4-1.2-0.8-1.6-1.6c0,0-0.1-0.2-0.2-0.6
	c-0.1,0-0.1,0-0.2,0c-0.2,0-0.4,0-0.6-0.1c-0.6-0.2-0.9-0.8-0.9-1.4c0,1.3,0.5,2.5,0.5,2.6l0,0.1l0,0.1c0.4,0.9,1.1,1.4,1.6,1.7
	c0.1,0.1,0.3,0.2,0.3,0.2l0,0l0,0c0.1,0.1,0.2,0.2,0.3,0.3c0,0,0.1-0.1,0.2-0.1c0.1-0.1,0.2-0.1,0.3-0.1c0.4,0,0.1,0.8,0.5,1.4v0
	c0.1,0.1,0.2,0.7,0.2,1l0,4.7l2.7-3.8c2.4-3.3,4.4-6.9,5.9-9.7l0.2-0.3v-0.4V195v-0.2l0-0.2c0-0.1-0.3-1.3-0.6-2.1l-0.1-0.3
	l-0.2-0.2c-0.3-0.3-1.2-1.1-1.8-1.7c-0.2-0.2-0.4-0.3-0.6-0.5c-0.3-0.2-0.6-0.5-0.9-0.7c-0.1-0.2-0.4-0.8-0.5-1.3L253.4,182.5
	L253.4,182.5L253.4,182.5z M254.6,189.2C254.6,189.2,254.6,189.2,254.6,189.2C254.6,189.2,254.6,189.2,254.6,189.2L254.6,189.2z
	 M256.1,190.4C256.1,190.4,256.1,190.4,256.1,190.4C256.1,190.4,256.1,190.4,256.1,190.4L256.1,190.4z M249.8,203.5
	C249.8,203.5,249.8,203.5,249.8,203.5C249.8,203.5,249.8,203.5,249.8,203.5L249.8,203.5z M249.8,203.5
	C249.8,203.5,249.8,203.5,249.8,203.5C249.8,203.5,249.8,203.5,249.8,203.5L249.8,203.5z"/>
<path id="path5853" class="st1" d="M257.9,174.9c-1.3,3.3-2.9,6.4-4.5,9.5l-0.2,0.4l0,0.2c0.2,1,0.7,2.2,0.8,2.2
	c0.3,0.6,0.8,1,1.2,1.3l0.5,0.4l0.1,0.1c0.5,0.4,1.2,1.1,1.4,1.4l0,0.1l0,0.1c0.2,0.2,0.3,0.9,0.4,1.4l0.3,2.3l1.2-2
	c2-3.5,3.8-6.8,5.3-10l0.1-0.2v-0.4l0-0.1c0-0.1-0.4-1.2-0.9-1.8c-0.3-0.6-1.1-1.2-1.9-1.8l-0.1-0.1c0,0-0.5-0.3-0.5-0.3
	c-0.4-0.2-0.8-0.5-1.1-0.9c0,0-0.6-0.8-0.7-1.6l-0.4-3L257.9,174.9L257.9,174.9z"/>
<path id="path5855" class="st0" d="M257.2,174.7c-1.3,3.3-2.9,6.4-4.5,9.4l-0.1,0.1l-0.2,0.4l0.1,0.5c0.2,1.1,0.8,2.3,0.8,2.4
	c0.4,0.8,1,1.2,1.4,1.5c0.1,0.1,0.3,0.2,0.3,0.3c0.5,0.6,1.6,0.5,1.1,1c0.2,0.2,0.3,0.3,0.3,0.4c0.4,0.7,1.5,0.9,0.8,1.3
	c-0.1,0.1-0.2,0.1-0.3,0.1c-0.3,0,0-0.7-0.4-1.2c0,0,0,0,0,0c0.1,0.2,0.2,0.7,0.3,1.1l0.5,4.6l2.3-4c2.1-3.5,3.8-6.8,5.3-10l0.2-0.3
	V182v-0.1v-0.3l-0.1-0.2c-0.1-0.3-0.5-1.4-1-2c-0.4-0.7-1.2-1.3-2.1-1.9l-0.1-0.1c0,0,0,0,0,0c-0.2-0.1-0.4-0.3-0.5-0.4
	c-0.4-0.2-0.6-0.4-0.8-0.7l0,0l0,0l0,0c-0.1-0.2-0.5-0.7-0.5-1.2L257.2,174.7L257.2,174.7L257.2,174.7z M254,184.9
	c1.6-3.1,3.2-6.3,4.6-9.7c0.1,1.1,0.8,2,0.8,2c0.5,0.8,1.2,1,1.8,1.4c0.5,0.4,1.5,1,1.8,1.6c0.4,0.5,0.8,1.7,0.8,1.7v0.1l0,0l0,0
	c-1.6,3.4-3.4,6.7-5.3,9.9c0,0-0.1-1.3-0.5-1.8c-0.3-0.5-1.1-1.3-1.6-1.7c-0.4-0.5-1.2-0.8-1.6-1.6
	C254.7,186.9,254.1,185.8,254,184.9L254,184.9L254,184.9L254,184.9z M262.1,177.4C262.1,177.4,262,177.4,262.1,177.4
	C262,177.4,262.1,177.4,262.1,177.4L262.1,177.4z"/>
<path id="path5859" class="st1" d="M260.4,162.3c-0.7,3.7-1.5,7.1-2.4,10.2l-0.1,0.2l0.1,0.2c0.3,1.1,1.1,2,1.2,2.1
	c0.4,0.5,1,0.8,1.5,1l0.6,0.3c0.1,0,0.2,0.1,0.2,0.1c0.6,0.3,1.4,0.8,1.7,1.1c0.2,0.2,0.5,1,0.6,1.4l0.7,2.1l0.7-2
	c1.2-3.3,2.1-6.8,3-10.2l0.4-1.5c0,0-0.3,0-0.6,0c-0.2-0.4-0.5-1-0.8-1.4l-0.1-0.1l-2.3-1.2c-0.1,0-0.8-0.3-0.8-0.3
	c-0.4-0.1-0.8-0.3-1.2-0.5c-0.2-0.2-0.7-0.9-1-1.6l-1-2.2L260.4,162.3L260.4,162.3z"/>
<path id="path5861" class="st0" d="M260.6,157.3l-0.9,4.8c-0.7,3.7-1.5,7.1-2.4,10.2l-0.1,0.4l0.1,0.4c0.3,1.1,1.2,2.2,1.4,2.4
	c0,0,0,0,0,0c0,0,0,0,0,0c0,0,0,0,0,0c0,0,0,0,0,0c0.6,0.7,1.2,1,1.7,1.2c0.2,0.1,0.4,0.2,0.4,0.2l0.1,0.1l0.1,0l0.2,0.1
	c0.4,0.2,1.2,0.7,1.5,0.9c0.1,0.2,0.4,0.7,0.5,1.2l1.4,4.1l1.5-4.1c1.2-3.3,2.1-6.8,3-10.3l0.1-0.6l0.5-1.9h-1.2
	c-0.2-0.4-0.5-0.8-0.7-1.1l-0.2-0.3l-0.3-0.2c-0.5-0.2-1.4-0.8-2-1.1l-0.1,0l-0.1,0c-0.3-0.1-0.5-0.2-0.8-0.3
	c-0.3-0.1-0.6-0.2-0.9-0.4c-0.2-0.3-0.7-0.8-0.9-1.3L260.6,157.3L260.6,157.3L260.6,157.3z M258.7,172.7c0.9-3.3,1.8-6.8,2.4-10.3
	c0.4,0.9,1.2,1.8,1.2,1.8c0.7,0.5,1.5,0.7,2,0.9c0.7,0.4,1.6,0.9,2.2,1.2c0.4,0.5,1,1.7,1,1.7h0.1l0,0l0,0c-1,3.7-1.9,7.3-3.1,10.7
	c0,0-0.4-1.2-0.8-1.7c-0.4-0.4-1.3-0.9-2-1.3c-0.5-0.4-1.3-0.5-1.9-1.2C259.8,174.6,259,173.7,258.7,172.7L258.7,172.7L258.7,172.7
	L258.7,172.7z"/>
<path id="path5865" class="st1" d="M262,149c-0.3,3.7-0.6,7.1-1.1,10.4c0,0,0,0.1,0,0.1c0,0,0-0.1,0-0.1s0,0,0,0.1c0,0,0,0.1,0,0.1
	l0.1,0.2c0.5,1,1.3,1.9,1.4,1.9c0.7,0.6,1.4,0.8,1.9,0.9l0.5,0.2c0.6,0.3,1.5,0.7,2,1.1c0.2,0.2,0.6,0.8,0.8,1.3l1,2.2l0.4-2.4
	c0.7-3.7,1.2-7.3,1.6-11.2l0.1-0.8c0,0-0.3,0-0.6,0c-0.3-0.4-0.7-1-1.2-1.3c-0.6-0.5-1.8-0.9-2.6-1l0.2,0.1l-0.9-0.3
	c-0.4-0.1-0.8-0.2-1.2-0.5c0,0-0.7-0.6-1.1-1.3l-1.2-2.1L262,149L262,149z"/>
<path id="path5867" class="st0" d="M261.6,144.2l-0.4,4.8c-0.2,3.2-0.5,6.8-1.1,10.4l-0.1,0.4l0.2,0.4c0.5,1.1,1.4,2,1.5,2.1l0,0
	l0.1,0c0.8,0.6,1.6,0.8,2.1,1c0.1,0,0.3,0.1,0.4,0.1l0.1,0l0.1,0c0.5,0.2,1.3,0.6,1.8,1c0.1,0.1,0.4,0.6,0.6,1l2,4.3l0.9-4.7
	c0.7-3.7,1.2-7.3,1.7-11.2l0.2-1.7h-1.1c-0.3-0.4-0.7-0.9-1.1-1.2c0,0,0,0,0,0c-0.7-0.5-1.9-0.9-2.7-1.1c-0.3-0.1-0.6-0.2-0.8-0.2
	c-0.3-0.1-0.6-0.2-0.9-0.3c-0.2-0.1-0.6-0.6-0.9-1.1L261.6,144.2L261.6,144.2L261.6,144.2z M261.7,159.6c0.5-3.5,0.8-7,1.1-10.5
	c0.5,0.9,1.4,1.6,1.4,1.6c0.8,0.5,1.6,0.5,2.2,0.8c0.7,0.1,1.8,0.5,2.3,0.9c0.6,0.4,1.2,1.4,1.2,1.4h0.1l0,0l0,0
	c-0.4,3.8-1,7.4-1.6,11.1c0,0-0.5-1.2-1.1-1.6c-0.5-0.4-1.5-0.9-2.2-1.2c-0.5-0.3-1.4-0.3-2.2-0.9
	C262.9,161.3,262.1,160.5,261.7,159.6L261.7,159.6L261.7,159.6L261.7,159.6z M266.6,150C266.6,150,266.6,150,266.6,150
	C266.6,150,266.6,150,266.6,150L266.6,150z M261.7,159.7v-0.1C261.7,159.6,261.7,159.6,261.7,159.7
	C261.7,159.6,261.7,159.7,261.7,159.7L261.7,159.7L261.7,159.7z M261.8,159.2c0,0-0.1,0-0.1,0c-0.6,0.2-1.2,0.3-1.4,0.3
	c0,0-0.1,0-0.1,0v0.1l1.7,0.1c0-0.1-0.1-0.1-0.1-0.2C261.7,159.5,261.7,159.3,261.8,159.2L261.8,159.2L261.8,159.2z M261.7,159.6
	C261.7,159.6,261.7,159.6,261.7,159.6L261.7,159.6L261.7,159.6c0,0.1,0,0.1,0,0.1V159.6L261.7,159.6L261.7,159.6L261.7,159.6z"/>
<path id="path5871" class="st1" d="M261.7,135.7c0.3,3.5,0.4,7,0.4,10.5c0,0,0.6,0,1.1,0c-0.4,0.1-1,0.3-1,0.3
	c0.6,1,1.7,1.8,1.7,1.8c0.6,0.5,1.4,0.6,2,0.7l0.4,0.1c0.6,0.1,1.5,0.4,2,0.7c0.3,0.2,0.8,0.8,1,1.2l1.2,1.9l0.2-2.3
	c0.1-2,0.2-4.2,0.2-6.5c0-1.5,0-3-0.1-4.7l0-0.2l-0.2-0.2c-0.2-0.2-1-1.2-1.8-1.5c-0.7-0.3-2-0.6-2.4-0.7c0,0-0.8-0.1-0.8-0.1
	c-0.4,0-0.9-0.1-1.2-0.2c-0.2-0.1-0.9-0.6-1.4-1.3l-1.5-1.8L261.7,135.7L261.7,135.7z"/>
<path id="path5873" class="st0" d="M260.6,131.1l0.4,4.7c0.3,3.5,0.4,7,0.4,10.5h1.5c0-3.5-0.1-7-0.4-10.6l0,0l0,0
	c0.7,0.8,1.6,1.4,1.6,1.4c0.8,0.4,1.6,0.3,2.3,0.4c0.7,0.1,1.8,0.4,2.3,0.7c0.7,0.3,1.5,1.3,1.5,1.3c0.1,1.6,0.1,3.2,0.1,4.7
	c0,2.1-0.1,4.3-0.2,6.4c0,0-0.7-1-1.2-1.4c-0.5-0.3-1.6-0.7-2.3-0.8c-0.7-0.1-1.5-0.1-2.2-0.7c0,0-0.2-0.1-0.5-0.4
	c-0.2,0.1-0.4,0.3-0.6,0.3c-0.1,0-0.3,0.1-0.4,0.1c-0.5,0-1-0.3-1.3-0.7c0.6,1.1,1.6,1.8,1.9,2c0.8,0.6,1.7,0.8,2.4,0.9
	c0.1,0,0.3,0,0.4,0.1l0,0l0,0c0.5,0.1,1.3,0.4,1.8,0.6c0.2,0.2,0.5,0.6,0.8,1l2.5,3.8l0.3-4.5c0.2-3.4,0.3-6.9,0.1-11.3l0-0.5
	l-0.3-0.4c-0.2-0.3-1.1-1.4-2.1-1.8c-0.8-0.4-2.1-0.7-2.6-0.8c-0.3-0.1-0.6-0.1-0.9-0.1c-0.3,0-0.6,0-0.9-0.1
	c-0.2-0.2-0.8-0.6-1.2-1.1L260.6,131.1L260.6,131.1L260.6,131.1z M265,135.8C265,135.8,265,135.8,265,135.8
	C265,135.8,265,135.8,265,135.8L265,135.8z M269.3,136.7C269.3,136.7,269.3,136.7,269.3,136.7C269.3,136.7,269.3,136.7,269.3,136.7
	L269.3,136.7z M269.4,136.8C269.4,136.8,269.4,136.8,269.4,136.8C269.4,136.8,269.4,136.8,269.4,136.8L269.4,136.8z M263.5,148.9
	C263.5,148.9,263.5,148.9,263.5,148.9C263.5,148.9,263.5,148.9,263.5,148.9L263.5,148.9z M268,150.4L268,150.4L268,150.4
	C268,150.4,268,150.4,268,150.4L268,150.4L268,150.4z M262.9,146.1v0.1l0,0l0,0h0.1C263,146.2,262.9,146.1,262.9,146.1L262.9,146.1z
	"/>
<path id="path5877" class="st1" d="M259.7,122.5c0.7,3,1.3,6.3,1.7,10.4c0,0,0.7,0,1.1-0.1c-0.4,0.1-0.9,0.3-0.9,0.3
	c0.7,0.9,1.8,1.5,1.8,1.5c1,0.5,1.8,0.5,2.4,0.5c0,0,0.1,0,0.2,0c0.9,0.1,1.8,0.4,2.2,0.6c0.3,0.1,1,0.7,1.3,1l1.5,1.4l-0.2-2
	c-0.3-3.4-0.8-7-1.5-11.1l0,0.1l-0.3-0.7c-0.1-0.1-1.1-0.9-1.8-1.2c-0.4-0.2-1.1-0.3-1.7-0.3l-0.9-0.1l-0.1,0l-0.7,0
	c-0.5,0.1-0.9,0.1-1.3-0.1c-0.1,0-1-0.4-1.5-1L259.7,122.5L259.7,122.5z"/>
<path id="path5879" class="st0" d="M261.6,121.3l-2.6,1.4c0.7,3,1.2,6.2,1.7,10.3l1.7-0.1c-0.1-0.1-0.1-0.1-0.2-0.2v0.1l0,0l0,0
	c-0.4-3.4-0.9-6.9-1.8-10.4l0,0l0,0c0.7,0.8,1.8,1.2,1.8,1.2c0.3,0.2,0.7,0.2,1,0.2c0.5,0,0.9-0.1,1.3-0.1c0.7,0.1,1.9,0.1,2.4,0.4
	c0.7,0.3,1.6,1,1.6,1v0.1c0.7,3.7,1.2,7.3,1.5,11l0,0l0,0c0,0-1-0.9-1.5-1.2c-0.5-0.3-1.6-0.5-2.4-0.7c-0.2,0-0.4,0-0.6,0
	c-0.5,0-1-0.1-1.7-0.4c0,0-0.2-0.1-0.5-0.3c-0.2,0.2-0.4,0.3-0.6,0.4c-0.2,0.1-0.4,0.1-0.5,0.1c-0.4,0-0.9-0.2-1.2-0.5
	c0.8,1,1.9,1.6,2,1.7c1,0.5,1.8,0.6,2.4,0.6c0.2,0,0.3,0,0.4,0c0,0,0.1,0,0.1,0c0.1,0,0.3,0.1,0.4,0.1c0-0.1,0-0.1,0.1-0.2
	c0.1-0.2,0.2-0.3,0.3-0.3c0.3,0,0.5,0.6,1.1,0.9c0,0-0.1,0-0.1,0c0,0,0.1,0,0.1,0c0,0,0,0,0,0c0.2,0.1,0.7,0.5,1.1,0.9l2.9,2.8
	l-0.3-4c-0.3-3.4-0.8-7-1.5-11v-0.7l-0.6-0.5c-0.2-0.2-1.1-0.9-2-1.3c-0.6-0.3-1.3-0.3-2-0.4c-0.3,0-0.6-0.1-0.8-0.1l-0.1,0h-0.2
	c-0.3,0-0.5,0-0.8,0.1c-0.2,0-0.4,0-0.5,0c-0.2,0-0.3,0-0.3-0.1l-0.1,0l-0.1,0l0,0C262.6,122,262,121.7,261.6,121.3L261.6,121.3
	L261.6,121.3z M267.6,122.6C267.5,122.6,267.5,122.6,267.6,122.6C267.5,122.6,267.5,122.6,267.6,122.6L267.6,122.6z"/>
<path id="path5883" class="st1" d="M255.8,109.7c1.3,3.3,2.4,6.7,3.2,10.1c0,0,0.8-0.1,1.2-0.1c-0.4,0.2-0.9,0.4-0.9,0.4
	c0.9,0.7,2.1,1.1,2.1,1.2c0.7,0.3,1.5,0.3,2.1,0.2l0.5,0c0.6,0,1.7,0.1,2.1,0.2c0.4,0.2,1.2,0.7,1.5,0.9l1.6,1.2l-0.4-2
	c-0.8-3.8-1.8-7.4-3-10.9l-0.2-0.5c0,0-0.3,0-0.5,0c-0.3-0.2-1-0.6-1.6-0.9l-0.1,0l-0.1,0c-0.6-0.1-1.3-0.1-1.9,0l-0.8,0l-0.1,0
	l-0.4,0.1c-0.5,0.1-1.1,0.2-1.6,0.1c-0.1,0-1-0.3-1.8-0.8l-2.1-1.4L255.8,109.7L255.8,109.7z"/>
<path id="path5885" class="st0" d="M253.2,105.3l1.9,4.7c1.3,3.3,2.4,6.7,3.2,10l1.9-0.2c-0.1-0.1-0.2-0.2-0.4-0.3v0.1l0,0l0,0
	c-0.8-3.4-1.9-6.8-3.2-10.2l0,0l0,0c0.9,0.7,2,0.9,2,0.9c0.3,0.1,0.5,0.1,0.8,0.1c0.6,0,1.1-0.2,1.5-0.2c0.5,0,1.1-0.1,1.7-0.1
	c0.3,0,0.6,0,0.8,0.1c0.7,0.3,1.6,0.9,1.6,0.9h0.1c1.2,3.7,2.2,7.2,3,10.8l0,0l0,0c0,0-1.1-0.8-1.8-1c-0.5-0.1-1.6-0.3-2.3-0.3
	c-0.4,0-0.8,0.1-1.3,0.1c-0.3,0-0.7,0-1-0.2c0,0-0.2-0.1-0.6-0.3c-0.2,0.3-0.4,0.5-0.6,0.6c-0.2,0.1-0.4,0.2-0.7,0.2
	c-0.3,0-0.7-0.1-0.9-0.3c0.9,0.7,1.9,1.1,2.3,1.2c0.5,0.2,1,0.3,1.6,0.3c0.3,0,0.6,0,0.8-0.1c0.2,0,0.3,0,0.4,0
	c0.5,0,1.4,0.1,1.8,0.2c0.4,0.2,1,0.6,1.3,0.8l3.3,2.4l-0.9-3.9c-0.8-3.8-1.8-7.4-3-11l-0.3-1.1h-0.8c-0.4-0.2-1-0.6-1.5-0.8l-0.1,0
	l-0.1,0c-0.3-0.1-0.6-0.1-1.1-0.1c-0.3,0-0.7,0-1,0c-0.2,0-0.5,0-0.7,0h-0.1l-0.1,0c-0.1,0-0.3,0.1-0.4,0.1
	c-0.3,0.1-0.6,0.1-0.9,0.1c-0.1,0-0.2,0-0.3,0l-0.1,0l-0.1,0c0,0-0.8-0.2-1.5-0.7L253.2,105.3L253.2,105.3L253.2,105.3z"/>
<path id="path5889" class="st1" d="M250.3,97.5c1.5,2.7,3,5.7,4.6,9.6c0,0,0.7-0.1,1.1-0.2c-0.3,0.2-0.8,0.4-0.8,0.4
	c0.9,0.6,2.1,0.9,2.1,0.9c0.8,0.2,1.5,0.1,2,0l0.5-0.1l0.1,0c1.5-0.2,2-0.2,2.1-0.1c0.4,0.1,1.1,0.5,1.5,0.8l2,1.4l-0.8-2.3
	c-1.1-3.1-2.4-6.3-4.3-10.2c0-0.1,0-0.5,0-0.5l-0.5-0.2c-0.1-0.1-1.3-0.6-2.1-0.7l-0.1,0h-0.1c-0.5,0-1.9,0.1-2.7,0.4l0.1,0
	l-0.5,0.1c-0.5,0.1-1,0.3-1.5,0.2c0,0-1.9-0.6-1.9-0.6l-1.9-0.6L250.3,97.5L250.3,97.5z"/>
<path id="path5891" class="st0" d="M247.5,94l2.2,3.8c1.5,2.7,2.9,5.7,4.5,9.5l2-0.4c-0.2-0.1-0.4-0.2-0.6-0.3v0.1l0,0l0,0
	c-1.4-3.3-2.8-6.5-4.6-9.7l0,0l0,0c1,0.4,2,0.6,2,0.6c0.1,0,0.3,0,0.4,0c0.8,0,1.4-0.3,1.9-0.4c0.7-0.3,1.9-0.4,2.4-0.4
	c0.7,0.1,1.9,0.7,1.9,0.7v0.1c1.6,3.4,3.1,6.8,4.3,10.3l0,0l0,0c0,0-1.1-0.8-1.8-0.9c-0.2,0-0.4-0.1-0.6-0.1c-0.6,0-1.3,0.1-1.8,0.2
	c-0.4,0-1,0.2-1.6,0.2c-0.2,0-0.4,0-0.7-0.1c0,0-0.2,0-0.5-0.1c-0.1,0.3-0.4,0.5-0.7,0.7c-0.2,0.1-0.5,0.2-0.7,0.2
	c-0.3,0-0.6-0.1-0.8-0.2c1,0.6,2.1,0.9,2.3,1c0.3,0.1,0.7,0.1,1.1,0.1c0.5,0,1-0.1,1.3-0.2c0.1,0,0.3-0.1,0.3-0.1h0h0c0,0,0,0,0,0
	c0.6,0,1.1-0.4,1.3-0.4c0.1,0,0.2,0.1,0.2,0.3c0.1,0,0.2,0,0.3,0c0.2,0,0.2,0,0.2,0l0,0l0.1,0l0,0c0.2,0,0.8,0.4,1.2,0.6l3.9,2.8
	l-1.6-4.6c-1.1-3.1-2.4-6.3-4.2-10.2v-0.8l-0.9-0.4c-0.2-0.1-1.4-0.6-2.2-0.7l-0.1,0h-0.1c-0.5,0-1.9,0.1-2.9,0.5
	c-0.1,0-0.3,0.1-0.4,0.1c-0.3,0.1-0.7,0.2-1,0.2c0,0-0.1,0-0.1,0c-0.2-0.1-1-0.3-1.7-0.6L247.5,94L247.5,94L247.5,94z M253.4,96.3
	C253.4,96.3,253.4,96.3,253.4,96.3C253.4,96.3,253.4,96.3,253.4,96.3L253.4,96.3z M257.1,108.9C257.1,108.9,257.1,108.9,257.1,108.9
	C257.1,108.9,257.1,108.9,257.1,108.9L257.1,108.9z M257.1,108.9C257.1,108.9,257.1,108.9,257.1,108.9
	C257.1,108.9,257.1,108.9,257.1,108.9L257.1,108.9z"/>
<path id="path5895" class="st1" d="M250.6,83.9c-0.8,0-2,0.3-2.7,0.6c0,0-0.3,0.1-0.3,0.1c-0.5,0.2-1,0.5-1.6,0.5c0,0-1,0-1.9-0.3
	l-2.3-0.8l1.4,2c2,2.7,3.8,5.7,5.8,9l0.1,0.2l0.2,0.1c1,0.4,2.2,0.6,2.2,0.6c0.8,0.1,1.5-0.1,2-0.3l0.6-0.2l0.5-0.1
	c0.5-0.1,1.3-0.3,1.7-0.3c0.5,0.1,1.2,0.4,1.5,0.6l2,1l-1-2c-1.7-3.5-3.7-6.8-5.7-9.8l-0.1-0.2l-0.2-0.1
	C252.6,84.3,251.4,83.8,250.6,83.9z"/>
<path id="path5897" class="st0" d="M239.7,82.3l2.9,4c1.9,2.7,3.8,5.6,5.7,8.9l0.3,0.4l0.5,0.2c1.1,0.5,2.3,0.6,2.4,0.6c0,0,0,0,0,0
	c0.2,0,0.3,0,0.5,0c0.8,0,1.4-0.2,1.9-0.4c0.2-0.1,0.3-0.1,0.4-0.2c0.1,0,0.3-0.1,0.5-0.1c0.4-0.1,1.1-0.2,1.5-0.3
	c0.4,0.1,0.9,0.3,1.3,0.5l4,1.9l-2-4c-1.8-3.5-3.7-6.8-5.8-9.9l-0.3-0.4l-0.4-0.2c-0.2-0.1-1.3-0.5-2.2-0.5c-0.1,0-0.3,0-0.4,0
	c-0.9,0-2.1,0.3-2.9,0.6l0,0l0,0c-0.1,0-0.1,0.1-0.2,0.1c-0.4,0.2-0.8,0.4-1.3,0.4c0,0-0.8,0-1.6-0.3L239.7,82.3L239.7,82.3
	L239.7,82.3z M246,85.9c0.9,0,1.6-0.4,2.2-0.7c0.7-0.3,1.8-0.5,2.4-0.5c0.1,0,0.2,0,0.2,0c0.7,0,1.6,0.4,1.6,0.4
	c2.2,3.1,4.1,6.4,5.7,9.7l0,0l0,0c0,0-1.1-0.5-1.8-0.7c-0.7,0-1.8,0.3-2.4,0.4c-0.6,0.1-1.2,0.5-2,0.5c-0.1,0-0.2,0-0.3,0
	c0,0-1.1-0.1-2-0.5c-1.7-3-3.6-6-5.8-9l0,0l0,0C244.9,85.9,246,85.9,246,85.9L246,85.9L246,85.9z"/>
<path id="path5901" class="st1" d="M241.7,72.6c-0.6,0-1.6,0.4-2.4,0.8c-0.1,0-0.6,0.4-0.6,0.4c-0.5,0.3-0.8,0.5-1.3,0.6
	c0,0-1,0.1-1.9-0.1l-2.6-0.6l1.9,1.9c2.2,2.2,4.4,4.8,7,8c0,0,0.2-0.5,0.4-0.9c-0.1,0.4-0.1,1.1-0.1,1.1c1.1,0.3,2.3,0.3,2.3,0.3
	c0.9,0,1.6-0.4,2.1-0.7l0.3-0.2c0,0,1.9-0.5,1.9-0.5s0.1,0,0.1,0c0.6,0,1.4,0.3,1.7,0.3l2.2,0.7l-1.4-1.9c-2.6-3.5-4.8-6.4-7.1-8.9
	l-0.2-0.2l-0.3,0C243.6,72.7,242.5,72.5,241.7,72.6L241.7,72.6z"/>
<path id="path5903" class="st0" d="M242.1,71.8c-0.2,0-0.4,0-0.6,0c-0.7,0-1.5,0.4-2.6,0.9l0,0l-0.1,0l0,0c-0.2,0.1-0.4,0.3-0.6,0.4
	c-0.4,0.3-0.7,0.4-1,0.5c0,0,0,0,0,0c0,0,0,0,0,0c0,0,0,0,0,0c0,0,0,0,0,0c-0.1,0-0.2,0-0.5,0c-0.4,0-0.8,0-1.1-0.1l-5.2-1.3
	l3.7,3.8c2.2,2.2,4.4,4.7,6.9,8c-0.4-0.5-0.4-1.1-0.2-1.6c0.1-0.2,0.2-0.4,0.4-0.5c-1.9-2.3-3.9-4.7-6.1-6.9l0,0l0,0
	c0.5,0.1,1.1,0.2,1.5,0.2c0.4,0,0.7,0,0.7,0c1-0.1,1.5-0.7,2.2-1c0.5-0.3,1.6-0.8,2.2-0.8c0.1,0,0.3,0,0.5,0c0.7,0,1.6,0.2,1.6,0.2
	c2.6,2.9,4.9,5.9,7,8.9l0,0l0,0c0,0-1.2-0.4-2-0.4c-0.5,0.1-1.6,0.4-2.3,0.7c-0.5,0.3-1.2,0.8-2.2,0.8c0,0-1.1,0-2.2-0.3l0,0l0,0
	h0.1c-0.1-0.1-0.2-0.2-0.3-0.4l-0.2,1.8c1.2,0.3,2.4,0.3,2.5,0.3c1.1,0,2-0.5,2.5-0.8c0.1-0.1,0.2-0.1,0.3-0.1
	c0.5-0.2,1.3-0.4,1.8-0.5c0.4,0,1,0.2,1.4,0.3l4.4,1.4l-2.7-3.8c-2.6-3.6-4.8-6.4-7.1-9l-0.3-0.4L244,72
	C243.9,72,243,71.8,242.1,71.8L242.1,71.8L242.1,71.8z"/>
<path id="path5907" class="st1" d="M231.2,62.5c-0.5,0.1-1.1,0.5-1.8,0.9l-0.6,0.3c0,0,0,0,0,0c0,0-0.7,0.5-0.7,0.5
	c-0.3,0.3-0.6,0.5-1,0.6c0,0-1,0.2-1.9,0.1l-2.6-0.3l2,1.7c2.6,2.2,5.4,4.5,7.9,7.2l1.3,1.4c0,0,0-0.6,0-1.2c0.5,0,1.1,0,1.5-0.1
	l0,0c0,0,0,0,0,0c0,0,0,0,0,0c1-0.1,1.6-0.6,2.1-1c0,0,0.1-0.1,0.2-0.1c0.2-0.1,0.8-0.4,0.8-0.4l1.2-0.5c0.5-0.1,1.4,0.1,1.7,0.1
	l2.4,0.5l-1.7-1.8c-2.3-2.5-4.9-5-8.1-8l-0.2-0.2h-0.4C233.2,62.3,232,62.2,231.2,62.5L231.2,62.5z"/>
<path id="path5909" class="st0" d="M232.6,61.5c-0.7,0-1.2,0.1-1.7,0.2c-0.6,0.2-1.2,0.6-1.9,1c-0.2,0.1-0.4,0.2-0.5,0.3
	c-0.3,0.2-0.6,0.4-0.8,0.6c-0.3,0.2-0.5,0.4-0.7,0.5c-0.1,0-0.6,0.1-1.2,0.1c-0.2,0-0.3,0-0.4,0l-5.2-0.6l4,3.3
	c2.6,2.1,5.3,4.5,7.8,7.2l2.7,2.9v-2.4c0.4,0,0.7-0.1,0.9-0.1c1.1-0.2,1.9-0.7,2.4-1.1c0,0,0.1-0.1,0.1-0.1c0.2-0.1,0.5-0.2,0.7-0.3
	c0.3-0.1,0.7-0.3,1-0.4c0.1,0,0.1,0,0.2,0c0.5,0,1,0.1,1.2,0.1l4.8,1l-3.3-3.6c-2.3-2.5-4.9-5-8.2-8l-0.4-0.4h-0.6h-0.1
	C233.2,61.5,233,61.5,232.6,61.5L232.6,61.5L232.6,61.5z M233.5,61.5C233.5,61.5,233.5,61.5,233.5,61.5
	C233.5,61.5,233.5,61.5,233.5,61.5L233.5,61.5z M230.9,61.8C230.9,61.8,230.9,61.7,230.9,61.8C230.9,61.7,230.9,61.8,230.9,61.8
	L230.9,61.8z M225.8,65.7c0.8,0,1.5-0.2,1.5-0.2c1-0.3,1.4-0.9,1.9-1.2c0.7-0.4,1.6-1,2.2-1.2c0.3-0.1,0.8-0.2,1.2-0.2
	c0.4,0,0.7,0,0.7,0h0.1c2.8,2.6,5.5,5.2,8.1,8l0,0l0,0c0,0-0.8-0.2-1.5-0.2c-0.2,0-0.4,0-0.5,0c-0.6,0.1-1.5,0.7-2.2,0.9
	c-0.5,0.4-1.1,0.9-2,1c0,0-0.5,0.1-1.1,0.1c-0.3,0-0.7,0-1-0.1V73l0,0l0,0c-2.4-2.6-5.1-5-8-7.3l0,0l0,0
	C225.4,65.7,225.6,65.7,225.8,65.7L225.8,65.7L225.8,65.7z M235.7,74.3C235.7,74.3,235.7,74.3,235.7,74.3
	C235.7,74.3,235.7,74.3,235.7,74.3L235.7,74.3z"/>
<path id="path5913" class="st1" d="M221.7,53.3c-0.1,0-1.5,0.1-2.2,0.4l-0.1,0c-0.7,0.3-1.5,1-2.1,1.6c0,0,0,0,0,0
	c0,0-0.6,0.5-0.6,0.5c-0.3,0.3-0.6,0.6-1,0.8c0,0-0.9,0.3-1.8,0.3h-2.7l2.2,1.4c2.7,1.7,5.9,3.8,8.9,6.1l1.2,1c0,0,0-0.5,0-0.9
	c0.8,0,1.5-0.2,1.6-0.2c0.8-0.2,1.3-0.7,1.7-1.1l0.5-0.4c0.9-0.7,1.5-1,1.8-1.1c0.4-0.2,1.2-0.2,1.6-0.1l2.4,0.3l-1.8-1.6
	c-2.6-2.3-5.5-4.5-9.1-7l-0.2-0.2L221.7,53.3L221.7,53.3z"/>
<path id="path5915" class="st0" d="M222.2,52.5l-0.6,0.1c-0.3,0-1.6,0.2-2.4,0.5l-0.1,0l-0.1,0c-0.9,0.4-1.9,1.3-2.2,1.6
	c-0.3,0.2-0.5,0.4-0.7,0.6c-0.3,0.3-0.5,0.5-0.7,0.6c-0.3,0.1-1,0.3-1.6,0.3h-5.3l4.5,2.8c2.7,1.7,5.8,3.7,8.8,6l2.5,1.9v-1.7
	c0.5-0.1,0.9-0.1,1-0.2l0.1,0l0.1,0c0.9-0.3,1.5-0.8,1.9-1.2c0.1-0.1,0.3-0.2,0.4-0.3l0,0l0,0c0.9-0.6,1.3-0.9,1.5-0.9l0,0l-0.1,0
	l0.3-0.1l0,0c0,0,0.2-0.1,0.6-0.1c0.3,0,0.5,0,0.5,0l4.8,0.5l-3.6-3.2c-2.6-2.3-5.5-4.5-9.2-7L222.2,52.5L222.2,52.5L222.2,52.5z
	 M214,57.7c1.1,0,2.2-0.4,2.2-0.4c0.8-0.4,1.2-1,1.8-1.4c0.5-0.5,1.4-1.2,1.9-1.4c0.7-0.3,2-0.4,2-0.4c3.2,2.2,6.2,4.4,9.1,6.9l0,0
	l0,0c0,0-0.3,0-0.7,0c-0.4,0-0.9,0-1.2,0.2c-0.5,0.1-1.5,0.8-2,1.2c-0.6,0.4-1.1,1-1.9,1.3c0,0-0.7,0.2-1.5,0.2c-0.2,0-0.4,0-0.6,0
	v0.1l0,0l0,0C220.1,61.6,217.1,59.6,214,57.7L214,57.7L214,57.7L214,57.7z"/>
<path id="path5919" class="st1" d="M208.9,45.8L208.9,45.8c-0.2,0-1.4,0.3-2,0.6l-0.1,0l-0.1,0c-0.6,0.4-1.5,1.3-1.9,1.9l-0.2,0.3
	c-0.3,0.4-0.6,0.9-1.2,1.2c0,0-0.8,0.4-1.7,0.5l-2.8,0.3l2.6,1.1c3.1,1.3,6.3,3,9.6,4.9l0.2,0.1c0,0,0,0,0.1,0c0,0,0.1,0,0.1,0
	s0,0,0,0c0,0,0.1,0,0.1,0c1.1-0.2,2.2-0.5,2.2-0.5c1-0.5,1.4-1.1,1.8-1.6c0,0,0-0.1,0.1-0.1c0.2-0.1,0.6-0.5,0.6-0.5l1-0.8
	c0.4-0.2,1.3-0.3,1.6-0.3h2.7l-2.3-1.4c-4-2.4-7.1-4.2-10.1-5.6l-0.2-0.1L208.9,45.8L208.9,45.8L208.9,45.8z M211.3,55.4L211.3,55.4
	c0,0,0,0.1,0,0.2C211.3,55.5,211.3,55.4,211.3,55.4L211.3,55.4z"/>
<path id="path5921" class="st0" d="M209.5,45.1h-0.4H209h-0.2l-0.2,0c-0.2,0.1-1.4,0.3-2.1,0.6l-0.1,0.1l-0.1,0.1
	c-0.7,0.5-1.6,1.4-2.1,2c0,0,0,0,0,0c-0.1,0.1-0.2,0.2-0.3,0.3c-0.3,0.4-0.5,0.7-0.9,1c-0.2,0.1-0.8,0.4-1.4,0.5l-5.7,0.7l5.3,2.2
	c3.1,1.3,6.3,2.9,9.5,4.9l0.5,0.3l0.5-0.1c1.2-0.2,2.3-0.6,2.4-0.6l0.1,0l0.1,0c1.1-0.5,1.6-1.3,2-1.8c0,0,0,0,0,0
	c0.2-0.1,0.4-0.3,0.6-0.5c0.2-0.2,0.6-0.5,0.8-0.6c0.3-0.1,1-0.2,1.4-0.3h0h5.5l-4.7-2.8c-4.1-2.5-7.2-4.2-10.1-5.7L209.5,45.1
	L209.5,45.1L209.5,45.1z M201.8,51.2c1.1-0.1,2-0.7,2-0.7c0.8-0.5,1.2-1.2,1.6-1.7c0.4-0.5,1.2-1.3,1.8-1.7c0.5-0.3,1.7-0.5,1.7-0.5
	h0.1c3.4,1.7,6.8,3.7,10,5.6l0,0l0,0H219c0,0-1.2,0.1-1.9,0.4c-0.5,0.3-1.3,1-1.9,1.4c-0.4,0.5-0.8,1.2-1.6,1.6c0,0-1,0.4-2,0.5
	c0,0,0,0,0,0h-0.1c0,0,0.1,0,0.1,0C208.4,54.3,205.2,52.6,201.8,51.2L201.8,51.2L201.8,51.2L201.8,51.2z M211.3,56l0.1,1.7h0.1
	l0.3-1.6c-0.1,0-0.2,0-0.4,0.1c0,0,0,0,0,0l0,0l0,0h-0.1l0,0l0,0c0,0,0.1,0,0.1,0C211.5,56.1,211.4,56,211.3,56L211.3,56L211.3,56z"
	/>
<path id="path5925" class="st1" d="M194.7,40.2c-0.5,0.2-1.2,0.4-1.6,0.9l0.2-0.2c-0.7,0.5-1.4,1.4-1.8,2c0,0.1-0.2,0.4-0.2,0.4
	c-0.2,0.4-0.4,0.9-0.8,1.2c0,0-0.8,0.6-1.6,0.8l-2.6,0.7l2.6,0.8c3.3,1,6.5,2.2,10.1,3.8l1.1,0.5c0,0,0-0.4,0-0.7
	c0.8-0.2,1.6-0.6,1.6-0.6l0.1,0l0.1,0c0.6-0.4,1-1,1.3-1.5l0.3-0.5c0.4-0.5,1-1.2,1.5-1.6c0.2-0.2,1-0.3,1.5-0.4l2.7-0.3l-2.5-1.2
	c-3.4-1.6-6.9-3.1-10.8-4.5l-1-0.4C194.7,39.6,194.7,39.9,194.7,40.2L194.7,40.2z"/>
<path id="path5927" class="st0" d="M193.9,38.5v1.2c-0.5,0.2-0.9,0.4-1.3,0.8c-0.8,0.6-1.5,1.5-1.9,2.1l0,0.1l0,0.1
	c-0.1,0.1-0.1,0.2-0.2,0.4c-0.2,0.4-0.3,0.7-0.6,0.9c-0.2,0.2-0.9,0.5-1.4,0.7l-5.1,1.4l5.1,1.5c3.2,1,6.5,2.2,10,3.7l2.2,1V51
	c0.6-0.2,1.1-0.4,1.2-0.5l0.1-0.1l0.1-0.1c0.7-0.5,1.1-1.2,1.5-1.7c0.1-0.2,0.2-0.3,0.3-0.4l0,0l0,0c0.4-0.5,1-1.1,1.3-1.4
	c0.2-0.1,0.7-0.2,1.2-0.3l5.4-0.5l-4.9-2.4c-3.4-1.6-6.9-3.1-10.8-4.5L193.9,38.5L193.9,38.5L193.9,38.5z M195.5,40.7
	c3.7,1.3,7.2,2.7,10.7,4.4l0,0l0,0c0,0-1.3,0.1-1.9,0.5c-0.5,0.4-1.2,1.2-1.6,1.7c-0.4,0.5-0.8,1.3-1.5,1.8c0,0-1.1,0.5-2,0.7V50
	l0,0l0,0c-3.2-1.4-6.6-2.7-10.1-3.8l0,0l0,0c0.9-0.3,1.9-0.9,1.9-0.9c0.7-0.5,1-1.3,1.2-1.8c0.4-0.7,1.1-1.4,1.6-1.8
	c0.4-0.5,1.8-0.8,1.8-0.8L195.5,40.7L195.5,40.7L195.5,40.7z M190,44C190,44,190,44,190,44C190,44,190,44,190,44L190,44z"/>
<path id="path5931" class="st1" d="M180.4,36.3c-0.4,0.2-1.1,0.6-1.4,1c-0.5,0.5-1.1,1.5-1.4,2.2c0,0-0.2,0.5-0.2,0.5
	c-0.2,0.4-0.3,0.8-0.7,1.2c0,0-0.7,0.7-1.5,1l-2.4,1l2.5,0.5c4.2,0.8,7.6,1.6,10.6,2.5c0,0,0.2-0.4,0.4-0.8
	c-0.1,0.3-0.2,0.7-0.2,0.7c1.1-0.3,2.1-1,2.1-1l0.1,0l0,0c0.6-0.6,1-1.3,1.2-1.8c0,0,0.1-0.3,0.2-0.3c0.1-0.1,0.3-0.4,0.3-0.4
	c0.3-0.4,0.7-1,1-1.2l0.1-0.1l0.1-0.1c0.1-0.2,0.8-0.5,1.4-0.7l2.4-0.7l-2.4-0.8c-3.6-1.2-7.3-2.1-11-2.9l-1.2-0.3
	C180.4,35.7,180.4,36,180.4,36.3L180.4,36.3z M177.6,39.5"/>
<path id="path5933" class="st0" d="M179.6,34.7v1.1c-0.4,0.3-0.9,0.6-1.2,1c-0.6,0.6-1.2,1.7-1.5,2.4c-0.1,0.2-0.2,0.4-0.2,0.6
	c-0.1,0.4-0.3,0.7-0.5,0.9c-0.2,0.2-0.7,0.6-1.3,0.9l-4.8,2l5.1,0.9c4.2,0.8,7.5,1.5,10.5,2.4l1.1-1.9c-0.2,0.1-0.5,0.2-0.8,0.3
	l0.1,0.1l0,0l0,0c-3.5-1-7.2-1.8-10.7-2.5l0,0l0,0c1-0.4,1.8-1.2,1.8-1.2c0.7-0.7,0.8-1.4,1.1-2c0.3-0.7,0.8-1.6,1.2-2
	c0.4-0.5,1.6-1,1.6-1v-0.1l0,0l0,0c3.8,0.9,7.6,1.8,11.2,3l0,0l0,0c0,0-1.3,0.4-1.8,0.9c-0.5,0.4-1.1,1.3-1.5,1.8
	c-0.3,0.5-0.6,1.3-1.2,2c0,0-0.2,0.1-0.5,0.3c0.1,0.3,0.2,0.6,0.1,1c-0.1,0.5-0.5,1-1.1,1.1c1.2-0.3,2.2-1,2.4-1.1l0.1-0.1l0.1-0.1
	c0.7-0.7,1.1-1.5,1.4-2c0-0.1,0.1-0.2,0.1-0.2c0.1-0.1,0.2-0.3,0.3-0.4c0.2-0.3,0.6-0.9,0.8-1l0.2-0.1l0.1-0.1
	c0.2-0.1,0.6-0.3,1-0.4l4.8-1.4l-4.7-1.5c-3.6-1.2-7.4-2.1-11-3l-0.3-0.1L179.6,34.7L179.6,34.7L179.6,34.7z M178.4,36.7
	C178.5,36.7,178.5,36.7,178.4,36.7C178.5,36.7,178.5,36.7,178.4,36.7L178.4,36.7z M178.3,36.9C178.3,36.9,178.3,36.9,178.3,36.9
	C178.3,36.9,178.3,36.9,178.3,36.9L178.3,36.9z M176.9,39.1C176.9,39.1,176.9,39.1,176.9,39.1C176.9,39.1,176.9,39.1,176.9,39.1
	L176.9,39.1z M176.9,39.2C176.9,39.2,176.9,39.2,176.9,39.2C176.9,39.2,176.9,39.2,176.9,39.2L176.9,39.2z M191.8,41.5L191.8,41.5
	C191.8,41.5,191.8,41.5,191.8,41.5L191.8,41.5z M191.8,41.6C191.8,41.6,191.8,41.6,191.8,41.6C191.8,41.6,191.8,41.6,191.8,41.6
	L191.8,41.6z"/>
<path id="path5937" class="st1" d="M166.2,33.8l-0.2,0.1c-0.2,0.1-1.2,0.8-1.7,1.4c-0.4,0.5-0.6,1.2-0.8,1.8l-0.2,0.6c0,0,0,0,0,0
	c0,0-0.3,0.8-0.3,0.8c-0.1,0.4-0.2,0.8-0.5,1.1c0,0-0.6,0.7-1.4,1.1l-2.3,1.3l2.6,0.2c3.6,0.2,7.1,0.5,10.8,1c0,0,0,0,0.1,0l0,0
	c0,0,0,0,0.1,0c0,0,0.1,0,0.1,0l0.2-0.1c1.1-0.4,1.9-1.3,2-1.3c0.6-0.6,0.8-1.3,1-1.8l0.2-0.5c0.2-0.5,0.7-1.3,1.1-1.9
	c0.3-0.2,1-0.7,1.4-0.9l2-1.1l-2.2-0.4c-4.3-0.7-8-1.2-11.4-1.4L166.2,33.8L166.2,33.8z"/>
<path id="path5939" class="st0" d="M166.6,33L166.6,33h-0.2H166l-0.4,0.2c-0.3,0.2-1.4,0.9-1.9,1.6c-0.4,0.6-0.7,1.3-0.9,2
	c-0.1,0.2-0.1,0.4-0.2,0.5c-0.2,0.3-0.2,0.7-0.3,0.9c-0.1,0.3-0.2,0.6-0.3,0.8c-0.1,0.2-0.6,0.6-1.1,0.9l-4.5,2.5l5.2,0.4
	c3.6,0.2,7.1,0.5,10.7,1l0.4,0.1l0.4-0.2c1.2-0.5,2.1-1.4,2.2-1.5c0.8-0.8,1-1.6,1.2-2.2c0-0.2,0.1-0.3,0.1-0.4
	c0.2-0.5,0.6-1.2,0.9-1.6c0.2-0.2,0.8-0.5,1.2-0.7l3.9-2.1l-4.4-0.8C173.9,33.8,170.1,33.3,166.6,33L166.6,33L166.6,33L166.6,33z
	 M161.6,41.4c0.9-0.5,1.6-1.3,1.6-1.3c0.5-0.8,0.5-1.6,0.8-2.1c0.3-0.7,0.5-1.7,0.9-2.2c0.4-0.5,1.5-1.2,1.5-1.2h0.1
	c3.8,0.3,7.6,0.8,11.4,1.4l0,0l0,0c0,0-1.2,0.7-1.6,1c-0.4,0.5-0.9,1.4-1.2,2.1c-0.3,0.7-0.3,1.4-0.9,2.1c0,0-0.8,0.8-1.7,1.2
	c0,0,0.1,0,0.1,0h-0.1c0,0,0,0,0,0C168.8,41.9,165.3,41.6,161.6,41.4L161.6,41.4L161.6,41.4L161.6,41.4z M172.6,42.3
	c-0.1,0-0.1,0.1-0.2,0.1c0,0,0.1,0,0.1,0l0,0l0,0h-0.1l0,0l0,0c0,0,0,0,0,0c-0.1,0-0.2,0-0.3,0c0.2,0.8,0.4,1.6,0.3,1.6h0.1
	L172.6,42.3L172.6,42.3L172.6,42.3z"/>
<path id="path5943" class="st1" d="M151.5,33.4l-0.7,0c0,0,0,0.3,0,0.5c-0.4,0.3-1,0.9-1.3,1.3c-0.4,0.7-0.7,2.1-0.7,2.4
	c0,0-0.1,0.8-0.1,0.8c0,0.4-0.1,0.8-0.2,1.2c-0.1,0.2-0.7,0.8-1.3,1.4l-1.9,1.5l2.4-0.2c4-0.3,7.7-0.4,10.9-0.3l0.8,0
	c0,0,0-0.3,0-0.5c0.7-0.6,1.3-1.3,1.3-1.4c0.5-0.6,0.6-1.4,0.7-2c0,0,0.1-0.3,0.1-0.4c0.1-0.1,0.2-0.6,0.2-0.6
	c0.2-0.5,0.4-1.1,0.6-1.3c0.2-0.3,0.9-0.8,1.2-1c0,0-0.2,0.1-0.3,0.1c0-0.1,0-1.5,0-1.5C159.7,33.3,155.9,33.3,151.5,33.4
	L151.5,33.4z"/>
<path id="path5945" class="st0" d="M156.4,32.6c-1.5,0-3.1,0-4.9,0.1l-1.5,0v0.9c-0.4,0.4-0.9,0.9-1.2,1.4v0
	c-0.4,0.8-0.7,2.2-0.8,2.6l0,0l0,0c-0.1,0.3-0.1,0.6-0.1,0.9c0,0.4,0,0.6-0.1,0.8c-0.2,0.2-0.6,0.8-1.1,1.2l-3.8,3.1l4.9-0.4
	c2.8-0.2,5.5-0.3,8-0.3c1,0,1.9,0,2.8,0l1.6,0.1v-1c0.6-0.5,1.1-1.1,1.2-1.2c0.7-0.8,0.8-1.7,0.9-2.3c0-0.1,0-0.2,0-0.3
	c0.1-0.2,0.1-0.4,0.2-0.6c0.1-0.3,0.3-0.9,0.5-1.1c0,0,0,0,0,0c0,0,0,0,0,0c0,0,0,0,0,0c0,0,0,0,0,0c0.2-0.2,0.7-0.6,1-0.9
	c-0.2,0.2-0.5,0.2-0.7,0.3l0.1-3.1C161.1,32.6,158.8,32.6,156.4,32.6L156.4,32.6L156.4,32.6z M151.6,34.2c1.6-0.1,3.2-0.1,4.8-0.1
	c2.3,0,4.5,0.1,6.8,0.2l0,0l0,0H163c0,0-0.9,0.7-1.4,1.2c-0.4,0.5-0.7,1.6-0.9,2.2c-0.1,0.6-0.1,1.4-0.7,2.1c0,0-0.7,0.9-1.5,1.4
	v0.1l0,0l0,0c-0.9,0-1.9,0-2.9,0c-2.7,0-5.4,0.1-8.1,0.3l0,0l0,0c0.8-0.7,1.5-1.6,1.5-1.6c0.4-0.8,0.3-1.6,0.4-2.2
	c0.1-0.6,0.4-1.7,0.7-2.2c0.3-0.5,1.4-1.3,1.4-1.3V34.2L151.6,34.2L151.6,34.2z"/>
<path id="path5949" class="st1" d="M148.1,33.5c-3.5,0.4-7.5,0.8-11.4,1.4l-0.2,0l-0.3,0.3c-0.1,0.1-1,0.9-1.3,1.7l0,0.1l0,0.1
	c-0.2,0.6-0.3,1.8-0.3,2.5l0-0.2l-0.1,1c0,0.4,0,0.8-0.1,1.1c0,0.1-0.4,0.9-1,1.4l-2.4,1.9l3-0.5c3.6-0.6,7.3-1.3,10.8-1.7l0.2,0
	l0.2-0.1c0.9-0.7,1.5-1.7,1.5-1.8c0.4-0.7,0.4-1.4,0.4-1.9l0.1-0.7c0-0.5,0.2-1.6,0.5-2c0.2-0.3,0.7-0.9,1.1-1.2l1.6-1.5L148.1,33.5
	L148.1,33.5z"/>
<path id="path5951" class="st0" d="M152.4,32.3l-4.4,0.5c-3.5,0.4-7.5,0.8-11.5,1.4l-0.4,0.1l-0.3,0.3l-0.2,0.1l0,0l0,0
	c-0.2,0.2-1,1-1.4,1.9l0,0.1l0,0.1c-0.2,0.6-0.3,1.8-0.3,2.6c-0.1,0.4,0,0.7,0,1c0,0.3,0,0.6-0.1,0.7l0,0.1l0,0.1l0,0
	c-0.1,0.2-0.4,0.7-0.7,1.1l1.2,2.7c3.6-0.6,7.2-1.3,10.7-1.7l0.4,0l0.3-0.3c1-0.8,1.6-1.9,1.7-2l0,0l0,0c0.4-0.8,0.5-1.6,0.5-2.1
	c0-0.2,0-0.4,0-0.5l0-0.1v-0.2c0-0.1,0-0.1,0-0.2c0,0,0,0-0.1,0c-0.1,0-0.2,0-0.3-0.1c-0.7-0.4,0.3-0.6,0.7-1.4l0,0
	c0.1-0.2,0.5-0.7,0.9-1L152.4,32.3L152.4,32.3L152.4,32.3z M135.3,40.2c0-0.2,0-0.3,0-0.5c0-0.7,0.1-1.8,0.3-2.4
	c0.3-0.7,1.1-1.4,1.1-1.4l0.2-0.1c3.8-0.7,7.6-1,11.3-1.4l0,0l0,0c0,0-0.9,0.9-1.2,1.4c-0.3,0.5-0.6,1.7-0.6,2.4
	c-0.1,0.7,0,1.4-0.4,2.2c0,0-0.5,0.9-1.4,1.6c-3.5,0.4-7.2,1-10.8,1.7l0,0l0,0c0.8-0.7,1.2-1.7,1.2-1.7c0.2-0.4,0.2-0.8,0.2-1.1
	C135.3,40.5,135.3,40.3,135.3,40.2L135.3,40.2L135.3,40.2z M148.3,36.5c-0.1,0.1-0.1,0.2-0.1,0.3C148.2,36.6,148.3,36.5,148.3,36.5
	L148.3,36.5z"/>
<path id="path5955" class="st1" d="M133.3,35.6c-3.8,0.7-7.5,1.6-11.2,2.8l-0.2,0.1l-0.3,0.3c-0.2,0.3-0.9,1.2-1,2
	c-0.1,0.7-0.1,1.8-0.1,2.5v0.1l0.1,0.4c0.1,0.5,0.2,1,0.1,1.5c0,0.1-0.3,1.1-0.8,1.7l-1.9,2.3l2.8-1c3.4-1.2,6.8-2.2,10.1-3l0.3-0.1
	c0,0-0.1-0.7-0.1-1.1c0.2,0.4,0.4,0.9,0.4,0.9l1.4-1.9l0-0.1c0.2-0.8,0.1-1.5,0.1-2l0-0.4c0-0.7,0.1-1.7,0.2-2.2
	c0.1-0.3,0.6-0.9,0.9-1.2l1.5-1.6L133.3,35.6L133.3,35.6z"/>
<path id="path5957" class="st0" d="M137.5,34.1l-4.3,0.7c-3.8,0.7-7.5,1.6-11.3,2.8l-0.4,0.1l-0.3,0.3l-0.1,0.1l-0.1,0.1l-0.1,0.1
	c-0.2,0.3-0.9,1.3-1.1,2.2c-0.2,0.7-0.2,1.7-0.2,2.7v0.2l0,0.2c0,0.1,0.1,0.2,0.1,0.4c0.1,0.4,0.2,0.8,0.1,1l0,0.1l0,0.1
	c-0.1,0.2-0.3,0.9-0.6,1.3l1.7,2.4c3.3-1.2,6.8-2.1,10.1-3l0.3-0.1l-0.2-1.8c-0.1,0.1-0.2,0.2-0.3,0.3h0.1l0,0l0,0
	c-3.5,0.9-7,1.8-10.5,3.1l0,0l0,0c0.7-0.8,0.9-2,0.9-2c0.1-0.2,0.1-0.5,0.1-0.7c0-0.5-0.2-1-0.3-1.5c0,0,0,0,0,0
	c0-0.7,0-1.7,0.1-2.3c0.1-0.7,0.8-1.6,0.8-1.6l0.1-0.1c3.6-1.2,7.3-2.1,11.1-2.7l0,0l0,0c0,0-0.8,0.9-1.1,1.6
	c-0.1,0.5-0.3,1.6-0.3,2.4c0,0.4,0.1,0.8,0.1,1.4c0,0.3,0,0.6-0.1,0.9c0,0-0.1,0.2-0.3,0.5c0.2,0.2,0.4,0.4,0.5,0.6
	c0.2,0.5,0.2,1.2-0.2,1.6c0.8-0.9,1.4-1.9,1.4-1.9l0.1-0.2l0.1-0.2c0.3-1,0.2-1.8,0.1-2.3c0-0.1,0-0.3,0-0.3c0-0.6,0.1-1.4,0.2-1.8
	c0.1-0.3,0.5-0.7,0.8-1L137.5,34.1L137.5,34.1L137.5,34.1z"/>
<path id="path5961" class="st1" d="M118.9,39.5c-3.3,1.1-6.7,2.4-10.8,4.2l-0.5,0.2c0,0,0,0.3,0,0.4c-0.2,0.4-0.6,1.2-0.7,1.8
	c0,0.1,0,0.3,0,0.4c0,0.5,0.1,1.2,0.3,2c0,0,0,0.2,0,0.2c0,0,0.2,0.7,0.2,0.7c0.1,0.4,0.2,0.7,0.2,1c0,0.1,0,0.2,0,0.2
	c0,0-0.1,0.9-0.6,1.7l-1.4,2.3l2.4-1.2c2.8-1.5,6-2.9,9.9-4.4c0,0-0.1-0.7-0.2-1.1c0.2,0.4,0.4,0.8,0.4,0.8c0.6-0.8,1-1.9,1-2l0-0.1
	l0-0.1c0.1-0.8,0-1.5-0.2-2l-0.1-0.4c-0.1-0.6-0.1-1.6,0-2l0-0.1v-0.1c0-0.2,0.3-0.8,0.6-1.2l1.5-2L118.9,39.5L118.9,39.5z"/>
<path id="path5963" class="st0" d="M123.3,37.2l-4.7,1.5c-3.3,1.1-6.8,2.4-10.8,4.2l-0.9,0.4v0.7c-0.3,0.5-0.6,1.2-0.7,1.9
	c-0.1,0.7,0,1.7,0.3,2.7l0,0.2c0,0,0,0,0,0c0.1,0.3,0.1,0.6,0.2,0.8c0.1,0.4,0.2,0.6,0.2,0.9c0,0-0.1,0.8-0.5,1.4l-2.7,4.6l4.7-2.5
	c2.8-1.5,5.9-2.9,9.8-4.4l-0.4-1.9c-0.1,0.2-0.2,0.4-0.3,0.5h0.1l0,0l0,0c-3.4,1.3-6.8,2.7-10,4.4l0,0l0,0c0.5-0.9,0.7-2,0.7-2
	c0-0.1,0-0.3,0-0.4c0-0.7-0.3-1.3-0.4-1.9c-0.1-0.5-0.3-1.4-0.3-2c0-0.1,0-0.3,0-0.4c0-0.7,0.7-1.7,0.7-1.7v-0.1l0,0l0,0
	c3.5-1.6,7-3,10.7-4.2l0,0l0,0c0,0-0.8,1-0.8,1.7c-0.1,0.3-0.1,0.7-0.1,1.1s0,0.9,0.1,1.2c0.1,0.5,0.3,1.1,0.3,1.7
	c0,0.2,0,0.3,0,0.5c0,0-0.1,0.2-0.2,0.5c0.3,0.1,0.5,0.4,0.6,0.6c0.3,0.5,0.2,1.1-0.1,1.6c0.6-0.9,1.1-2,1.1-2.1l0.1-0.2l0-0.2
	c0.1-1-0.1-1.8-0.2-2.3c0-0.1-0.1-0.3-0.1-0.4l0,0l0,0c-0.1-0.5-0.1-1.4,0-1.6c0.2-0.7-0.5-1.5,0.1-1.5c0,0,0.1,0,0.1,0
	c0.8,0.1-0.1,0.4-0.1,1.1c0,0.1,0,0.1,0,0.1c0-0.2,0.3-0.6,0.5-0.9L123.3,37.2L123.3,37.2L123.3,37.2z M106.3,45.8
	C106.3,45.8,106.3,45.8,106.3,45.8C106.3,45.8,106.3,45.8,106.3,45.8L106.3,45.8z"/>
<path id="path5967" class="st1" d="M105,45.1c-3.5,1.6-6.9,3.5-10.1,5.5l-0.2,0.1L94.6,51c0,0.1-0.5,1.3-0.5,2.2
	c0,0.4,0.2,1,0.3,1.6l0.2,0.9l0,0.1l0.2,0.4c0.2,0.4,0.5,0.8,0.5,1.3c0,0-0.4,1.9-0.4,1.9l-0.4,1.9l1.5-1c2.8-1.9,5.8-3.8,9.3-5.6
	c0,0-0.2-0.7-0.3-1.1c0.2,0.3,0.5,0.7,0.5,0.7c0.5-1,0.6-2.1,0.6-2.2c0.1-0.8-0.1-1.4-0.3-2l-0.2-0.6c-0.3-0.7-0.4-1.5-0.4-1.9
	l0-0.1v-0.1c0-0.3,0.3-1,0.5-1.3l1-2L105,45.1z"/>
<path id="path5969" class="st0" d="M108.8,42.5l-4.1,1.9c-3.6,1.6-7,3.5-10.2,5.6l-0.4,0.3l-0.2,0.5c-0.1,0.2-0.5,1.5-0.5,2.5
	c0,0.5,0.2,1.2,0.4,1.8c0.1,0.3,0.2,0.6,0.2,0.7l0,0.2l0.1,0.2c0.1,0.2,0.2,0.3,0.3,0.4c0.2,0.3,0.4,0.6,0.4,0.9
	c0,0.3-0.2,1.1-0.3,1.7l-1.3,4.2l3.6-2.5c2.8-1.9,5.8-3.7,9.2-5.5l-0.5-2.2c-0.1,0.3-0.2,0.6-0.3,0.8h0.1l0,0l0,0
	c-3.3,1.7-6.4,3.5-9.3,5.6l0,0l0,0c0.3-0.9,0.4-2.1,0.4-2.1c0-0.9-0.5-1.6-0.8-2.1c-0.1-0.7-0.5-1.7-0.5-2.2l0,0l0,0
	c0-0.8,0.4-2,0.4-2c3.2-2.1,6.6-3.9,10-5.5l0,0l0,0c0,0-0.5,1-0.5,1.7c0,0.1,0,0.3,0,0.4c0,0.6,0.2,1.4,0.4,1.9
	c0.1,0.6,0.4,1.1,0.4,1.8c0,0.1,0,0.2,0,0.4c0,0,0,0.2-0.1,0.5c0.3,0.1,0.6,0.3,0.8,0.6c0.3,0.4,0.3,1,0.1,1.5
	c0.5-1,0.6-2.1,0.7-2.4c0,0,0,0,0,0c0,0,0,0,0,0c0,0,0,0,0,0c0,0,0,0,0,0c0.1-1-0.1-1.8-0.3-2.3c-0.1-0.2-0.1-0.3-0.1-0.4l0-0.1
	l-0.1-0.1c-0.2-0.6-0.4-1.3-0.3-1.5l0,0.2l0.1-0.5c0,0,0,0,0,0c0,0,0,0,0,0l0,0c0-0.2,0.2-0.7,0.4-1L108.8,42.5L108.8,42.5
	L108.8,42.5z"/>
<path id="path5973" class="st1" d="M92.1,52.5c-3.3,2.1-6.4,4.4-9.3,6.7l-0.3,0.2c0,0,0,0.4,0,0.4c-0.1,0.2-0.2,0.8-0.2,1.5
	c0,0.2,0,0.4,0.1,0.6c0.2,0.6,0.6,1.7,1,2.5c0,0,0.3,0.5,0.3,0.5c0.2,0.4,0.5,0.7,0.5,1.2c0,0,0.1,0.9-0.1,1.8l-0.7,2.5l1.9-1.8
	c2.4-2.2,5.2-4.4,8.3-6.6c0,0,0,0,0.1-0.1l0,0c0,0,0,0,0.1-0.1c0,0,0,0,0,0s0,0,0,0c0,0,0,0,0,0l0,0c0-0.1,0.1-0.2,0.1-0.2
	c0.3-0.8,0.3-1.5,0.3-1.9c0,0,0-0.5,0-0.5c0-0.7-0.3-1.3-0.5-1.7L93.6,57c0-0.1-0.7-1.8-0.8-2.1c0-0.4,0.2-1.1,0.3-1.5l0.7-2.1
	L92.1,52.5L92.1,52.5z"/>
<path id="path5975" class="st0" d="M95.3,49.5l-3.7,2.3c-3.3,2.1-6.5,4.4-9.4,6.8l-0.6,0.5v0.7c-0.1,0.5-0.3,1.5-0.1,2.3l0,0l0,0
	c0.2,0.6,0.6,1.8,1.1,2.6c0.1,0.2,0.2,0.4,0.3,0.6c0.2,0.3,0.4,0.6,0.4,0.8c0,0,0,0,0,0c0,0,0,0,0,0c0,0,0,0,0,0c0,0,0,0,0,0
	c0,0.1,0.1,0.8-0.1,1.5l-1.4,5.1l3.9-3.5c2.4-2.2,5.1-4.4,8.3-6.6l0.4-0.3l0.2-0.4c0.4-1.2,0.4-2.3,0.3-2.7c0-0.9-0.4-1.6-0.6-2.1
	c-0.1-0.1-0.1-0.3-0.1-0.3c-0.2-0.8-1.2-1.2-0.5-1.4c-0.1-0.2-0.1-0.4-0.2-0.6c0-0.3,0.2-0.8,0.3-1.2L95.3,49.5L95.3,49.5L95.3,49.5
	z M83.3,59.8c3-2.5,6.1-4.7,9.2-6.7l0,0l0,0c0,0-0.4,1.2-0.4,1.8c0.1,0.5,0.5,1.6,0.8,2.2c0.1,0.5,0.7,1.2,0.7,2.1c0,0,0,0.2,0,0.4
	c0,0.4,0,1-0.3,1.6c0,0,0.1-0.1,0.1-0.1l-0.1,0.1c0,0,0,0,0-0.1c-2.9,2.1-5.7,4.3-8.4,6.7l0,0l0,0c0.1-0.5,0.2-1,0.2-1.4
	s0-0.7,0-0.7c-0.1-0.9-0.7-1.4-0.9-2c-0.4-0.7-0.8-1.7-0.9-2.2c0-0.1,0-0.3,0-0.4c0-0.6,0.2-1.4,0.2-1.4L83.3,59.8L83.3,59.8
	L83.3,59.8z M82.8,64.7C82.8,64.7,82.8,64.7,82.8,64.7C82.8,64.7,82.8,64.7,82.8,64.7L82.8,64.7z M82.8,64.8
	C82.8,64.8,82.8,64.7,82.8,64.8C82.8,64.7,82.8,64.8,82.8,64.8L82.8,64.8z M93.4,61c0,0.1-0.1,0.2-0.1,0.3c0,0,0.1-0.1,0.1-0.1l0,0
	l0,0l-0.1,0.1l0,0l0,0c0,0,0,0,0-0.1c-0.1,0.1-0.2,0.2-0.4,0.3l1.4,0.9l0.1-0.1L93.4,61L93.4,61z"/>
<path id="path5979" class="st1" d="M80.3,61.3c-2.9,2.5-5.6,5.1-8.2,7.9l-0.2,0.2v0.4c0,0-0.1,0.5-0.1,1c0,0.3,0,0.7,0.1,0.9
	c0.1,0.5,0.6,1.2,1,1.8l0.4,0.5c0,0.1,0.4,0.5,0.4,0.5c0.3,0.3,0.6,0.6,0.7,1.1c0,0,0.1,0.6,0.1,1.3c0,0.2,0,0.3,0,0.5L74.1,80
	l1.6-1.9c2.4-2.7,4.9-5.3,7.5-7.6l1.5-1.3c0,0-0.7,0-1.2,0c0-0.2,0.1-0.4,0.1-0.6c0-0.4,0-0.7,0-0.8l0-0.1l0-0.1
	c-0.2-0.7-0.6-1.2-0.8-1.6l-0.3-0.5c-0.6-0.9-0.9-1.6-1-1.9c0-0.1,0-0.1,0-0.2c0-0.4,0.1-1,0.2-1.4l0.5-2.2L80.3,61.3L80.3,61.3z"/>
<path id="path5981" class="st0" d="M83.2,57.7l-3.4,3c-2.9,2.5-5.6,5.2-8.2,7.9l-0.4,0.4v0.6v0.1c0,0.4-0.1,1.5,0,2.2l0,0l0,0
	c0.2,0.6,0.5,1.2,1.1,2c0.1,0.2,0.2,0.4,0.3,0.5l0,0.1l0,0.1c0.1,0.2,0.3,0.3,0.4,0.5c0.3,0.3,0.4,0.5,0.5,0.8
	c0.1,0.2,0.2,0.9,0.1,1.5l-0.6,4.9l3.3-3.7c2.4-2.7,4.9-5.2,7.5-7.6l2.9-2.7h-2.4c0-0.4,0-0.7,0-0.7l0-0.1l0-0.1
	c-0.3-0.8-0.7-1.4-1-1.9c-0.1-0.1-0.2-0.3-0.2-0.4l0-0.1l0-0.1c-0.6-0.9-0.8-1.4-0.9-1.6c0-0.2,0-0.8,0.1-1.3L83.2,57.7L83.2,57.7
	L83.2,57.7z M72.6,69.7c2.6-2.7,5.3-5.4,8.1-7.8l0,0l0,0c0,0-0.2,0.8-0.2,1.5c0,0.2,0,0.3,0,0.4c0.1,0.5,0.7,1.4,1.1,2.1
	c0.3,0.5,0.8,1,1.1,2c0,0,0,0.2,0,0.6l0,0c0,0,0,0,0,0l0,0c0,0,0,0.1,0,0.1c0,0.4,0,0.9-0.2,1.4h0.1l0,0l0,0c-2.6,2.4-5.1,5-7.6,7.7
	l0,0l0,0c0-0.2,0-0.4,0-0.6c0-0.8-0.2-1.5-0.2-1.5c-0.3-0.9-0.8-1.3-1.2-1.8c-0.4-0.7-1.1-1.6-1.2-2.1c0-0.2-0.1-0.5-0.1-0.8
	c0-0.5,0.1-1.1,0.1-1.1h0L72.6,69.7L72.6,69.7L72.6,69.7L72.6,69.7z M73.6,76C73.6,76,73.6,76,73.6,76C73.6,76,73.6,76,73.6,76
	L73.6,76z"/>
<path id="path5985" class="st1" d="M69.8,71.7c-2.4,2.5-4.7,5.4-7.2,8.8L62.1,81c0,0,0.3,0.3,0.4,0.4c0,0.4,0.1,1.2,0.3,1.8
	c0.4,0.7,1.1,1.6,1.7,2.1l-0.1-0.1l0.6,0.6c0.3,0.3,0.6,0.6,0.8,0.9c0,0,0.3,0.9,0.3,1.7V91l1.4-2.1c1.8-2.7,3.8-5.4,6.3-8.6
	l0.2-0.2v-0.3c0-1-0.3-2.2-0.3-2.3c-0.3-0.8-0.7-1.3-1.1-1.7l-0.4-0.4c-0.9-1.2-1.1-1.6-1.1-1.7l0-0.1l0-0.1c-0.1-0.3-0.1-1-0.1-1.4
	l0.3-2.3L69.8,71.7z"/>
<path id="path5987" class="st0" d="M72.3,67.8l-3.1,3.3c-2.4,2.6-4.7,5.4-7.3,8.9l-0.8,1.1l0.7,0.6c0,0.5,0.1,1.2,0.4,1.7l0,0.1
	l0,0.1c0.4,0.9,1.4,1.8,1.7,2.2c0.2,0.3,0.4,0.5,0.6,0.6c0.2,0.2,0.5,0.4,0.6,0.7c0.1,0.3,0.3,0.9,0.3,1.5v5l2.8-4.2
	c1.8-2.6,3.8-5.3,6.3-8.5l0.3-0.4v-0.5c0-1.1-0.3-2.3-0.3-2.4l0-0.1l0-0.1c-0.3-0.9-0.9-1.5-1.3-1.9c-0.1-0.1-0.2-0.3-0.3-0.4
	c-0.8-1-0.9-1.4-0.9-1.4c0,0,0,0,0,0s0,0,0,0c0,0,0,0,0,0c0,0,0,0,0,0l0,0.1l-0.1-0.3l0,0c-0.1-0.2-0.1-0.7,0-1.1L72.3,67.8
	L72.3,67.8L72.3,67.8z M63.2,80.9c2.3-3.1,4.6-6,7.2-8.8l0,0l0,0c0,0,0,0.3,0,0.6c0,0.4,0,0.9,0.2,1.2c0.1,0.5,0.8,1.4,1.2,2
	c0.4,0.5,1.1,1,1.4,1.8c0,0,0.3,1.2,0.3,2.1l0,0l0,0c-2.2,2.7-4.3,5.6-6.3,8.6c0-1-0.4-2.1-0.4-2.1c-0.4-0.8-1.1-1.2-1.5-1.7
	c-0.5-0.5-1.2-1.3-1.5-1.8c-0.3-0.6-0.3-1.8-0.3-1.8L63.2,80.9L63.2,80.9L63.2,80.9z"/>
<path id="path5991" class="st1" d="M60.7,83.2c-2.2,3.3-4.2,6.6-5.9,9.6L54.7,93v0.4l0,0.1c0,0.2,0.3,1.3,0.8,1.9
	c0.4,0.7,1.3,1.5,1.8,1.9c0,0,0.3,0.2,0.3,0.2c0.5,0.3,0.9,0.6,1.3,1.2c0,0,0.4,0.8,0.5,1.6l0.3,2.5l1.1-2.3c1.4-2.8,3-5.7,5.1-9.3
	l0.1-0.2c0,0,0,0,0-0.1c0,0,0-0.1,0-0.1s0,0.1,0,0.1c0-0.1,0-0.2,0-0.2c-0.2-1.1-0.5-2.1-0.6-2.2c-0.4-0.8-1-1.2-1.4-1.6l-0.3-0.3
	c-0.4-0.4-1.3-1.2-1.5-1.6c-0.2-0.4-0.3-1.3-0.3-1.6l-0.2-2.1L60.7,83.2z"/>
<path id="path5993" class="st0" d="M62.3,79.4L60,82.8c-2.3,3.4-4.2,6.6-5.9,9.7l-0.2,0.3v0.4v0.1v0.2l0,0.2
	c0.1,0.3,0.4,1.4,0.9,2.2c0.5,0.8,1.5,1.7,2,2.1c0.1,0.1,0.2,0.1,0.3,0.2c0.4,0.3,0.8,0.5,1.1,0.9c0.1,0.2,0.4,0.8,0.5,1.3l0.6,5
	l2.3-4.5c1.4-2.8,3-5.7,5.1-9.3l0.3-0.5l-0.1-0.5c-0.2-1.1-0.6-2.2-0.6-2.3l0-0.1l0-0.1c-0.4-0.9-1.1-1.4-1.5-1.7
	c-0.1-0.1-0.2-0.2-0.3-0.2c-0.3-0.3-1.1-1-1.3-1.4c-0.1-0.3-0.2-1-0.3-1.4L62.3,79.4L62.3,79.4z M55.5,93.2c1.8-3.3,3.8-6.5,5.8-9.5
	c0,0,0.1,1.2,0.4,1.8c0.3,0.5,1.1,1.3,1.6,1.8c0.4,0.4,1.1,0.8,1.5,1.6c0,0,0.4,1,0.5,2l0,0l0,0c-1.7,3-3.5,6.1-5.1,9.4
	c-0.1-1-0.7-2-0.7-2c-0.5-0.8-1.2-1.2-1.8-1.6c-0.5-0.4-1.3-1.2-1.6-1.7c-0.4-0.5-0.7-1.7-0.7-1.7L55.5,93.2L55.5,93.2L55.5,93.2z
	 M65.3,91c0,0,0-0.1,0-0.1c0,0,0,0,0,0V91L65.3,91z M54.8,95.8C54.8,95.8,54.8,95.8,54.8,95.8C54.8,95.8,54.8,95.8,54.8,95.8
	L54.8,95.8z M58.3,99.2C58.3,99.2,58.3,99.2,58.3,99.2C58.3,99.2,58.3,99.2,58.3,99.2L58.3,99.2z M65.2,90.4c0,0.2,0.1,0.3,0.1,0.5
	c0,0.1-0.1,0.1-0.1,0.2l1.7-0.1v-0.1c0,0,0,0-0.1,0c-0.2,0-0.8-0.2-1.3-0.4C65.4,90.5,65.3,90.4,65.2,90.4L65.2,90.4z M65.3,90.9
	C65.3,90.9,65.3,90.9,65.3,90.9l0,0.1l0,0l0,0C65.3,91,65.3,90.9,65.3,90.9L65.3,90.9L65.3,90.9z"/>
<path id="path5997" class="st1" d="M53.3,95.8c-1.7,3.6-3.2,7-4.5,10.4l-0.1,0.2l0.1,0.3c0.1,0.2,0.5,1.5,0.9,2.1l0.1,0.1l0,0
	l1.6,1.2l0.4,0.3l0.4,0.2c0.4,0.2,0.9,0.4,1.3,0.8c0,0,0.6,0.8,0.8,1.7l0.6,2.4l0.9-2.5c1.2-3.3,2.4-6.7,3.8-9.7l0.5-1.1
	c0,0-0.4,0-0.7,0c-0.2-0.8-0.6-1.5-0.6-1.6l0-0.1l-0.1-0.1c-0.4-0.5-0.9-0.8-1.3-1.1l-0.7-0.5c-0.6-0.4-1.3-0.9-1.5-1.3l0-0.1l0-0.1
	c-0.2-0.3-0.4-1.1-0.5-1.5l-0.5-2.2L53.3,95.8z"/>
<path id="path5999" class="st0" d="M54.6,91.3l-1.9,4.1c-1.7,3.6-3.2,7-4.5,10.4l-0.2,0.5l0.2,0.5c0.1,0.4,0.5,1.6,1.1,2.3l0.1,0.1
	l0.1,0.1c0.4,0.4,1,0.8,1.7,1.3c0.1,0.1,0.3,0.2,0.4,0.3l0.1,0.1l0.1,0.1c0.1,0.1,0.3,0.1,0.4,0.2c0.4,0.2,0.7,0.3,1,0.6
	c0.2,0.2,0.5,0.8,0.7,1.4l1.2,4.9l1.7-4.7l0-0.1c1.2-3.3,2.4-6.6,3.8-9.6l1-2.2H60c-0.2-0.6-0.5-1.1-0.5-1.1l-0.1-0.1l-0.1-0.1
	c-0.5-0.6-1-0.9-1.5-1.3c-0.2-0.1-0.4-0.2-0.4-0.3l-0.1-0.1l-0.2-0.1c-0.6-0.4-1.1-0.8-1.2-1l0,0l0.1,0.1L55.9,97c0,0,0,0,0,0
	c0,0,0,0,0,0c-0.1-0.2-0.3-0.8-0.4-1.2L54.6,91.3L54.6,91.3L54.6,91.3z M49.5,106.4c1.4-3.5,2.8-6.9,4.5-10.3c0,0,0.3,1.3,0.7,1.8
	c0.3,0.5,1.1,1.2,1.8,1.6c0.4,0.4,1.2,0.8,1.8,1.4c0,0,0.5,1,0.7,2H59l0,0l0,0c-1.5,3.1-2.7,6.5-3.9,9.9c-0.3-1-0.9-2-0.9-2
	c-0.5-0.7-1.3-0.9-1.9-1.2c-0.5-0.4-1.5-1-1.9-1.4C49.9,107.7,49.5,106.4,49.5,106.4L49.5,106.4L49.5,106.4z"/>
<path id="path6003" class="st1" d="M47.6,109.3c-1.4,4.3-2.3,7.6-3,10.8l-0.1,0.3l0.1,0.2c0.1,0.2,0.6,1.3,1.3,1.8
	c0.4,0.4,1.2,0.9,1.9,1.3l0.3,0.1l0,0l0.7,0.2c0.5,0.1,0.9,0.2,1.2,0.5c0,0,0.6,0.7,0.9,1.5l1,2.2l0.5-2.4c0.8-4.1,1.6-7.3,2.6-10.2
	l0.9-2.9c0,0-0.9,0.9-1.5,1.5c-0.3-0.5-0.6-0.9-0.6-1l0-0.1l0,0c-0.8-0.7-1.5-1-2.2-1.3c-0.1-0.1-0.5-0.3-0.5-0.3
	c-0.4-0.3-1-0.6-1.2-0.9l-0.1-0.1l-0.1-0.1c-0.2-0.1-0.5-0.7-0.7-1.2l-0.8-2.2L47.6,109.3L47.6,109.3z"/>
<path id="path6005" class="st0" d="M48.2,104.7l-1.4,4.4c-1.4,4.3-2.3,7.7-3,10.8l-0.1,0.5l0.2,0.5c0.2,0.4,0.7,1.5,1.5,2.1
	c0.5,0.4,1.2,0.9,2.1,1.4l0.2,0.1l0.1,0.1l0.1,0c0.3,0.1,0.6,0.2,0.8,0.2c0.4,0.1,0.6,0.2,0.8,0.3c0.1,0.2,0.5,0.7,0.8,1.3l2,4.4
	l1-4.7c0.8-4.1,1.6-7.3,2.5-10.2l-2-1.2c0.1,0.3,0.3,0.6,0.4,0.9l0.1-0.1l0,0l0,0c-1.1,3.4-1.9,6.9-2.6,10.3
	c-0.4-0.9-1.1-1.7-1.1-1.7c-0.7-0.7-1.5-0.7-2.2-0.9c-0.7-0.4-1.6-0.9-2-1.3c-0.5-0.4-1.1-1.6-1.1-1.6l0,0l0,0
	c0.8-3.7,1.9-7.3,3-10.7c0,0,0.4,1.2,0.9,1.6c0.4,0.5,1.3,1,1.9,1.4c0.7,0.3,1.4,0.5,2,1.2c0,0,0.1,0.2,0.3,0.4
	c0.2-0.1,0.4-0.1,0.6-0.1c0.1,0,0.3,0,0.4,0.1c0.5,0.1,0.9,0.5,1.1,1c-0.3-1.1-1.1-2.2-1.2-2.3l-0.1-0.1l-0.1-0.1
	c-0.8-0.8-1.7-1.2-2.4-1.4c-0.1-0.1-0.3-0.2-0.4-0.3c-0.3-0.2-0.9-0.6-1-0.7l-0.1-0.2l-0.1-0.1c-0.1-0.1-0.3-0.5-0.4-0.8L48.2,104.7
	L48.2,104.7L48.2,104.7z"/>
<path id="path6009" class="st1" d="M43.9,123.2c-0.8,3.7-1.4,7.4-1.6,11.2l0,0.3l0.1,0.2c0.1,0.1,0.7,1.1,1.5,1.6
	c0.6,0.6,1.9,1,2.5,1.1l-0.1,0l0.8,0.2c0.4,0.1,0.8,0.2,1.1,0.4c0,0,0.8,0.6,1.3,1.3l1.3,2.3l0.1-2.6c0.1-3.1,0.5-6.5,1.1-10.5
	l0.4-2.3c0,0-0.6,0.6-1.1,1.1c-0.4-0.6-0.8-1-0.8-1c-0.6-0.6-1.3-0.8-1.9-0.9l-0.5-0.2c-0.5-0.2-1.5-0.7-1.8-1
	c-0.3-0.2-0.7-0.9-0.9-1.3l-1-2.1L43.9,123.2L43.9,123.2z"/>
<path id="path6011" class="st0" d="M44.1,118.6l-1,4.4c-0.8,3.8-1.4,7.5-1.7,11.3l0,0.5l0.3,0.4c0.1,0.2,0.8,1.3,1.7,1.8
	c0.7,0.6,2,1,2.7,1.2c0.3,0.1,0.6,0.2,0.8,0.2c0.4,0.1,0.7,0.2,0.8,0.3l0,0l0,0c0.2,0.1,0.7,0.6,1,1.1l2.7,4.6l0.2-5.3
	c0.1-3.1,0.5-6.4,1.1-10.4l0.7-4.6l-2.1,2.1c-0.2-0.2-0.3-0.4-0.4-0.4c-0.8-0.7-1.6-1-2.2-1.1c-0.2,0-0.3-0.1-0.4-0.1l0,0
	c-0.9-0.4-1.4-0.7-1.6-0.9c-0.6-0.6-1.7-0.4-1.2-1c0.1-0.1,0.2-0.2,0.3-0.2c0.2,0,0.3,0.7,0.8,1.1c0,0,0,0,0,0
	c-0.1-0.1-0.4-0.6-0.6-1L44.1,118.6L44.1,118.6L44.1,118.6z M43,134.5c0.3-3.8,0.8-7.4,1.6-11.1c0,0,0.5,1.2,1.1,1.6
	c0.4,0.4,1.5,0.9,2,1.2c0.7,0.3,1.5,0.3,2.2,0.9c0,0,0.2,0.1,0.4,0.4l0,0c0,0,0,0,0,0l0,0c0.3,0.3,0.6,0.8,0.8,1.3l0.1-0.1l0,0l0,0
	c-0.5,3.5-0.9,7.1-1.1,10.6c-0.5-0.9-1.5-1.6-1.5-1.6c-0.7-0.5-1.5-0.5-2.2-0.8c-0.7-0.1-1.8-0.5-2.2-0.9
	C43.7,135.5,43,134.5,43,134.5L43,134.5L43,134.5z"/>
<path id="path6015" class="st1" d="M42,137.7c-0.2,3.3-0.3,6.9-0.1,11.2l0,0.7c0,0,0.3,0,0.5,0c0.3,0.4,0.9,1,1.4,1.2
	c0.5,0.2,1.3,0.5,2.6,0.7c0,0,0.7,0.1,0.7,0.1c0.4,0,0.8,0.1,1.2,0.2c0.2,0.1,1,0.7,1.3,1.2l1.6,2.3l-0.2-2.8
	c-0.2-2.8-0.3-5.3-0.3-7.7c0-1,0-1.9,0.1-2.8l0-0.3l-0.2-0.2l-1.6-1.5c-0.8-0.5-1.6-0.7-2.2-0.7c0,0-0.3,0-0.4-0.1
	c-0.1,0-0.6-0.2-0.6-0.2c-0.4-0.1-1.1-0.4-1.2-0.5l-0.1-0.1l-0.1-0.1c-0.3-0.1-0.8-0.6-1-1l-1.2-1.9L42,137.7L42,137.7z"/>
<path id="path6017" class="st0" d="M41.6,133.1l-0.3,4.5c-0.2,3.4-0.3,6.9-0.1,11.3l0.1,1.5h0.9c0.4,0.4,0.9,0.9,1.4,1.2
	c0,0,0,0,0,0c0.3,0.2,1,0.4,2.8,0.8c0.3,0.1,0.6,0.1,0.9,0.1c0.3,0,0.6,0,0.9,0.1c0.3,0.2,0.9,0.6,1.1,0.9l3.2,4.7l-0.4-5.7
	c-0.3-3.9-0.4-7.3-0.3-10.4l0-0.6l-0.4-0.5c-0.8-0.9-1.6-1.6-1.7-1.6l-0.1,0l-0.1,0c-0.9-0.6-1.8-0.7-2.4-0.8c-0.1,0-0.2,0-0.3,0
	c-0.2-0.1-0.4-0.1-0.5-0.2c-0.3-0.1-0.8-0.3-1-0.4l-0.2-0.2l-0.3-0.1c-0.1-0.1-0.4-0.4-0.6-0.7L41.6,133.1L41.6,133.1L41.6,133.1z
	 M42.6,144.3c0-2.2,0.1-4.4,0.2-6.5c0,0,0.7,1,1.3,1.3c0.4,0.4,1.5,0.7,2.2,0.9c0.7,0.1,1.5,0.1,2.3,0.7c0,0,0.8,0.7,1.5,1.4l0,0
	l0,0c0,0.9-0.1,1.9-0.1,2.8c0,2.6,0.1,5.2,0.3,7.8l0,0l0,0c-0.5-0.8-1.6-1.4-1.6-1.4c-0.8-0.4-1.6-0.3-2.2-0.4
	c-0.7-0.1-1.9-0.4-2.4-0.7c-0.5-0.3-1.3-1.3-1.3-1.3h-0.1C42.6,147.3,42.6,145.8,42.6,144.3L42.6,144.3L42.6,144.3z M45.2,137.9
	L45.2,137.9C45.2,137.9,45.2,137.9,45.2,137.9L45.2,137.9z M46.2,152.3C46.2,152.3,46.2,152.3,46.2,152.3
	C46.2,152.3,46.2,152.3,46.2,152.3L46.2,152.3z M47.9,152.5C47.9,152.5,47.9,152.5,47.9,152.5C47.9,152.5,47.9,152.5,47.9,152.5
	L47.9,152.5z"/>
<path id="path6021" class="st1" d="M42.1,152.2c0.3,4.1,0.8,7.7,1.4,11.1l0,0.2l0.3,0.3c0.1,0.1,1.1,0.9,1.9,1.2
	c0.4,0.2,1,0.3,1.7,0.3l0.8,0.1l0.1,0l0.7,0c0.5,0,0.9-0.1,1.3,0.1c0.1,0,1,0.4,1.7,1l1.9,1.8l-0.6-2.5c-0.9-3.9-1.5-7.3-1.9-10.4
	l0-0.3l-0.2-0.1l-1.8-1.5l0,0c-0.7-0.3-1.3-0.4-1.9-0.4l-0.8-0.1c-0.6,0-1.5-0.2-2-0.4c-0.4-0.2-1-0.7-1.2-1l-1.5-1.7L42.1,152.2
	L42.1,152.2z"/>
<path id="path6023" class="st0" d="M41,147.7l0.3,4.5c0.3,4.2,0.8,7.8,1.4,11.1l0.1,0.5l0.4,0.3l0.1,0.1l0,0l0,0
	c0.2,0.2,1.1,0.9,2,1.3c0.6,0.3,1.2,0.3,1.9,0.4c0.3,0,0.5,0.1,0.7,0.1l0.1,0h0.1c0.3,0,0.5,0,0.7,0c0.2,0,0.4,0,0.5,0
	c0.2,0,0.3,0,0.4,0.1l0.1,0l0.1,0c0.2,0.1,0.9,0.4,1.4,0.8l3.7,3.6l-1.2-5.1c-0.9-3.9-1.5-7.2-1.9-10.3l-0.1-0.5l-0.4-0.4
	c-0.8-0.7-1.8-1.5-1.8-1.5l-0.1-0.1l-0.1,0c-0.8-0.4-1.6-0.4-2.1-0.5c-0.2,0-0.4,0-0.5,0l-0.1,0h-0.1c-0.1,0-0.2,0-0.3,0
	c0,0.1,0,0.1-0.1,0.2c-0.1,0.2-0.2,0.3-0.3,0.3c-0.3,0-0.6-0.7-1.2-0.9h0c-0.2-0.1-0.6-0.4-0.9-0.8L41,147.7L41,147.7L41,147.7z
	 M48.3,164.6c-0.7-0.1-1.8-0.1-2.3-0.4c-0.7-0.3-1.6-1-1.6-1l-0.1-0.1c-0.7-3.7-1.1-7.3-1.4-11l0,0l0,0c0,0,0.8,0.9,1.5,1.2
	c0.5,0.3,1.6,0.5,2.3,0.5c0.7,0.1,1.5,0,2.3,0.4c0,0,0.9,0.7,1.6,1.3c0.4,3.4,1.1,6.9,1.9,10.4l0,0l0,0c-0.8-0.8-1.9-1.2-1.9-1.2
	c-0.3-0.2-0.7-0.2-1-0.2C49.1,164.6,48.7,164.6,48.3,164.6L48.3,164.6L48.3,164.6z M45.1,151.9C45.1,151.9,45.1,151.9,45.1,151.9
	C45.1,151.9,45.1,151.9,45.1,151.9L45.1,151.9z"/>
<path id="path6027" class="st1" d="M44.2,166.5c0.8,3.6,1.7,7.1,2.8,10.8l0.1,0.2l0.3,0.3l0.1,0c0.1,0.1,1.2,0.7,2,0.9
	c0.6,0.1,1.7,0.1,2.6,0.1h0.1l0.3-0.1c0.5-0.1,1.1-0.3,1.7-0.1c0,0,1,0.2,1.6,0.8l2.1,1.7l-0.9-2.6c-1.2-3.3-2.3-6.7-3.2-10.1
	c0,0-0.6,0.1-1,0.1c0.4-0.2,0.8-0.4,0.8-0.4c-0.8-0.7-1.9-1.3-2-1.3l-0.1,0l-0.1,0c-0.8-0.2-1.4-0.1-1.9-0.1l-0.6,0
	c-0.7,0-1.8-0.1-2.3-0.2c-0.3-0.1-1-0.6-1.3-0.9l-1.7-1.4L44.2,166.5L44.2,166.5z"/>
<path id="path6029" class="st0" d="M42.5,162.3l1,4.4c0.8,3.6,1.7,7.1,2.9,10.8l0.1,0.4l0.3,0.3l0.1,0.1l0.1,0.1l0.1,0.1
	c0.3,0.2,1.3,0.8,2.2,1c0,0,0,0,0,0c0,0,0,0,0,0c0,0,0,0,0,0c0,0,0,0,0,0c0.7,0.1,1.6,0.2,2.7,0.2h0.2l0.2,0c0.1,0,0.1,0,0.2,0
	c0.3-0.1,0.6-0.1,0.9-0.1c0.2,0,0.3,0,0.4,0.1l0,0l0,0c0.2,0.1,0.9,0.3,1.3,0.6l4.2,3.4l-1.8-5.1c-1.2-3.3-2.3-6.7-3.2-10.1
	l-1.8,0.2c0.1,0.1,0.2,0.2,0.3,0.3v-0.1l0,0l0,0c0.9,3.4,2,6.8,3.2,10.2l0,0l0,0c-0.8-0.7-1.9-0.9-1.9-0.9c-0.3-0.1-0.6-0.1-0.8-0.1
	c-0.6,0-1.1,0.2-1.5,0.2c-0.8,0-1.9,0-2.4-0.1c-0.7-0.1-1.8-0.8-1.8-0.8l-0.1-0.1c-1.1-3.5-2-7.1-2.8-10.7l0,0l0,0
	c0,0,0.9,0.8,1.6,1c0.5,0.1,1.6,0.3,2.4,0.3c0.5,0,0.9-0.1,1.4-0.1c0.3,0,0.6,0,0.9,0.1c0,0,0.2,0.1,0.5,0.3
	c0.2-0.2,0.4-0.4,0.6-0.5c0.2-0.1,0.4-0.1,0.6-0.1c0.4,0,0.8,0.1,1.1,0.4c-0.8-0.8-2-1.4-2.2-1.5l-0.1-0.1l-0.1,0
	c-0.4-0.1-0.8-0.2-1.3-0.2c-0.4,0-0.7,0-1,0.1c-0.2,0-0.3,0-0.5,0c-0.6,0-1.5-0.1-2-0.2c-0.3-0.1-0.8-0.5-1.1-0.8L42.5,162.3
	L42.5,162.3L42.5,162.3z"/>
<path id="path6033" class="st1" d="M48.1,180.4c1.1,3.1,2.4,6.4,4.4,10.4l0.2,0.4c0,0,0.3,0,0.4,0c0.4,0.2,1.2,0.7,1.9,0.7
	c0.7,0.1,1.6-0.1,2.3-0.2l0.3-0.1c0,0,0.7-0.2,0.7-0.2c0.4-0.1,0.9-0.3,1.3-0.2c0,0,1,0.1,1.8,0.6l2.4,1.3l-1.3-2.4
	c-1.7-3-3.2-6.2-4.4-9.6c0,0-0.8,0.1-1.2,0.2c0.3-0.2,0.8-0.5,0.8-0.5c-1-0.6-2.2-0.8-2.2-0.9c-0.8-0.2-1.4-0.1-1.9,0l-0.6,0.1
	l-0.1,0c-0.6,0.1-1.7,0.1-2.2,0.1c-0.4-0.1-1-0.5-1.4-0.8l-2-1.4L48.1,180.4L48.1,180.4z"/>
<path id="path6035" class="st0" d="M45.8,176.1l1.6,4.6c1.1,3.1,2.5,6.5,4.4,10.5l0.4,0.9h0.7c0.5,0.3,1.3,0.6,2,0.7
	c0.2,0,0.4,0,0.6,0c0.7,0,1.4-0.1,2-0.3c0.1,0,0.2,0,0.3-0.1c0.3-0.1,0.5-0.1,0.8-0.2c0.3-0.1,0.6-0.2,0.8-0.2c0.1,0,0.1,0,0.2,0h0
	l0,0c0.2,0,0.9,0.2,1.5,0.5l4.7,2.6l-2.7-4.7c-1.7-2.9-3.1-6.1-4.4-9.5l-2,0.4c0.2,0.1,0.4,0.2,0.6,0.3v-0.1l0,0l0,0
	c1.2,3.3,2.7,6.5,4.5,9.7l0,0l0,0c-0.9-0.5-2-0.7-2-0.7c-0.1,0-0.3,0-0.4,0c-0.8,0-1.3,0.3-1.9,0.4c-0.6,0.1-1.4,0.3-2,0.3
	c-0.1,0-0.3,0-0.4,0c-0.7,0-1.8-0.7-1.8-0.7h-0.1c-1.6-3.4-3.1-6.8-4.3-10.3l0,0l0,0c0,0,1.1,0.8,1.8,0.9c0.5,0,1.8,0,2.4-0.1
	c0.5,0,1-0.2,1.6-0.2c0.2,0,0.4,0,0.7,0.1c0,0,0.3,0.1,0.6,0.2c0.1-0.3,0.3-0.6,0.6-0.7c0.2-0.1,0.5-0.2,0.8-0.2
	c0.3,0,0.5,0.1,0.7,0.2c-1-0.6-2.2-0.9-2.4-0.9c-0.3-0.1-0.7-0.1-1.1-0.1c-0.5,0-0.9,0.1-1.2,0.1c-0.2,0-0.3,0.1-0.4,0.1h-0.1
	l-0.1,0c-0.5,0.1-1.4,0.1-1.9,0.1c-0.2-0.1-0.7-0.4-1.1-0.6L45.8,176.1L45.8,176.1L45.8,176.1z M55.7,179.4
	C55.7,179.4,55.7,179.4,55.7,179.4C55.7,179.4,55.7,179.4,55.7,179.4L55.7,179.4z M55.7,179.4C55.7,179.4,55.7,179.4,55.7,179.4
	C55.7,179.4,55.7,179.4,55.7,179.4L55.7,179.4z M50.9,179.6C50.9,179.6,50.9,179.6,50.9,179.6L50.9,179.6L50.9,179.6L50.9,179.6z"/>
<path id="path6039" class="st1" d="M54,193.9c1.9,3.6,3.8,6.8,5.7,9.7l0.2,0.3c0,0,0.4,0,0.4,0c0.3,0.1,1.3,0.4,2,0.4L64,204
	l0.9-0.2l0.1,0l0.7-0.3c0.4-0.2,0.8-0.4,1.2-0.4c0,0,2,0.4,2,0.4l1.9,0.4l-1.1-1.5c-1.9-2.5-3.7-5.3-5.8-8.8l-0.1-0.2l-0.2-0.1
	c-1-0.4-2.2-0.6-2.2-0.6c-1-0.1-1.7,0.2-2.3,0.4c0,0-0.2,0.1-0.3,0.1c-0.1,0-0.3,0.1-0.3,0.1c-0.5,0.1-1.3,0.3-1.6,0.2l-0.1,0h-0.1
	c-0.4,0-1.1-0.3-1.6-0.5l-2-0.9L54,193.9L54,193.9z"/>
<path id="path6041" class="st0" d="M51.2,190.4l2.1,3.9c1.9,3.6,3.8,6.8,5.7,9.8l0.5,0.7h0.7c0.5,0.1,1.4,0.4,2.1,0.4
	c0.5,0,1.1-0.2,1.8-0.3c0.3-0.1,0.6-0.2,0.8-0.2l0.1,0l0.1-0.1c0.3-0.1,0.5-0.2,0.8-0.4c0.3-0.1,0.6-0.3,0.8-0.3
	c0.3,0,1.2,0.2,1.8,0.3l4.3,1.2l-2.7-3.6c-1.9-2.5-3.7-5.3-5.7-8.7l-0.3-0.4l-0.5-0.2c-1.1-0.5-2.3-0.6-2.4-0.6c0,0,0,0,0,0
	c-0.2,0-0.4,0-0.6,0c0,0,0,0,0,0c-0.9,0-1.6,0.3-2.2,0.5c-0.1,0-0.1,0.1-0.2,0.1c-0.1,0-0.1,0-0.2,0c0,0-0.1,0-0.2,0
	c0,0,0.1,0.1,0,0.3c0,0.2-0.1,0.3-0.2,0.3c-0.3,0-0.8-0.5-1.3-0.5h0c-0.2,0-0.8-0.2-1.3-0.4L51.2,190.4L51.2,190.4L51.2,190.4z
	 M56.9,194.1c0.6,0,1.4-0.2,1.9-0.3c0.6-0.2,1.2-0.5,1.9-0.5c0.1,0,0.2,0,0.4,0c0,0,1.1,0.1,2,0.5c1.8,3,3.7,6,5.8,8.9l0,0l0,0
	c-0.9-0.3-2.2-0.4-2.2-0.4c-0.8,0-1.5,0.5-2.2,0.8c-0.7,0.1-1.8,0.5-2.3,0.5c-0.7,0-1.9-0.4-1.9-0.4h-0.1c-2-3.1-3.9-6.4-5.7-9.7
	l0,0l0,0c0,0,1.2,0.5,1.9,0.5C56.7,194.1,56.8,194.1,56.9,194.1L56.9,194.1L56.9,194.1z M57.7,192.4c-0.3,0.1-0.6,0.1-0.8,0.1
	c0,0,0,0,0,0s0,0,0,0c0.1,0,0.2,0,0.2,0C57.3,192.6,57.5,192.5,57.7,192.4C57.7,192.5,57.7,192.4,57.7,192.4L57.7,192.4L57.7,192.4z
	"/>
<path id="path6045" class="st1" d="M70,204.2c-0.7-0.1-1.4-0.1-1.4-0.1c-0.8,0-1.4,0.3-1.9,0.6c0,0-0.5,0.2-0.5,0.3
	c-0.2,0.1-1.4,0.4-1.4,0.4s-0.6,0.2-0.7,0.2c-0.4,0-1.2-0.2-1.6-0.3l-2.2-0.7l1.4,1.9c2.4,3.3,4.7,6.3,6.9,8.9l0.2,0.3
	c0,0,0.4,0,0.4,0c0.3,0.1,1.4,0.3,2.1,0.1c0.7-0.2,1.8-0.6,2.5-1c0,0,0.5-0.3,0.5-0.3c0.4-0.2,0.7-0.5,1.2-0.5c0,0,1.1-0.1,1.8,0.1
	l2.6,0.7l-1.8-2c-2.4-2.6-4.7-5.3-6.8-8.2l-1.4-1.8C70,202.7,70,203.5,70,204.2L70,204.2z"/>
<path id="path6047" class="st0" d="M69.2,200.4v2.9c-0.3,0-0.6,0-0.6,0c-1,0-1.8,0.4-2.3,0.7c-0.1,0.1-0.2,0.1-0.3,0.2
	c-0.4,0.1-1,0.3-1.4,0.4c-0.2,0.1-0.4,0.1-0.6,0.2c-0.3,0-0.9-0.2-1.3-0.3l-4.4-1.4l2.7,3.8c2.4,3.4,4.7,6.3,7,9l0.5,0.5h0.7
	c0.3,0.1,1,0.2,1.6,0.2c0.3,0,0.5,0,0.7-0.1l0,0l0,0c0.7-0.2,1.9-0.6,2.7-1c0.2-0.1,0.4-0.2,0.6-0.3c0.3-0.2,0.6-0.4,0.9-0.4
	c0.1,0,0.3,0,0.5,0c0.4,0,0.8,0,1.1,0.1l5.2,1.4l-3.7-4c-2.4-2.5-4.6-5.3-6.8-8.1L69.2,200.4L69.2,200.4L69.2,200.4z M64.1,206.3
	c0.6-0.1,1.6-0.5,2.3-0.6c0.7-0.3,1.2-0.8,2.2-0.8c0,0,0.3,0,0.6,0l0,0c0,0,0,0,0,0l0,0c0.4,0,1,0.1,1.5,0.2V205l0,0l0,0
	c2.2,2.9,4.5,5.6,6.9,8.2l0,0l0,0c-0.5-0.1-1-0.2-1.5-0.2c-0.4,0-0.7,0-0.7,0c-0.9,0.1-1.5,0.7-2,0.9c-0.7,0.4-1.8,0.8-2.3,0.9
	c-0.1,0-0.3,0-0.5,0c-0.7,0-1.4-0.2-1.4-0.2l0,0l-0.1,0l0,0c-2.4-2.9-4.7-5.9-6.9-8.9l0,0l0,0C62.2,205.9,63.4,206.3,64.1,206.3
	L64.1,206.3L64.1,206.3z M74.2,215.4C74.2,215.3,74.2,215.3,74.2,215.4C74.2,215.3,74.2,215.3,74.2,215.4L74.2,215.4z"/>
<path id="path6051" class="st1" d="M104.8,277.1c-1.9,1.2-3,2.1-3.1,2.2l-0.6,0.5l7,7.8l3.4-4.9l-6.2-6L104.8,277.1L104.8,277.1z"/>
<path id="path6053" class="st0" d="M105.4,275.8l-1,0.6c-2,1.2-3.1,2.2-3.2,2.2l-1.2,1l1,1.2l5.8,6.5l1.3,1.5l1.1-1.6l2.4-3.5
	l0.7-1.1l-0.9-0.9l-5.3-5.1L105.4,275.8L105.4,275.8L105.4,275.8z M102.2,279.8c0,0,1.1-0.9,3-2.1l5.3,5.1l0,0l0,0l-2.4,3.5
	L102.2,279.8L102.2,279.8L102.2,279.8z"/>
<path id="path6057" class="st1" d="M108,273.8l-0.7,0.6l6.9,6l4.9-4.6l-0.4-0.6c-0.1-0.1-2.2-2.8-5.4-3.1
	C111.4,271.9,109.7,272.4,108,273.8z"/>
<path id="path6059" class="st0" d="M112.5,271.3c-1.7,0-3.4,0.6-5,1.9l-1.4,1.1l1.4,1.2l5.7,5l1,0.9l1-0.9l3.9-3.7l1-1l-0.9-1.1
	C119.1,274.6,116.5,271.3,112.5,271.3L112.5,271.3L112.5,271.3z M108.4,274.4c1.5-1.2,2.8-1.6,4.1-1.6c3.3,0,5.5,2.9,5.5,2.9l0,0
	l0,0l-3.9,3.7L108.4,274.4L108.4,274.4L108.4,274.4z"/>
<polygon id="polygon6063" class="st1" points="200.5,278.9 194.5,284.3 197.6,289.3 205,281.6 201,278.4 "/>
<path id="path6065" class="st0" d="M200.9,277.5l-0.9,0.8l-5.5,5l-1,0.9l0.7,1.1l2.3,3.7l1.1,1.7l1.4-1.4l6.1-6.4l1.1-1.2l-1.2-1.1
	c0,0-1.1-1-2.9-2.3L200.9,277.5L200.9,277.5z M195.5,284.4l5.5-5c1.8,1.3,2.8,2.2,2.8,2.2l0,0l0,0l-6.1,6.4L195.5,284.4L195.5,284.4
	L195.5,284.4L195.5,284.4z"/>
<path id="path6069" class="st1" d="M193.2,273.5c-3.1,0.2-5.2,2.7-5.5,2.9l-0.4,0.5l0.5,0.5l4.1,4.3l7.2-5.7l-0.7-0.6
	C196.8,274,195,273.4,193.2,273.5L193.2,273.5z"/>
<path id="path6071" class="st0" d="M193.7,272.7c-3.8,0-6.4,3.1-6.5,3.2l-0.9,1.1l1,1l3.7,3.8l1,1l1.1-0.9l5.9-4.7l1.4-1.1l-1.4-1.2
	C197.3,273.5,195.5,272.7,193.7,272.7L193.7,272.7z M188.3,277c0,0,2.2-2.7,5.4-2.7c1.3,0,2.7,0.5,4.3,1.8l0,0l0,0l-5.9,4.7
	L188.3,277L188.3,277L188.3,277L188.3,277z"/>
<path id="path6075" class="st1" d="M176.9,266.2l-0.5,0.7l0.8,0.4c4,1.9,7.2,6.2,7.3,6.3c0,0,0.9,1.5,0.9,1.5s0.1,0.1,0.1,0.2
	c0,0,0,0,0,0s0,0,0.1,0.1c0.2,0.2,0.4,0.6,0.4,0.6l0.7-0.7c0.2-0.2,4.9-5,8.2-2l1.1-1c-1.5-2-3.1-3.9-4-4.9
	c-0.4-0.4-1.7-1.6-3.5-2.9C181,260.6,176.9,266.2,176.9,266.2L176.9,266.2z"/>
<path id="path6077" class="st0" d="M183.4,262.3c-4.6,0-7,3.3-7.1,3.4l-1.1,1.5l1.7,0.8c3.6,1.7,6.6,5.6,7,6l0.9,1.5l1,1.6l1.4-1.4
	c1-1,3.3-2.8,5.2-2.8c0.7,0,1.4,0.3,2,0.8l2.2-2.1c-1.5-2-3.1-3.9-4-4.9l0,0l0,0c-0.4-0.3-1.7-1.6-3.6-2.9l-0.1-0.1l-0.1,0
	C186.9,262.8,185.1,262.3,183.4,262.3L183.4,262.3L183.4,262.3z M177.5,266.6c0,0,2-2.8,5.9-2.8c1.3,0,2.9,0.3,4.7,1.2
	c1.5,1,2.7,2.1,3.4,2.7c0.8,0.9,2.3,2.7,3.9,4.8l0,0l0,0c-0.9-0.8-2-1.2-3-1.2c-3,0-6,2.9-6.3,3.2l0.1,0.2l-0.1-0.1c0,0,0,0,0,0
	l-1-1.5C185.1,273.2,181.7,268.6,177.5,266.6L177.5,266.6L177.5,266.6L177.5,266.6z M185.2,273.4l-0.2,0.2c-0.1,0.1-0.1,0.1-0.1,0.1
	l-1,1.1l1.1,1l0.1,0.1l2.3-1.9l-0.1-0.2l-0.1-0.2c-0.6,0.5-1,0.9-1.2,1l0.1,0.2l0,0l0,0l-0.1-0.1l0,0l0,0c0,0,0,0,0,0L185.2,273.4
	L185.2,273.4L185.2,273.4z"/>
<path id="path6081" class="st1" d="M191.9,250.1l-8.9,4l0.3,0.8c0.2,0.6,0.9,2.3-0.9,4.3l-0.7,0.8l1,0.4c3.1,1.3,6.8,3,7.2,3.4
	c-0.1-0.1-0.2-0.5,0-0.8l1.2,1c4.1-4.6,2.7-10,1.9-12.9l-0.3-1.3L191.9,250.1L191.9,250.1z"/>
<path id="path6083" class="st0" d="M193.3,248.7l-1.7,0.7l-8.2,3.7l-1.3,0.6l0.5,1.3c0,0.1,0.1,0.1,0.1,0.2c0.2,0.5,0.7,1.8-0.7,3.5
	l-1.4,1.6l2,0.8c2.9,1.2,6.5,2.8,7,3.3c-0.4-0.3-0.6-1.2-0.1-1.8c-2.2-1.1-6.4-2.9-6.4-2.9l0,0l0,0c1.1-1.2,1.4-2.4,1.4-3.3
	c0-1-0.4-1.7-0.4-1.9l0,0l0,0l8.2-3.7c0.3,1.3,1,3.4,1,5.7c0,2.2-0.6,4.7-2.6,7l0,0l0,0c0,0,0,0,0,0c0-0.2-0.4-0.4-1.1-0.8l2.2,1.9
	c4.4-4.9,2.8-10.8,2.1-13.6c0-0.2-0.1-0.3-0.1-0.4L193.3,248.7L193.3,248.7L193.3,248.7z"/>
<path id="path6087" class="st1" d="M141.5,267c-0.6,0-1.5,0.1-1.5,0.1c-1.3,0-2.7-0.3-3.8-0.7l-0.8-0.3l-0.3,0.8
	c-0.7,2.3-6.3,2.3-8.3,2.1l-2.3-0.2l1.7,1.5c3.1,2.8,7,4.8,11.1,5.4l0.9,0.1c0,0,0-0.2,0-0.5c1.3-0.5,4.4-2.3,4.6-7.6l0-0.8
	c0,0-0.2,0-0.4,0c-0.1-0.1-1-0.9-1-0.9S141.6,266.5,141.5,267L141.5,267z"/>
<path id="path6089" class="st0" d="M135.1,265l-0.5,1.6c-0.3,0.8-2.1,1.6-5.7,1.6c-1,0-1.8-0.1-1.8-0.1l-4.5-0.4l3.4,3.1
	c3.2,2.9,7.3,4.9,11.5,5.6l1.8,0.3v-0.9c0.5-0.2,1.1-0.6,1.7-1.1c1.2-1.1,2.8-3.2,2.9-6.9l0.1-1.8l-1.8,0.3
	c-0.6,0.1-1.2,0.1-1.9,0.1c-1.2,0-2.5-0.2-3.5-0.7L135.1,265L135.1,265L135.1,265z M128.9,269.7c2.4,0,6.4-0.4,7.1-2.7
	c1.2,0.5,2.7,0.8,4.1,0.8c0.8,0,1.4,0,2.2-0.1l0,0l0,0c-0.2,6.1-4.6,7-4.6,7v0.1l0,0l0,0c-4.1-0.6-7.8-2.6-10.7-5.2l0,0l0,0
	C127,269.7,127.7,269.7,128.9,269.7L128.9,269.7z M142.2,267.7c0,0,0-0.1,0-0.1l0.1,0.1C142.3,267.7,142.3,267.7,142.2,267.7
	L142.2,267.7L142.2,267.7z M140.8,264.3l-0.1,3.2l0,0.1l0,0.1l0,0.2c0.5,0,1,0,1.5-0.1c0,0.6-0.1,1.1-0.2,1.6l0.4-0.1
	c0.1,0,0.1,0,0.2,0l3.1-0.6l-2.4-2.1l-0.1-0.1L140.8,264.3L140.8,264.3L140.8,264.3z M142.2,267.7c0,0,0-0.1,0-0.1l0.1,0.1l0,0l0,0
	C142.3,267.7,142.3,267.7,142.2,267.7L142.2,267.7L142.2,267.7L142.2,267.7L142.2,267.7z"/>
<path id="path6093" class="st1" d="M160.6,260.2l-0.6,0.9l1.1,0.2c0,0,5,1,8,4c0.3,0.3,0.7,0.3,1.5,0.4c0.7,0,2,0.1,3.8,0.5
	l-0.2-0.1c0.4,0.2,0.7,0,1.1-0.3c4.4-3.5,6.8-3.6,7.9-3.1l0.8-1.3l-0.8-0.7c-3.2-2.4-7.2-3.8-11.3-3.9
	C169.6,256.9,162.4,257.5,160.6,260.2L160.6,260.2z"/>
<path id="path6095" class="st0" d="M172,256.1L172,256.1L172,256.1c-2.7,0-10.1,0.7-12,3.7l-1.2,1.9l2.2,0.5c0,0,4.8,1,7.6,3.8
	c0,0,0,0,0,0c0.5,0.5,1.2,0.6,2,0.6c0.8,0,1.9,0.1,3.7,0.5l0.1,0l0.2,0c0.5,0,0.9-0.2,1.3-0.6c0.4-0.3,1.2-0.9,2.1-1.5
	c1.7-1.1,3.1-1.6,4.2-1.6c0.3,0,0.6,0.1,0.9,0.2l1.6-2.6l-0.8-0.7l0,0l0,0C180.4,257.7,176.2,256.3,172,256.1L172,256.1L172,256.1z
	 M161.3,260.6c1.3-2.1,7.3-3,10.7-3c3.8,0.1,7.7,1.4,10.8,3.8l0.8,0.7l0,0l0,0c-0.5-0.2-1-0.3-1.5-0.3c-1.7,0-3.5,0.9-5,1.9
	c-1.5,0.9-2.5,1.8-2.6,1.8c0,0,0,0,0,0c-2.9-0.6-4.3-0.4-4.7-0.6c-0.1,0-0.1,0-0.1-0.1C166.4,261.7,161.3,260.6,161.3,260.6
	L161.3,260.6L161.3,260.6L161.3,260.6z"/>
<path id="path6099" class="st1" d="M118.6,263.1c0,0-0.1,0-0.2,0.1c0,0,0-0.1,0-0.1l-0.5,0.3c0,0,0,0,0,0.1
	c-1.3,0.7-2.4,1.5-3.2,2.5c-0.7,0.6-1.7,1.8-2.9,3.3l-1.2,1.4l1.1,1.1c2.8-2.3,6.2,0.5,7.5,1.8c-0.4,0.4-1,0.9-1,0.9s1.5,0,1.8,0
	c0.1,0.1,0.2,0.2,0.2,0.2l2.1-1.9c0,0,0.9-0.9,2.5-1.9l1.1-0.7l-1.1-0.6c-3-1.6-4.1-6.2-4.1-6.3l-0.2-0.9L118.6,263.1L118.6,263.1z"
	/>
<path id="path6101" class="st0" d="M121,261.2l-1.7,0.9c-0.2,0.1-0.5,0.2-0.8,0.3c-0.2,0.1-0.5,0.2-0.7,0.3l-0.1,0l-0.1,0
	c-1.3,0.7-2.4,1.6-3.4,2.6c-0.8,0.7-1.8,2-3,3.4c-0.4,0.5-0.8,1-1.2,1.4l2.2,2.2c0.6-0.5,1.2-0.7,1.8-0.7c1.9,0,4.2,1.9,5.2,3l1,1.1
	l1.1-1l1.5-1.4l0,0l0,0c0,0,0.9-0.8,2.3-1.8l2.2-1.4l-2.3-1.2c-2.7-1.5-3.7-5.7-3.7-5.8L121,261.2L121,261.2L121,261.2z M118.3,264
	c0.6-0.2,1.2-0.4,1.7-0.6c0,0,1.1,5,4.5,6.8l0,0l0,0c-1.6,1-2.6,2-2.6,2l-1.5,1.4c0,0,0.1,0.1,0.1,0.1h-0.1l0.1-0.1
	c-0.4-0.5-3.3-3.5-6.3-3.5c-0.9,0-1.9,0.3-2.8,1.1l0,0l0,0c1.6-2,3.1-3.9,4.1-4.7C115.9,265.6,116.9,264.7,118.3,264
	C118.2,264,118.2,264,118.3,264l0.3-0.2C118.5,263.9,118.4,264,118.3,264L118.3,264L118.3,264z M118.6,263.9c0.1,0,0.1-0.1,0.2-0.1
	L118.6,263.9L118.6,263.9z M118,262.4L118,262.4c-0.1,0-0.1,0.1-0.2,0.1l0.7,1.4l0,0c0,0,0,0,0,0l0,0c0.1,0,0.1,0,0.2-0.1L118,262.4
	L118,262.4L118,262.4z M118.6,263.9c0.1,0,0.1-0.1,0.2-0.1l0,0l0,0L118.6,263.9L118.6,263.9L118.6,263.9L118.6,263.9z M117.9,262.5
	l-0.4,0.2l0.6,1.4c0,0,0.1,0,0.1-0.1c0.1,0,0.2-0.1,0.3-0.1l0,0l0,0c0,0,0,0,0,0L117.9,262.5L117.9,262.5L117.9,262.5z M118.2,264
	l0.4-0.2l0,0l0,0C118.5,263.9,118.4,264,118.2,264C118.2,264,118.2,264,118.2,264L118.2,264L118.2,264L118.2,264L118.2,264z
	 M119.2,272.4l-3,2.7h4h0.1h3.5l-2.4-2.6l0,0l-1.1,1c0,0,0.1,0.1,0.1,0.1l0,0l0,0h-0.1l0,0l0,0l0.1-0.1
	C120.1,273.3,119.7,272.9,119.2,272.4L119.2,272.4L119.2,272.4z"/>
<path id="path6105" class="st1" d="M152.6,259.6l-8.3,5.6l9.9,3.2c1.5,0.4,2.2,0.9,3.3,1.8l3.2,2.2l0.4-0.3c1.4-0.8,5.9-3.5,6.1-5.6
	c0-0.6-0.2-1.1-0.7-1.4c-4-3.2-8-4.2-11.2-5.1l-2.4-0.6L152.6,259.6L152.6,259.6z"/>
<path id="path6107" class="st0" d="M152.8,258.6l-0.6,0.4l-7,4.7l-2.6,1.8l3,1l8.4,2.7l0,0l0,0c1.3,0.3,1.9,0.8,3,1.6
	c0.7,0.5,1.6,1.2,2.9,2l0.8,0.5l0.8-0.4c0.1,0,1.5-0.8,2.9-1.9c2.4-1.7,3.4-3,3.5-4.3c0-0.8-0.3-1.6-1-2.1
	c-4.1-3.3-8.2-4.3-11.5-5.2c-0.7-0.2-1.4-0.4-2-0.5L152.8,258.6L152.8,258.6L152.8,258.6z M146,265l7-4.7c3.5,1,8.2,1.7,13,5.5
	c0.3,0.2,0.4,0.4,0.4,0.7c0,1.9-5.7,5.1-5.7,5.1c-3.2-2-3.8-3.1-6.3-3.8L146,265L146,265L146,265L146,265z"/>
<path id="path6111" class="st1" d="M168.5,267.2c0.1,0.8-2.5,3.2-5.5,5.3l-1,0.7l1.1,0.6c4.1,2.4,7.5,2.6,10.2,2.5
	c0.2,0,4.9-0.3,7.8-3.1l0.7-0.7l-0.9-0.5c-2.6-1.5-4-4.8-4-4.9l-0.4-0.9l-0.8,0.6c-0.2,0.2-1.3,0.5-6.2-0.4l-1.2-0.2L168.5,267.2
	L168.5,267.2z"/>
<path id="path6113" class="st0" d="M176.8,264.9l-1.5,1.1c-0.1,0-0.3,0.1-1,0.1c-1.5,0-3.6-0.4-4.7-0.5l-0.2,0l-2.1-0.4l0.3,2
	c-0.1,0.2-0.5,1-2.5,2.7c-1.3,1.1-2.6,1.9-2.6,1.9l-2.1,1.4l2.2,1.2c3.1,1.8,6,2.6,9.4,2.6c0.4,0,0.8,0,1.1,0l0,0h0
	c0.2,0,5.2-0.3,8.3-3.3l1.4-1.4l-1.7-1c-2.4-1.4-3.7-4.5-3.7-4.5L176.8,264.9L176.8,264.9L176.8,264.9z M175.3,266
	C175.3,266,175.3,266,175.3,266C175.3,266,175.3,266,175.3,266L175.3,266z M169.3,267.2c0,0,0-0.1,0-0.1l0,0l0,0
	c1,0.2,3.4,0.6,5.1,0.6c0.8,0,1.5-0.1,1.8-0.3c0,0,1.5,3.5,4.3,5.2l0,0l0,0c-2.7,2.6-7.3,2.9-7.3,2.9c-0.4,0-0.7,0-1.1,0
	c-2.7,0-5.4-0.5-8.7-2.4l0,0l0,0C163.4,273,169.2,269.2,169.3,267.2L169.3,267.2L169.3,267.2z"/>
<path id="path6117" class="st1" d="M144.1,267.5c1.9,4.2-2.1,7.2-2.3,7.3l-1.3,1l1.6,0.4c6.7,1.6,13.9-4.9,14.2-5.1l0.6-0.6
	l-0.7-0.6c-0.2-0.2-1.5-1.1-7.8-2.6l-5-1.1L144.1,267.5z"/>
<path id="path6119" class="st0" d="M143.7,266.1l-0.1,0.1l1.4,1.4c-0.1-0.1-0.1-0.3-0.2-0.5l0,0l0,0l-0.1,0.1l0.1-0.1L143.7,266.1
	L143.7,266.1z M142.1,265l1.2,2.8c0.7,1.5,0.6,2.9-0.3,4.4c-0.7,1.2-1.7,1.9-1.7,1.9l-2.6,1.9l3.2,0.8c0.8,0.2,1.6,0.3,2.4,0.3
	c6.3,0,12.2-5.4,12.5-5.6l1.3-1.2l-1.3-1.1c-0.4-0.3-2-1.3-8.1-2.8l0,0l0,0l-3.5-0.8L142.1,265L142.1,265L142.1,265z M145.4,269.7
	c0-0.8-0.2-1.6-0.6-2.6l0,0l0,0l3.5,0.8c6.4,1.6,7.4,2.5,7.4,2.5l0,0l0,0c0,0-5.7,5.2-11.5,5.2c-0.7,0-1.4-0.1-2.1-0.2l0,0l0,0
	C142.2,275.4,145.3,273.2,145.4,269.7L145.4,269.7L145.4,269.7z"/>
<path id="path6123" class="st1" d="M191.3,240.2c-2.3,0.8-8.1,2.8-11.9,4.7c0,0-1.7,0.9-1.7,0.9l-0.1,0.2c-0.4,0.8-0.6,1.6-0.6,2.4
	l-0.1,2.4c0,1.1-1,2.7-1.3,3.2l-1.1,1.5l1.8-0.3c4-0.7,9-2.9,12-4.7l2.2-1l0.5-1.8c0,0.1,0-0.1,0-0.1c0.1-0.4,0.3-1,0.3-1.6
	c0-0.1,0-0.3,0-0.4c0,0-0.2-1-0.2-1c-0.1-0.2-0.1-0.4-0.1-0.5c0-0.1,0-0.1,0-0.2c0.2-0.5,0.7-1.9,1.2-2.5l1.8-2.1L191.3,240.2z
	 M179.4,244.9C179.4,244.9,179.4,244.9,179.4,244.9L179.4,244.9z M191.2,245.5C191.2,245.5,191.2,245.5,191.2,245.5
	C191.2,245.5,191.2,245.5,191.2,245.5z"/>
<path id="path6125" class="st0" d="M196.3,237.7l-5.2,1.7c-2.3,0.8-8.1,2.8-12,4.8c-0.8,0.4-1.5,0.8-1.6,0.8l-0.4,0.2l-0.2,0.4
	c-0.5,0.9-0.7,1.8-0.7,2.8c0,0.3,0,0.7-0.1,1.1c0,0.4-0.1,0.9-0.1,1.3c0,0.7-0.7,2.1-1.2,2.8l-2.1,3l3.6-0.6
	c4.1-0.7,9.1-2.9,12.2-4.7l1.8-0.9l0.6-0.3l0.2-0.6c0,0,0.3-0.8,0.4-1.6c0,0,0-0.1,0-0.1c0.2-0.6,0.4-1.5,0.3-2.4
	c0-0.4-0.2-0.8-0.2-1.1c0-0.1-0.1-0.2-0.1-0.3c0.3-0.8,0.8-1.9,1.1-2.2L196.3,237.7L196.3,237.7L196.3,237.7z M176.1,254.5
	c0,0,1.5-2.1,1.5-3.7c0-0.6,0.1-1.7,0.1-2.4c0-0.7,0.1-1.3,0.5-2.1c0,0,0.7-0.4,1.5-0.8c3.2-1.7,8.2-3.5,11.8-4.7l0,0l0,0
	c-0.7,0.8-1.4,2.7-1.4,2.7c-0.1,0.2-0.1,0.3-0.1,0.4c0,0.6,0.3,1,0.3,1.5c0,0.1,0,0.3,0,0.4c0,0.6-0.2,1.1-0.3,1.6
	c-0.1,0.7-0.4,1.4-0.4,1.4l-1.9,0.9C184.8,251.8,179.9,253.8,176.1,254.5L176.1,254.5L176.1,254.5L176.1,254.5L176.1,254.5z
	 M191.6,244.2C191.6,244.2,191.6,244.2,191.6,244.2C191.6,244.2,191.6,244.2,191.6,244.2L191.6,244.2z M192,245.3
	C192,245.3,192,245.3,192,245.3C192,245.3,192,245.3,192,245.3L192,245.3z M192,245.6C192,245.6,192,245.6,192,245.6
	C192,245.6,192,245.6,192,245.6L192,245.6z M191.7,247.9C191.7,247.9,191.7,247.9,191.7,247.9C191.7,247.9,191.7,247.9,191.7,247.9
	L191.7,247.9z"/>
<path id="path6129" class="st1" d="M175.2,236L175.2,236c-2.3,0.1-9.7,2.6-11,4.4l-0.4,0.5l5.4,6.9l0.6-0.5c3-2.4,5.5-3.3,7.4-2.9
	l0.2,0.1l0.2-0.1c7.1-2.9,8.5-3.2,8.5-3.2l1.2-0.3l-0.8-1C183.7,236.4,180.5,235.8,175.2,236L175.2,236z"/>
<path id="path6131" class="st0" d="M176.5,235.2c-0.4,0-0.8,0-1.3,0l0,0l0,0c-1.5,0.1-4.2,0.9-6.1,1.6c-2.9,1.1-4.7,2.1-5.4,3
	l-0.7,0.9l0.7,0.9l4.6,5.9l1,1.2l1.2-1c2.3-1.8,4.3-2.8,5.9-2.8c0.3,0,0.6,0,0.9,0.1l0.5,0.1l0.5-0.2c6.7-2.7,8.2-3.1,8.4-3.2
	l2.4-0.6l-1.6-1.9C184.3,235.9,181,235.2,176.5,235.2L176.5,235.2L176.5,235.2z M164.8,240.8c1.1-1.4,8.1-3.9,10.4-4.1
	c0.4,0,0.9,0,1.3,0c4.4,0,7.1,0.7,9.7,3.7l0,0l0,0c0,0-1.2,0.3-8.6,3.3c-0.4-0.1-0.8-0.1-1.2-0.1c-1.9,0-4.2,1-6.9,3.1L164.8,240.8
	L164.8,240.8L164.8,240.8L164.8,240.8z M186.5,241.9C186.5,241.9,186.5,241.9,186.5,241.9C186.5,241.9,186.5,241.9,186.5,241.9
	C186.5,241.9,186.5,241.9,186.5,241.9L186.5,241.9L186.5,241.9z"/>
<path id="path6135" class="st1" d="M164.8,239.8c-0.4,0.4-0.6,1-0.5,1.6c0.2,2.4,4.2,5.5,4.7,5.9l1.1-1l-4.6-7.3L164.8,239.8
	L164.8,239.8z"/>
<path id="path6137" class="st0" d="M165.5,237.7l-1.3,1.5c-0.5,0.6-0.8,1.4-0.7,2.2c0.1,1.3,1,2.7,2.7,4.4c1.1,1.1,2.2,2,2.3,2
	l2.2-2l-4.1-6.4L165.5,237.7L165.5,237.7L165.5,237.7z M165,241.2c0-0.3,0.1-0.6,0.3-0.9l4.1,6.4l0,0l0,0
	C169.4,246.7,165,243.3,165,241.2L165,241.2z"/>
<path id="path6141" class="st1" d="M121.7,249.8c-0.9,2.1-1.3,4.1-1.3,6.4c0,4,1.1,7.7,3.2,10.9l0.2,0.3c0,0,0.4,0,0.5,0
	c0.4,0.1,4.2,0.8,7,0c0.9-0.3,1.6-0.8,2-1.1c0.3,0,2.2,0,2.2,0l-1.9-1.4c-2.7-2-4.3-5.2-4.3-8.5v-0.7l-0.7-0.1
	c-4.5-0.6-5.5-5.4-5.6-5.7l-0.5-2.5L121.7,249.8L121.7,249.8z"/>
<path id="path6143" class="st0" d="M122.9,244.8l-2,4.7c-0.9,2.2-1.3,4.3-1.3,6.7c0,4.1,1.2,8,3.4,11.3l0.5,0.7h0.8
	c0.5,0.1,2.1,0.3,3.9,0.3c1.3,0,2.5-0.1,3.4-0.4l0,0l0,0c0.8-0.3,1.5-0.7,2-1.1h4.3l-3.8-2.8c-2.5-1.8-4-4.8-4-7.9V255l-1.3-0.2
	c-4-0.5-4.9-5-4.9-5L122.9,244.8L122.9,244.8L122.9,244.8z M121.1,256.2c0-2.2,0.4-4.2,1.2-6.1c0,0,1.1,5.6,6.2,6.3
	c0,3.7,1.8,7.1,4.6,9.1l0,0l0,0H133c-0.3,0.3-1.1,0.9-1.9,1.2c-0.9,0.3-2,0.3-3,0.3c-2,0-3.7-0.3-3.7-0.3h-0.1
	C122.2,263.6,121.1,260,121.1,256.2L121.1,256.2L121.1,256.2L121.1,256.2z"/>
<path id="path6147" class="st1" d="M135.4,237.7c-4.9,1.3-9.5,4.7-12.2,9l-0.2,0.3l0.1,0.3c0.1,0.3,1.4,6.4,6,6.7l0.6,0l0.2-0.6
	c0.7-2.1,3.6-4.8,6-6.4l0.1-0.1l1.1-1.3l0-0.3c-0.6-4.4,1.4-6.9,1.5-7l1.4-1.7L135.4,237.7L135.4,237.7z"/>
<path id="path6149" class="st0" d="M141.9,235.5l-4.3,1l-2.3,0.5l0,0l0,0c-5.1,1.4-9.8,4.8-12.7,9.3l-0.3,0.5l0.1,0.6
	c0.1,0.3,1.5,7,6.7,7.4l1.2,0.1l0.4-1.1c0.6-1.8,3.4-4.4,5.7-6l0.2-0.1l0.1-0.2l0.8-0.9l0.5-0.5l-0.1-0.7c-0.6-4,1.2-6.3,1.3-6.4
	l0,0L141.9,235.5L141.9,235.5L141.9,235.5z M123.8,247.1c2.6-4,6.9-7.3,11.8-8.6l2.3-0.5l0,0l0,0c0,0-1.7,2.1-1.7,5.8
	c0,0.6,0,1.1,0.1,1.8l0,0l0,0l-0.8,0.9c-2.2,1.4-5.5,4.3-6.4,6.8C125.1,252.9,123.8,247.1,123.8,247.1L123.8,247.1L123.8,247.1z"/>
<path id="path6153" class="st1" d="M145.1,237.2L145.1,237.2l-0.7,0c-0.7,0-1.9,0-2.6,0.9c-0.7,0.9-4.4,5.4-2.2,7.5l0.4,0.3l0.5-0.2
	c0.8-0.3,1.9-0.2,2.9-0.1l1.4,0.1c1.4,0,3.6,0.2,4.9,0.7l1.3,0.5l0.2,0c0.1,0,2.7-0.3,4.5-1.9l2.5-1.7l-0.3-0.6
	C156.4,239.5,149.8,236.6,145.1,237.2L145.1,237.2z"/>
<path id="path6155" class="st0" d="M146.3,236.3c-0.4,0-0.9,0-1.3,0.1l0,0l0,0c0,0-0.1,0-0.2,0c-0.1,0-0.2,0-0.3,0h0h0
	c-0.1,0-0.2,0-0.3,0c-0.5,0-1.9,0-2.8,1.2c-0.1,0.2-1.1,1.4-2,2.8c-0.5,1-0.9,1.8-1,2.6c-0.3,1.6,0.3,2.6,0.8,3.1l0.7,0.7l0.9-0.4
	c0.3-0.1,0.7-0.2,1.2-0.2c0.4,0,0.9,0,1.3,0.1c0.5,0,1,0.1,1.5,0.1c1.7,0,3.5,0.3,4.6,0.7l0,0l0,0l1.1,0.4l0.3,0.1l0.4,0
	c0.3,0,2.9-0.4,4.8-2l2-1.4l1-0.7l-0.5-1.1c-0.9-2.1-3.5-3.6-4.9-4.3C151.2,237,148.6,236.3,146.3,236.3L146.3,236.3L146.3,236.3z
	 M144.7,238c0.2,0,0.3,0,0.5,0c0.4,0,0.7-0.1,1.1-0.1c4.3,0,9.7,2.6,10.8,5.2l0,0l0,0l-2,1.4c-1.6,1.4-4.1,1.7-4.1,1.7l-1.1-0.4
	c-1.4-0.5-3.5-0.8-5.1-0.8c-0.9,0-1.9-0.1-2.8-0.1c-0.6,0-1.2,0.1-1.8,0.3c-0.3-0.3-0.4-0.7-0.4-1.2c0-2.1,2.7-5.4,2.7-5.4
	c0.4-0.6,1-0.6,1.6-0.6c0.1,0,0.2,0,0.3,0C144.5,237.9,144.6,238,144.7,238L144.7,238L144.7,238z"/>
<path id="path6159" class="st1" d="M175,246.9c-0.6,0.3-3.1,1.1-4.7,1.6c0,0-2,0.4-2,0.4l-0.1,0.1l-1.5,1.3c-0.3,0.2-1.1,0.8-2,1.7
	c-0.1,0.1-0.6,0.3-0.6,0.3c-1.4,0.8-2,1.2-2.2,1.4l-0.3,0.3l0,0.5c0.3,1.3,6.1,2,11.3,1.3l0.7-0.1c0,0,0-0.3,0-0.5
	c0.3-0.3,0.9-0.9,1.1-1.4l0-0.1l0.2-0.8c0.3-0.8,0.5-1.5,0.5-2l0,0.1l0.1-0.4l0.2-1.7c0,0,0-0.6,0.3-1.2l1-2L175,246.9L175,246.9z"
	/>
<path id="path6161" class="st0" d="M178.8,244.2l-4.1,2c-0.5,0.2-3,1.1-4.6,1.6c-1,0.2-1.7,0.4-1.7,0.4l-0.4,0.1l-0.3,0.2
	c-0.6,0.4-1.1,0.9-1.5,1.3c-0.5,0.4-1.3,1-2,1.7c-0.1,0.1-0.3,0.2-0.5,0.3c-1.3,0.8-1.9,1.1-2.2,1.4c-0.5,0.4-0.8,1-0.7,1.6
	c0.2,1.1,1.2,1.5,2.9,1.8c1,0.2,2.5,0.4,4.8,0.4c1.5,0,3-0.1,4.6-0.3l1.3-0.2v-0.8c0.4-0.4,0.8-0.9,1-1.3l0.1-0.2l0-0.2
	c0-0.1,0.1-0.4,0.2-0.6c0.3-0.8,0.5-1.5,0.5-2.1c0-0.1,0-0.2,0.1-0.3c0.1-0.5,0.2-1,0.2-1.9v0c0,0,0-0.5,0.2-0.9L178.8,244.2
	L178.8,244.2L178.8,244.2z M162.3,254.4C162.3,254.4,162.3,254.4,162.3,254.4c0.3-0.3,2.4-1.5,2.8-1.8c0.8-0.8,1.6-1.4,2-1.7
	c0.4-0.4,0.9-0.9,1.5-1.3c0,0,0.8-0.1,1.9-0.4c0,0,4.1-1.3,4.9-1.7l0,0l0,0c-0.4,0.8-0.4,1.5-0.4,1.6c0,0,0,0,0,0l0,0l0,0
	c0,0.9-0.1,1.3-0.3,2c0,0.6-0.5,2-0.7,2.5c-0.3,0.5-1.2,1.4-1.2,1.4v0.1l0,0l0,0c-1.6,0.2-3.1,0.3-4.3,0.3
	C164.6,255.5,162.3,254.7,162.3,254.4L162.3,254.4L162.3,254.4z M161.8,253C161.8,253,161.8,252.9,161.8,253
	C161.8,252.9,161.8,253,161.8,253L161.8,253z"/>
<path id="path6165" class="st1" d="M138.3,246.3c-1.3,0.3-3,1.4-3.6,2.3l0,0.1c-0.1,0.2-0.3,0.4-0.6,0.5l-0.5,0.4
	c0,0-1.4,1.6-1.4,1.6l-0.7,0.8l1,0.4c3.6,1.5,10.6,3.6,14.5,3.5l0-1.5c0.3,0,0.5,0.2,0.6,0.3c0,0,0-0.1,0-0.2c0-0.3,0.1-0.9,0.3-2
	c0.1-0.6,0.3-1,0.5-1.5c0,0,0.1-0.3,0.1-0.3c0,0,0.2-0.4,0.2-0.4c0.2-0.5,0.5-1,0.9-1.5l1.2-1.4c0,0-3,0.3-3.2,0.3
	c-3.8-0.4-5.7-0.7-9.1-1.3l-0.2,0L138.3,246.3L138.3,246.3z"/>
<path id="path6167" class="st0" d="M138.4,245.5H138v1.7c0.1-0.1,0.3-0.1,0.4-0.1l0,0l0,0l0,0l0,0l0,0c-0.3,0-0.4,0-0.4,0h0.4V245.5
	L138.4,245.5z M138.4,245.5l-0.3,0.1c-1.3,0.3-3.3,1.5-4,2.6l0,0.1l0,0.1c0,0.1-0.2,0.2-0.3,0.3c-0.2,0.1-0.4,0.3-0.6,0.5
	c0,0,0,0,0,0c-0.4,0.4-1.3,1.5-1.5,1.7l-1.3,1.6l1.9,0.8c3.3,1.4,10.2,3.5,14.4,3.5c0.2,0,0.3,0,0.4,0l-0.1-3.1c0.8,0,1.3,0.6,1.3,1
	c0,0-0.1-0.5,0.3-1.9l0-0.1l0-0.1c0.1-0.5,0.2-0.8,0.4-1.3c0-0.1,0.1-0.2,0.1-0.3c0.1-0.1,0.1-0.3,0.2-0.4c0.2-0.4,0.4-0.9,0.8-1.3
	L150,249c-0.1,0.2-0.2,0.3-0.3,0.5l-0.4-1.3l-1-1.2c0.1,0,0.2,0,0.3,0c0.1,0,0.2,0,0.4,0l-0.1-0.3l-1.2,0.1
	c-3.7-0.4-5.6-0.7-8.9-1.3L138.4,245.5L138.4,245.5L138.4,245.5z M132.8,251.8c0,0,0.9-1.2,1.3-1.6c0.4-0.4,0.9-0.7,1.2-1.2
	c0.4-0.7,2-1.7,3.1-2c3.5,0.7,5.4,0.9,9.2,1.3l1.4-0.1l0,0l0,0l0,0l0,0l0,0l0,0c-0.2,0.1-0.4,0.2-0.4,0.2l0.4-0.2l0,0l0,0
	c-0.7,0.8-0.9,1.6-1.2,2.1c-0.3,0.7-0.5,1.2-0.7,2c-0.3,1.1-0.3,1.8-0.3,2.2c0,0.7,0.2,0.7,0.2,0.7l0,0l0,0c-0.1,0-0.2,0-0.4,0
	C142.9,255.2,136.3,253.3,132.8,251.8L132.8,251.8L132.8,251.8L132.8,251.8z M134,248.3C134,248.3,134,248.3,134,248.3
	C134,248.3,134,248.3,134,248.3L134,248.3z M149.1,251C149.1,251,149.1,251,149.1,251C149.1,251,149.1,251,149.1,251L149.1,251z
	 M148.6,248.5C148.6,248.5,148.6,248.5,148.6,248.5L148.6,248.5L148.6,248.5z M148.6,248.5L148.6,248.5L148.6,248.5L148.6,248.5z
	 M148.6,248.5C148.6,248.5,148.6,248.5,148.6,248.5L148.6,248.5L148.6,248.5z"/>
<path id="path6171" class="st1" d="M160.9,242.1c-4.3,3.8-6.2,5.5-9.9,5.5h0c0,0-0.3,0-0.3,0c0,0,0,0,0,0c-0.3,0-1,0.1-1,0.8
	c0,0,0,0.1,0,0.1c0,0,0,0,0.1,0.1c-0.2,0.4-0.4,0.9-0.6,1.3l-0.2,0.5l-0.2,0.7l-0.3,1.5c0-0.1-0.1,1.4-0.1,1.4l0.1,1.8l0.6-0.1
	l1.3,0.1c3.8,0.2,3.9,0.2,8.1-0.9c0.2-0.1,3.3-1.1,6.4-4.1c0.6-0.4,2-1.6,2.6-2.1l0.6-0.6l-0.7-0.5c-1.1-0.9-3.9-3.6-3.9-5.5
	c0-0.2,0-0.3,0.1-0.5l0.7-2.5L160.9,242.1L160.9,242.1z"/>
<path id="path6173" class="st0" d="M165.9,236.8l-3.9,3.4c-0.6,0.5-1.1,1-1.6,1.4c-4.1,3.6-6,5.3-9.4,5.3h-0.1l-0.1,0
	c-0.1,0-0.2,0-0.3,0l-0.6,0.1l-0.4,0.5c-0.6,0.7-0.9,1.5-1.1,2.2c-0.1,0.1-0.1,0.3-0.2,0.4l-0.1,0.1l0,0.1c0,0.2-0.1,0.4-0.1,0.5
	c-0.1,0.5-0.3,1-0.3,1.7c-0.1,1.8,0,2.5,0,2.8l0.3,1.1l1.1,0.1c0.5,0,0.9,0,1.3,0.1c1.2,0.1,2,0.1,2.7,0.1c1.7,0,2.8-0.3,5.7-1
	l0.1,0l0.1,0c0.1,0,3.4-1.2,6.6-4.2c0.6-0.5,2.1-1.6,2.6-2.2l1.3-1.2l-1.4-1.1c-1.7-1.4-3.9-4-3.5-5.2L165.9,236.8L165.9,236.8
	L165.9,236.8z M150.7,248.4c0.1,0,0.2,0,0.3,0c4.5,0,6.6-2.4,12-7.1l0,0l0,0c-0.1,0.2-0.1,0.5-0.1,0.7c0,2.8,4.1,6.1,4.1,6.1l0,0
	l0,0c-0.5,0.5-2,1.7-2.6,2.1c-3,2.9-6.1,3.9-6.1,3.9c-2.9,0.7-3.8,1-5.3,1c-0.9,0-2-0.1-3.9-0.2c0,0-0.1-0.2-0.1-0.9
	c0-0.3,0-0.8,0.1-1.4c0-0.7,0.3-1.3,0.4-2C149.9,249.9,150.2,249,150.7,248.4c-0.2,0-0.3,0-0.3,0
	C150.3,248.4,150.7,248.4,150.7,248.4C150.7,248.4,150.7,248.4,150.7,248.4L150.7,248.4L150.7,248.4z M147.7,252.5
	C147.7,252.5,147.7,252.5,147.7,252.5C147.7,252.5,147.7,252.5,147.7,252.5L147.7,252.5z M154.4,246.3l-3.9,0.5c0,0-0.1,0-0.2,0
	c-0.1,0-0.1,0-0.2,0c-0.9,0.2-1.4,0.9-1.3,1.6c0,0.6,0.5,1.2,1.1,1.4c0.2-0.5,0.4-1.1,0.8-1.5c0.1,0,0.2,0,0.3,0
	c0.7,0,1.3-0.1,1.8-0.2L154.4,246.3L154.4,246.3L154.4,246.3z M150.4,248.4c0,0,0.3-0.1,0.3-0.1l0,0l0,0c0,0,0,0,0,0
	C150.5,248.4,150.4,248.4,150.4,248.4C150.4,248.4,150.4,248.4,150.4,248.4L150.4,248.4L150.4,248.4z"/>
<path id="path6177" class="st1" d="M131.4,257.4l-0.8,0.3l1.4,2.6l3.1,4l3.7-0.3c0,0,2.2,0,3.9,0.8l0.5,0.2l0.4-0.4
	c2.1-2.2,4.8-4.7,5.4-4.9l-0.3,0l0.4-1.5C143.9,256.7,136,255.7,131.4,257.4L131.4,257.4z"/>
<path id="path6179" class="st0" d="M137.6,255.8c-2.6,0-4.8,0.3-6.4,1l-1.6,0.6l0.8,1.5l0.9,1.8l0.1,0.1l0.1,0.1l2.8,3.7l0.5,0.7
	l0.8-0.1l3.2-0.3c0.3,0,2.2,0.1,3.6,0.8l1,0.5l0.8-0.8c2-2,4.5-4.4,5.2-4.7c0,0-0.2,0.1-0.5,0.1c-0.1,0-0.1,0-0.1,0l0.7-3
	C145.8,256.5,141.4,255.8,137.6,255.8L137.6,255.8L137.6,255.8z M131.7,258.2c1.6-0.6,3.6-0.9,5.9-0.9c3.7,0,7.9,0.7,11.3,1.9l0,0
	l0,0c0,0,0,0,0,0c-0.8,0-5.8,5.1-5.8,5.1c-1.9-0.9-4.3-0.9-4.3-0.9l-3.2,0.3l-2.8-3.7L131.7,258.2L131.7,258.2L131.7,258.2
	L131.7,258.2z M138.8,264.9L138.8,264.9C138.8,264.9,138.8,264.9,138.8,264.9L138.8,264.9z"/>
<polygon id="polygon6183" class="st1" points="193.9,284.3 200.5,278.7 198.8,276.8 192.2,282.4 "/>
<path id="path6185" class="st0" d="M198.9,275.7l-1.2,1l-5.4,4.6l-1.2,1l1,1.2l0.7,0.8l1,1.1l1.2-1l5.4-4.6l1.2-1l-1-1.2l-0.7-0.8
	L198.9,275.7L198.9,275.7L198.9,275.7z M193.3,282.4l5.4-4.6l0.7,0.8l0,0l0,0l-5.4,4.6L193.3,282.4L193.3,282.4L193.3,282.4z"/>
<polygon id="polygon6189" class="st1" points="111.8,282.6 113.4,280.7 107.2,275 105.5,276.9 "/>
<path id="path6191" class="st0" d="M107.1,273.9l-1,1.2l-0.7,0.8l-1,1.1l1.1,1l5.1,4.7l1.2,1.1l1-1.2l0.7-0.8l1-1.1l-1.1-1l-5.1-4.7
	L107.1,273.9L107.1,273.9z M106.6,276.8l0.7-0.8l5.1,4.7l0,0l0,0l-0.7,0.8L106.6,276.8L106.6,276.8L106.6,276.8z"/>
</svg>
