<svg id="Capa_1" data-name="Capa 1" xmlns="http://www.w3.org/2000/svg" viewBox="0 0 208 64"><defs><style>.cls-1{fill:#d7cc75;}</style></defs><title>LogoZorzalMesa de trabajo 1</title><path class="cls-1" d="M161.32,26l-.14-.23c-.05,0-.09,0-.09,0-.21.33-.63.35-.9.59,0,0-.1,0-.15,0l-.38.05a.91.91,0,0,1-.23,0,.87.87,0,0,0-.55.06.19.19,0,0,1-.09,0c-.37-.11-.72.05-1.08,0a2.53,2.53,0,0,0-.86.21.07.07,0,0,0-.06,0,3.37,3.37,0,0,0-.41.58c-.15.34-.23.7-.36,1.05a3.07,3.07,0,0,1-.27.46.58.58,0,0,0-.12.36.74.74,0,0,1-.17.55.85.85,0,0,0-.12.36c-.15.16-.31.33-.45.51s-.42.32-.68,0-.41-.52-.61-.78a.42.42,0,0,1,0-.12c0-.06,0-.13,0-.16-.27-.2-.32-.53-.48-.8,0,0-.05,0-.05-.08,0-.42-.42-.69-.51-1.09s-.36-.71-.37-1.14a1.93,1.93,0,0,0-.19-.59.44.44,0,0,1-.07-.22,9.47,9.47,0,0,0-.12-2c0-.12,0-.24,0-.36s0-.18,0-.23c-.14-.22-.06-.46-.09-.68s.05-.53,0-.79a6.22,6.22,0,0,0,0-1.14,2.51,2.51,0,0,1,0-.82c0-.36,0-.72,0-1.08,0,0,0-.05,0-.07a4,4,0,0,0-.06-.91.84.84,0,0,0-.16-.59.34.34,0,0,1,0-.4.73.73,0,0,0,.05-.58c0-.19-.05-.39-.08-.58a.17.17,0,0,0,0-.07c-.13-.4-.27-.8-.41-1.21a1.8,1.8,0,0,1-.08-.21.57.57,0,0,0-.27-.4.43.43,0,0,1-.2-.49,3.5,3.5,0,0,1,1.2.27.19.19,0,0,0,.3-.09.18.18,0,0,0-.1-.29c-.39-.11-.57-.44-.78-.72a3.11,3.11,0,0,0-.6-.79s0-.07-.06-.11c-.17-.52-.38-1-.51-1.55a4.36,4.36,0,0,1-.1-1,.46.46,0,0,1,.16-.26c.12-.09.28-.14.4-.23s.44-.32.67-.47a2.91,2.91,0,0,1,.45-.26c.42-.18.85-.36,1.28-.52a6.57,6.57,0,0,1,.67-.16c.31-.07.63-.17.95-.22a1.43,1.43,0,0,1,.65,0,3.58,3.58,0,0,0,1,0,1,1,0,0,1,.29,0c.17.05.32.14.51.06s.13,0,.2.08.38.22.63.12c.07,0,.18,0,.27.06l.83.33.17.09c.23.12.4.36.69.36,0,0,.07.08.1.12s.07.1.11.11a1.66,1.66,0,0,1,.82.56.48.48,0,0,0,.17.1c.05,0,.12,0,.15.07.24.34.63.52.87.87s.34.49.52.72a.51.51,0,0,0,.2.21.71.71,0,0,1,.35.42,1.09,1.09,0,0,0,.33.48,2.77,2.77,0,0,1,.43.77c.18.34.34.69.5,1a1.09,1.09,0,0,1,.08.15c.09.27.09.27.29.42a.82.82,0,0,0,.19.7s0,.14.07.22a.62.62,0,0,0,.08.24,1.69,1.69,0,0,1,.15.43c.14.35.18.75.51,1,.07.05.07.19.12.31a.62.62,0,0,1,.33.45,2.8,2.8,0,0,0,.46.82c.08.12.18.22.26.34s.15.29.34.34.09.09.12.15a2.29,2.29,0,0,0,.57.67c.22.19.41.42.62.62a2.36,2.36,0,0,0,.72.57.18.18,0,0,1,.1.09,1,1,0,0,0,.6.42c.12,0,.24.18.28.3a.44.44,0,0,0,.34.32.93.93,0,0,1,.57.36.59.59,0,0,0,.26.2.58.58,0,0,1,.36.41c.29-.05.46.13.63.3l.42.41.09,0c.25-.08.3.14.43.25a3.64,3.64,0,0,0,.87.68,4.4,4.4,0,0,1,.89.61c.17.13.16.13.41.11a.45.45,0,0,0,.36.36.39.39,0,0,1,.14.12s.06.1.09.13l1.09,1,.88.84a.46.46,0,0,0,.07.07,3.6,3.6,0,0,1,.82,1,3.93,3.93,0,0,0,.53.55.4.4,0,0,1,.15.3.52.52,0,0,0,.14.32,5.11,5.11,0,0,1,.74,1,4.34,4.34,0,0,0,1,1.24.43.43,0,0,1,.12.11,4.6,4.6,0,0,0,.56.93c0,.06.06.16.12.19.42.25.53.72.8,1.07.12.16.26.29.39.44a1.59,1.59,0,0,1,.25.33,2.3,2.3,0,0,0,.63.88c.13.1.19.29.29.43l.47.64c.21.27.42.54.62.82l.93,1.31c.34.48.68,1,1,1.45.12.17.26.32.39.48l.07,0-.21-.7c.16-.1.24,0,.32.08s.4.44.61.65a2.45,2.45,0,0,0,1.13.66s.1,0,.13,0c.27.18.56.33.84.49a5.54,5.54,0,0,1,.72.58.26.26,0,0,0,.11.07c.46,0,.69.43,1,.69,0,0,.08.09.13.09.42,0,.65.39,1,.59l.34.18a.41.41,0,0,1,.15.07l.65.53s.06.07.1.09a4.59,4.59,0,0,1,1,.7s.07.07.11.07c.35.07.53.38.81.56s.54.41.82.61.47.35.71.52l.28.19s.11,0,.14.07a3.22,3.22,0,0,0,1,.81,2.9,2.9,0,0,1,.29.19c.11.09.23.18.33.28.38.39.73.83,1.14,1.18a1.65,1.65,0,0,1,.54,1,2.59,2.59,0,0,0,.11.37.59.59,0,0,1-.1.58,2.81,2.81,0,0,1-.87-.3,3.57,3.57,0,0,0-.66-.29,2.45,2.45,0,0,1-.93-.65s-.06-.11-.1-.12a3.33,3.33,0,0,1-1.31-1c-.46-.4-.9-.84-1.37-1.23a5,5,0,0,1-.84-.69,1,1,0,0,0-.33-.22c-.06,0-.16,0-.2-.11-.19-.33-.56-.4-.86-.58l-.71-.41c-.19-.12-.45-.11-.57-.34-.27,0-.44-.16-.65-.27s-.38-.25-.61-.39c-.15.13-.34.05-.54-.07s-.35-.17-.53-.26a1.59,1.59,0,0,1-.21-.15l-.25-.19-.07,0,.1.28c.19.52.39,1,.56,1.56a.6.6,0,0,1-.59.81,2.13,2.13,0,0,1-1.07-.27c-.25-.12-.52-.18-.76-.31a9.62,9.62,0,0,1-1.2-.7c-.27-.19-.58-.3-.85-.49l-.17-.08c-.28-.21-.56-.42-.84-.65a2.48,2.48,0,0,0-.6-.39,2.61,2.61,0,0,1-.65-.45,12.69,12.69,0,0,0-1.45-1.08,8,8,0,0,1-.63-.53c-.35-.28-.71-.54-1.07-.81l-1-.73-.44-.35a.87.87,0,0,0-.1-.08,13,13,0,0,1-1.28-.92c-.37-.24-.71-.51-1.09-.73-.13-.07-.23-.17-.35-.25a4.32,4.32,0,0,0-.42-.27s-.12,0-.14-.06c-.19-.28-.53-.31-.75-.52a1.51,1.51,0,0,0-.35-.2c-.39-.19-.79-.37-1.17-.58s-1-.52-1.4-.81-.8-.58-1.21-.86-.62-.45-.94-.66c-.05,0-.13,0-.18-.06s-.18-.08-.21-.15a2.1,2.1,0,0,0-.73-.72c-.3-.22-.55-.51-.83-.75s-.55-.39-.82-.59a1.44,1.44,0,0,1-.28-.27,3,3,0,0,0-.77-.81,6.79,6.79,0,0,1-.6-.6q-.33-.3-.63-.63a1.1,1.1,0,0,0-.39-.15l0-.32a.45.45,0,0,1-.46-.38,1.39,1.39,0,0,0-.52-.63c-.05,0-.13-.07-.15-.12a3.42,3.42,0,0,0-.76-.89,11.7,11.7,0,0,1-.73-1s0-.05,0-.06c-.37-.18-.41-.61-.64-.9C161.68,26.07,161.51,26.05,161.32,26ZM152,13.4c.23.15.23.15.36,0Zm1.9.28a.14.14,0,0,0,0-.06h0a.07.07,0,0,0,0,.06Z"/><path class="cls-1" d="M156.11,54.37a.75.75,0,0,1,.74,0,21.7,21.7,0,0,0,2.08.64c.47.11.94.26,1.4.39.13,0,.25.07.37,0s.22,0,.3,0a.28.28,0,0,0,.39,0l.06,0a2.23,2.23,0,0,1,1.55-.29,3.8,3.8,0,0,0,1.26-.11,1.53,1.53,0,0,0,.83-.44,2.18,2.18,0,0,0,.64-1.19,2.48,2.48,0,0,1,.45-1.19.48.48,0,0,0,.07-.18c.09-.29.18-.59.29-.87,0-.1.13-.17.2-.27-.13-.11-.23,0-.3.06a4.76,4.76,0,0,1-1.58,1.16,7.89,7.89,0,0,1-1.29.59,3.68,3.68,0,0,1-1.28.29,1.61,1.61,0,0,0-.48.08l-.75.15a.43.43,0,0,1-.16,0c-.43,0-.86,0-1.29-.07s-.72-.18-1.09-.27c-.34-.35-.87-.49-1.1-1,0-.07-.11-.11-.15-.17s-.12-.15-.11-.21.14-.16.26-.15a5.4,5.4,0,0,1,.58.11l1.57.4c.23.06.47.11.7.18a3.68,3.68,0,0,0,1.55,0c.48-.08,1-.2,1.43-.31.08,0,.15-.1.23-.14s.16-.13.22-.11c.28.05.45-.14.66-.24a1.73,1.73,0,0,1,.39-.18,4.73,4.73,0,0,0,1.23-.8s.07-.09.11-.12a2.33,2.33,0,0,0,.91-1.1.41.41,0,0,1,.07-.11s0,0,.08,0a.38.38,0,0,1,.15.45c-.05.18-.12.36-.17.54a1.3,1.3,0,0,0,0,.21l.06,0a5,5,0,0,0,.45-.58,1,1,0,0,1,.49-.48.91.91,0,0,0,.27-.18c.23-.23.45-.47.67-.71,0,0,0,0,0-.05a3.27,3.27,0,0,1,.54-.74,1.26,1.26,0,0,0,.14-.4,3.31,3.31,0,0,0,.14-1,2.8,2.8,0,0,1,0-.29.51.51,0,0,1,.62-.54c.2,0,.4-.06.58.09,0,0,.08,0,.12,0a3,3,0,0,1,1.08.1c.53.09.68.42.65.91a2.43,2.43,0,0,1-.64,1.48l-.19.24a1.82,1.82,0,0,1-.34.34c-.23.18-.48.35-.73.51a2.26,2.26,0,0,1-.35.17,1.5,1.5,0,0,0-.8.75c-.11.22-.1.29.07.47a.88.88,0,0,0,.27.24,1.22,1.22,0,0,1,.6,1.17c0,.09,0,.18,0,.27a.68.68,0,0,1-.51.81l-.27.12a1.23,1.23,0,0,1-1.6-.64,5.1,5.1,0,0,1-.2-.59s0-.08-.06-.16a2.22,2.22,0,0,0-.32.24c-.34.44-.69.89-1,1.34-.18.26-.34.55-.5.82a1.12,1.12,0,0,0-.12.74.43.43,0,0,0,.2.32.3.3,0,0,0,.34.05.92.92,0,0,1,.23,0,3.87,3.87,0,0,1,.68,0c.34,0,.67,0,1,0a5.25,5.25,0,0,1,1,.16,3.74,3.74,0,0,1,1.52.78c.21.17.16.36-.07.52a1.76,1.76,0,0,1-.9.14l-.45,0s-.05,0-.07,0l-1.38,0s-.07,0-.09,0c-.39.2-.84.07-1.24.27A4,4,0,0,1,166,57l-1,.16c-.26,0-.53,0-.77.13,0,0-.11,0-.17,0h-.65L162,57.3a1,1,0,0,0-.55,0c-.07,0-.18,0-.26,0a1.53,1.53,0,0,0-.37,0,3.74,3.74,0,0,1-1.62-.23,3.19,3.19,0,0,0-1.34-.16.8.8,0,0,1-.74-.58c-.05-.3-.08-.59-.11-.89a.78.78,0,0,0-.42-.69A4.33,4.33,0,0,1,156.11,54.37Z"/><path class="cls-1" d="M143.71,9.16c.47-.2.89-.14,1.29-.29a2.64,2.64,0,0,1,.89,0c.19,0,.39,0,.59,0a7.6,7.6,0,0,1,1.17.11,7.4,7.4,0,0,0,.94.17c.26,0,.36.24.45.44a1.46,1.46,0,0,1,.1,1.21s0,0,0,.06c.16.3-.08.54-.11.82a.86.86,0,0,1-.55.72.47.47,0,0,1-.35,0,11,11,0,0,0-1.17-.22,3.24,3.24,0,0,1-1.57-.64.53.53,0,0,0-.17-.08,1.52,1.52,0,0,1-.75-.4,3.83,3.83,0,0,0-.46-.33.66.66,0,0,1-.34-.57.33.33,0,0,0,0-.22A.68.68,0,0,1,143.71,9.16Z"/><path class="cls-1" d="M152,13.4l.36,0C152.24,13.55,152.24,13.55,152,13.4Z"/><path class="cls-1" d="M153.91,13.68h0a.07.07,0,0,1,0-.06h0A.14.14,0,0,1,153.91,13.68Z"/><path class="cls-1" d="M26.44,15.74v7a1.82,1.82,0,0,0,.13.82.9.9,0,0,0,.5.39v.44h-2.8V23.9a.89.89,0,0,0,.5-.38,1.85,1.85,0,0,0,.13-.83V6.87A1.93,1.93,0,0,0,24.77,6a.84.84,0,0,0-.5-.37V5.21h7.35A9.45,9.45,0,0,1,34,5.45a3.69,3.69,0,0,1,1.53.8,4.21,4.21,0,0,1,1.07,1.62,6.8,6.8,0,0,1,.48,2.62,5.85,5.85,0,0,1-1,3.57,3.84,3.84,0,0,1-2.79,1.58l3.4,7.56a1,1,0,0,0,.89.7v.44h-3.1V23.9c.32-.08.48-.21.48-.4a4.54,4.54,0,0,0-.35-.91l-3-6.85Zm0-1.82h5.43a7.65,7.65,0,0,0,1.67-.14,2.39,2.39,0,0,0,1-.48,3.49,3.49,0,0,0,1-2.82,3.46,3.46,0,0,0-1-2.83,2.65,2.65,0,0,0-1-.49A9.25,9.25,0,0,0,31.73,7H26.44Z"/><path class="cls-1" d="M41.88,15.42v7.1h8.59a.77.77,0,0,0,.58-.18,1.48,1.48,0,0,0,.26-.71h.31v3.61h-.31a1.58,1.58,0,0,0-.27-.71.74.74,0,0,0-.58-.19H39.71V23.9a.88.88,0,0,0,.51-.38,2,2,0,0,0,.12-.83V6.87A1.85,1.85,0,0,0,40.21,6a.89.89,0,0,0-.5-.38V5.21H50.34A.77.77,0,0,0,50.92,5a1.39,1.39,0,0,0,.26-.71h.32V7.93h-.32a1.38,1.38,0,0,0-.26-.71A.77.77,0,0,0,50.34,7H41.88v6.55h5.55a.79.79,0,0,0,.58-.18,1.48,1.48,0,0,0,.26-.71h.31v3.61h-.31A1.48,1.48,0,0,0,48,15.6a.79.79,0,0,0-.58-.18Z"/><path class="cls-1" d="M56.34,7v6.53h5.81a.74.74,0,0,0,.58-.19,1.34,1.34,0,0,0,.26-.71h.32v3.62H63a1.39,1.39,0,0,0-.26-.72.77.77,0,0,0-.58-.18H56.34v7.3a2,2,0,0,0,.12.83,1,1,0,0,0,.51.38v.44h-2.8V23.9a.89.89,0,0,0,.5-.38,1.85,1.85,0,0,0,.13-.83V6.87A1.93,1.93,0,0,0,54.67,6a.84.84,0,0,0-.5-.37V5.21H65.06A.8.8,0,0,0,65.65,5a1.39,1.39,0,0,0,.26-.71h.31V7.93h-.31a1.48,1.48,0,0,0-.26-.72A.85.85,0,0,0,65.06,7Z"/><path class="cls-1" d="M70.4,6.87V17.45a17.29,17.29,0,0,0,.14,2.64,2.92,2.92,0,0,0,.57,1.32c.7.9,2,1.35,3.91,1.35,2.08,0,3.44-.53,4.09-1.58a3.29,3.29,0,0,0,.43-1.27,19.54,19.54,0,0,0,.11-2.46V6.87a1.8,1.8,0,0,0-.13-.82.86.86,0,0,0-.5-.39V5.21h2.66v.45a.87.87,0,0,0-.5.37,2.09,2.09,0,0,0-.13.84v11a13.42,13.42,0,0,1-.27,3.1,4.52,4.52,0,0,1-1.92,2.8,7.22,7.22,0,0,1-3.9.9q-3.72,0-5.1-2.06a5.34,5.34,0,0,1-.78-1.88,14.46,14.46,0,0,1-.22-2.86v-11A1.93,1.93,0,0,0,68.73,6a.84.84,0,0,0-.5-.37V5.21H71v.45a.86.86,0,0,0-.5.39A1.8,1.8,0,0,0,70.4,6.87Z"/><path class="cls-1" d="M98.49,7.05,97,10.47l-.26-.25a1.81,1.81,0,0,0,.18-.63q0-.43-1.05-1.23A6.69,6.69,0,0,0,91.71,6.8a5.24,5.24,0,0,0-4.14,2,9,9,0,0,0-1.94,6.05,8.92,8.92,0,0,0,1.85,5.91,5.41,5.41,0,0,0,4.33,2,6,6,0,0,0,4.78-2.37V16.86H93.42a.77.77,0,0,0-.58.18,1.48,1.48,0,0,0-.26.72h-.31V14.14h.31a1.53,1.53,0,0,0,.26.72.77.77,0,0,0,.58.18h5.27v.45a.88.88,0,0,0-.5.38,1.91,1.91,0,0,0-.13.82v2.48a2,2,0,0,0,.13.83.93.93,0,0,0,.5.38v.39A13.21,13.21,0,0,1,96.6,23a7.54,7.54,0,0,1-4.85,1.71,6.61,6.61,0,0,1-5.43-2.59A9.89,9.89,0,0,1,84.7,19,13.48,13.48,0,0,1,84,14.74,12.15,12.15,0,0,1,85.35,9a7.76,7.76,0,0,1,3.3-3.38,6.88,6.88,0,0,1,3.14-.74,7.31,7.31,0,0,1,2.72.5,11,11,0,0,1,2.71,1.67,1.64,1.64,0,0,0,.52.34c.1,0,.26-.2.48-.59Z"/><path class="cls-1" d="M101.86,22.69V6.87a1.93,1.93,0,0,0-.13-.84.84.84,0,0,0-.5-.37V5.21H104v.45a.89.89,0,0,0-.5.38,1.85,1.85,0,0,0-.13.83V22.69a2,2,0,0,0,.12.83.88.88,0,0,0,.51.38v.44h-2.8V23.9a.88.88,0,0,0,.51-.38A2,2,0,0,0,101.86,22.69Z"/><path class="cls-1" d="M114.63,4.88a7,7,0,0,1,5.71,2.65,9.87,9.87,0,0,1,1.83,3.6,13.8,13.8,0,0,1,.5,3.77A12.21,12.21,0,0,1,121.58,20a7.8,7.8,0,0,1-3.33,3.8,7.38,7.38,0,0,1-3.6.87A7,7,0,0,1,109,22a10.18,10.18,0,0,1-1.82-3.6,12.94,12.94,0,0,1-.5-3.66,12.63,12.63,0,0,1,1.08-5.24,7.27,7.27,0,0,1,6.9-4.65Zm0,1.92a5.6,5.6,0,0,0-4.77,2.41,9.21,9.21,0,0,0-1.6,5.56,9.28,9.28,0,0,0,1.6,5.58,6,6,0,0,0,9.6,0,9.15,9.15,0,0,0,1.6-5.47,9.34,9.34,0,0,0-1.6-5.67A5.72,5.72,0,0,0,117.4,7.4,6.44,6.44,0,0,0,114.63,6.8Z"/><path class="cls-1" d="M6.5,57.33V41.11a1.25,1.25,0,0,0-.13-.64,1.08,1.08,0,0,0-.49-.37v-.44h7.06a6,6,0,0,1,3.68,1,7.33,7.33,0,0,1,2.45,3.67,15.34,15.34,0,0,1,.74,4.93,14.4,14.4,0,0,1-1,5.64,6.52,6.52,0,0,1-2.26,3,6.37,6.37,0,0,1-3.61.92H5.88v-.45A1.08,1.08,0,0,0,6.37,58,1.25,1.25,0,0,0,6.5,57.33ZM8,57h4.84A4.61,4.61,0,0,0,16,56a6.79,6.79,0,0,0,1.78-3.44,14.27,14.27,0,0,0,.38-3.38A11.51,11.51,0,0,0,17,43.69,4.1,4.1,0,0,0,15.41,42a5.46,5.46,0,0,0-2.53-.5H8Z"/><path class="cls-1" d="M24.58,49.86V57h8.59a.77.77,0,0,0,.58-.18,1.48,1.48,0,0,0,.26-.71h.31v3.61H34a1.37,1.37,0,0,0-.27-.71.77.77,0,0,0-.58-.18H22.42v-.45a.89.89,0,0,0,.5-.38,2,2,0,0,0,.12-.83V41.31a2,2,0,0,0-.12-.83,1,1,0,0,0-.5-.38v-.44H33a.77.77,0,0,0,.58-.18,1.48,1.48,0,0,0,.26-.72h.32v3.61h-.32a1.42,1.42,0,0,0-.26-.71.77.77,0,0,0-.58-.18H24.58V48h5.55a.75.75,0,0,0,.58-.19,1.44,1.44,0,0,0,.26-.71h.31v3.62H31a1.48,1.48,0,0,0-.26-.72.79.79,0,0,0-.58-.18Z"/><path class="cls-1" d="M39,57H47.6a.77.77,0,0,0,.58-.18,1.48,1.48,0,0,0,.26-.71h.31v3.61h-.31a1.48,1.48,0,0,0-.26-.71.77.77,0,0,0-.58-.18H36.87v-.45a.88.88,0,0,0,.51-.38,2,2,0,0,0,.12-.83V41.31a2,2,0,0,0-.12-.83,1,1,0,0,0-.51-.38v-.44h2.8v.44a.93.93,0,0,0-.5.38,2,2,0,0,0-.13.83Z"/><path class="cls-1" d="M66.44,39.66v.39L57.24,57h8.11a.8.8,0,0,0,.59-.18,1.48,1.48,0,0,0,.26-.71h.31v3.61H66.2a1.48,1.48,0,0,0-.26-.71.8.8,0,0,0-.59-.18H54.59v-.41l9.24-16.9h-8a.8.8,0,0,0-.59.18,1.52,1.52,0,0,0-.26.71H54.7V38.76H55a1.48,1.48,0,0,0,.26.72.8.8,0,0,0,.59.18Z"/><path class="cls-1" d="M76.16,39.32A7,7,0,0,1,81.87,42a9.87,9.87,0,0,1,1.83,3.6,13.8,13.8,0,0,1,.5,3.77,12.28,12.28,0,0,1-1.09,5.12,7.82,7.82,0,0,1-3.33,3.79,7.38,7.38,0,0,1-3.6.87,7,7,0,0,1-5.68-2.65,10.18,10.18,0,0,1-1.82-3.6,12.94,12.94,0,0,1-.5-3.66A12.63,12.63,0,0,1,69.26,44a7.27,7.27,0,0,1,6.9-4.65Zm0,1.92a5.58,5.58,0,0,0-4.76,2.41,9.17,9.17,0,0,0-1.61,5.56,9.17,9.17,0,0,0,1.61,5.58,6,6,0,0,0,9.59,0,9,9,0,0,0,1.6-5.46A9.28,9.28,0,0,0,81,43.65a5.72,5.72,0,0,0-2.06-1.81A6.44,6.44,0,0,0,76.16,41.24Z"/><path class="cls-1" d="M89,50.18v7a2,2,0,0,0,.13.82.89.89,0,0,0,.5.39v.45H86.81v-.45a.93.93,0,0,0,.5-.38,2,2,0,0,0,.12-.83V41.31a2,2,0,0,0-.12-.83.84.84,0,0,0-.5-.38v-.44h7.34a9.47,9.47,0,0,1,2.39.23,3.63,3.63,0,0,1,1.53.8,4.42,4.42,0,0,1,1.08,1.62,7,7,0,0,1,.47,2.62,5.85,5.85,0,0,1-1,3.57,3.78,3.78,0,0,1-2.79,1.58l3.41,7.56a1,1,0,0,0,.88.7v.45H97v-.45q.48-.12.48-.39a3.83,3.83,0,0,0-.34-.91l-3-6.86Zm0-1.82H94.4a8.42,8.42,0,0,0,1.67-.13,2.4,2.4,0,0,0,1-.49,3.48,3.48,0,0,0,1-2.81,3.48,3.48,0,0,0-1-2.84,2.65,2.65,0,0,0-1-.49,9.18,9.18,0,0,0-1.75-.12H89Z"/><path class="cls-1" d="M113.17,39.66v.39L104,57h8.11a.77.77,0,0,0,.58-.18,1.48,1.48,0,0,0,.26-.71h.31v3.61h-.31a1.48,1.48,0,0,0-.26-.71.77.77,0,0,0-.58-.18H101.32v-.41l9.23-16.9h-8a.77.77,0,0,0-.58.18,1.42,1.42,0,0,0-.26.71h-.32V38.76h.32a1.39,1.39,0,0,0,.26.72.77.77,0,0,0,.58.18Z"/><path class="cls-1" d="M124.74,53.42h-7.17l-1.17,3.63a2.5,2.5,0,0,0-.17.73c0,.28.19.46.58.56v.45h-3v-.45a1,1,0,0,0,.62-.42,7.16,7.16,0,0,0,.55-1.4l4.91-15.13a3.25,3.25,0,0,0,.17-.74c0-.24-.16-.42-.48-.55v-.44h3.26v.44c-.32.15-.48.35-.48.59a3.34,3.34,0,0,0,.17.7L127.24,56a15.66,15.66,0,0,0,.69,1.89,1.29,1.29,0,0,0,.73.48v.45h-3.18v-.45c.38-.08.57-.28.57-.62a3.28,3.28,0,0,0-.22-.87Zm-.57-1.82-3-9.46-3,9.46Z"/><path class="cls-1" d="M132.22,57h8.55a.76.76,0,0,0,.58-.18,1.3,1.3,0,0,0,.26-.71h.32v3.61h-.32a1.3,1.3,0,0,0-.26-.71.76.76,0,0,0-.58-.18H130.05v-.45a.89.89,0,0,0,.5-.38,1.85,1.85,0,0,0,.13-.83V41.31a2,2,0,0,0-.13-.83.93.93,0,0,0-.5-.38v-.44h2.79v.44a1,1,0,0,0-.5.38,2,2,0,0,0-.12.83Z"/></svg>